{"glyphs":{"0":{"ha":858,"x_min":0,"x_max":0,"o":"m 161 697 b 556 1006 196 890 339 1006 b 844 689 771 1006 879 882 l 774 288 b 379 -19 740 94 596 -19 b 90 296 163 -19 57 101 m 806 694 b 551 968 835 865 742 968 b 201 694 358 968 231 865 l 131 293 b 385 18 99 121 190 18 b 735 293 575 18 703 121 "},"1":{"ha":572,"x_min":0,"x_max":0,"o":"m 535 986 b 544 975 542 986 546 982 l 374 11 b 361 0 372 4 368 0 l 343 0 b 333 11 333 0 331 4 l 497 938 l 129 751 b 114 756 121 747 115 749 l 107 771 b 114 785 103 776 106 781 l 503 981 b 518 986 507 985 513 986 "},"2":{"ha":804,"x_min":0,"x_max":0,"o":"m 146 782 b 532 1006 240 933 356 1006 b 788 715 721 1006 819 893 b 608 468 764 589 700 519 b 406 382 543 432 488 411 b 385 375 396 379 389 376 b 296 343 347 363 317 351 b 219 306 275 333 249 321 b 147 258 189 290 165 274 b 68 117 113 226 79 176 l 56 38 l 657 38 b 665 26 664 38 667 33 l 663 11 b 650 0 661 4 657 0 l 18 0 b 8 13 11 0 7 4 l 25 111 b 157 310 42 199 81 261 b 257 365 194 333 228 353 b 381 413 286 378 326 393 b 601 507 490 451 564 483 b 747 718 683 558 732 628 b 528 968 775 874 690 968 b 182 767 371 968 267 904 b 167 760 178 760 172 757 l 150 768 b 146 782 144 771 143 775 "},"3":{"ha":815,"x_min":0,"x_max":0,"o":"m 771 729 b 594 508 753 625 694 540 b 718 264 696 471 740 385 b 350 -19 685 75 563 -19 b 43 231 143 -19 61 63 b 53 246 42 238 44 243 l 68 250 b 83 243 75 253 81 250 b 154 72 92 164 115 107 b 354 18 192 36 258 18 b 678 265 542 18 649 100 b 499 488 701 400 638 488 l 249 488 b 240 499 240 488 238 492 l 243 514 b 256 525 243 521 247 525 l 501 525 b 733 732 633 525 711 614 b 521 968 760 881 682 968 b 313 919 432 968 363 951 b 182 754 261 886 218 831 b 165 749 179 747 174 746 l 151 753 b 146 768 144 756 142 761 b 529 1006 222 933 328 1006 b 771 729 713 1006 803 901 "},"4":{"ha":825,"x_min":0,"x_max":0,"o":"m 760 338 b 768 326 768 338 771 333 l 767 311 b 754 300 765 304 761 300 l 597 300 l 546 11 b 533 0 544 4 540 0 l 515 0 b 507 11 508 0 506 4 l 558 300 l 32 300 b 22 311 25 300 22 304 l 25 322 b 31 338 25 325 26 331 l 674 996 b 690 1003 679 1000 685 1003 l 710 1003 b 719 992 717 1003 721 999 l 604 338 m 672 944 l 76 338 l 564 338 "},"5":{"ha":807,"x_min":0,"x_max":0,"o":"m 793 986 b 803 975 800 986 803 982 l 799 960 b 786 949 797 953 793 949 l 279 949 l 176 576 l 444 576 b 715 275 649 576 749 464 b 339 -21 683 101 549 -21 b 25 193 156 -21 51 50 b 32 207 24 200 26 206 l 54 215 b 65 207 61 217 65 214 b 344 17 89 81 182 17 b 674 281 524 17 646 126 b 440 538 703 446 617 538 l 143 538 b 131 556 131 538 126 543 l 244 964 b 272 986 249 979 258 986 "},"6":{"ha":849,"x_min":0,"x_max":0,"o":"m 171 500 b 499 558 261 539 369 558 b 779 263 725 558 813 461 b 386 -19 747 81 604 -19 b 99 324 163 -19 60 108 l 158 665 b 564 1006 197 889 336 1006 b 860 799 732 1006 831 936 b 850 785 861 792 857 788 l 832 778 b 821 786 825 776 822 779 b 557 968 794 907 707 968 b 200 664 357 968 233 864 m 139 322 b 390 18 104 132 192 18 b 740 269 585 18 711 108 b 489 521 769 440 690 521 b 163 460 368 521 258 500 "},"7":{"ha":696,"x_min":0,"x_max":0,"o":"m 761 986 b 771 975 768 986 771 982 l 768 964 b 763 949 767 961 765 956 l 185 10 b 163 0 181 3 172 0 l 144 0 b 142 11 138 0 136 4 l 718 949 l 133 949 b 122 960 126 949 122 953 l 126 975 b 139 986 128 982 132 986 "},"8":{"ha":839,"x_min":0,"x_max":0,"o":"m 183 767 b 544 1006 211 922 343 1006 b 822 760 754 1006 849 919 b 538 500 799 625 703 539 b 706 414 614 476 660 454 b 754 231 751 374 769 313 b 364 -19 725 64 596 -19 b 58 225 121 -19 31 68 b 203 433 75 315 131 390 b 381 508 274 476 324 496 b 228 594 313 532 269 554 b 183 767 186 633 171 693 m 783 763 b 538 969 807 897 722 969 b 224 763 361 969 247 896 b 317 576 215 663 239 614 b 388 547 344 563 368 553 b 471 521 406 540 433 532 l 485 517 b 596 549 517 522 535 525 b 675 592 626 561 653 575 b 783 763 719 624 771 686 m 714 233 b 633 418 729 317 701 378 b 458 483 603 436 544 458 b 432 492 446 488 438 490 b 311 457 400 486 381 483 b 221 410 276 443 246 428 b 100 226 169 375 115 306 b 369 17 76 92 153 17 b 714 233 574 17 689 89 "},"9":{"ha":849,"x_min":0,"x_max":0,"o":"m 736 486 b 408 428 643 447 533 428 b 126 724 182 428 93 525 b 519 1006 160 906 301 1006 b 807 663 743 1006 846 878 l 747 321 b 343 -19 708 97 571 -19 b 46 188 174 -19 75 50 b 56 201 44 194 49 199 l 74 208 b 86 200 81 211 85 208 b 349 18 111 79 199 18 b 707 322 553 18 672 119 m 767 664 b 515 968 801 854 714 968 b 167 717 322 968 196 878 b 417 465 138 546 215 465 b 743 526 543 465 651 486 "}," ":{"ha":350,"x_min":0,"x_max":0,"o":""},"!":{"ha":246,"x_min":0,"x_max":0,"o":"m 246 1028 b 254 1018 251 1028 254 1025 l 104 204 b 92 194 103 197 99 194 l 83 194 b 75 204 76 194 74 197 l 211 1018 b 225 1028 213 1025 217 1028 m 67 56 b 89 28 88 56 93 49 l 89 21 b 56 -6 85 3 74 -6 l 49 -6 b 28 21 28 -6 24 -1 l 28 28 b 61 56 32 46 43 56 "},"\"":{"ha":347,"x_min":0,"x_max":0,"o":"m 172 690 b 160 682 171 685 167 682 l 150 682 b 143 690 144 682 142 685 l 194 976 b 204 986 194 983 197 986 l 224 986 b 233 976 231 986 233 983 m 294 690 b 282 682 293 685 289 682 l 272 682 b 264 690 267 682 264 685 l 315 976 b 326 986 317 983 319 986 l 346 986 b 354 976 353 986 356 983 "},"#":{"ha":915,"x_min":0,"x_max":0,"o":"m 896 642 b 903 631 903 642 906 638 l 894 614 b 879 606 890 608 886 606 l 706 606 l 574 326 l 746 326 b 753 315 753 326 756 322 l 744 299 b 729 290 740 293 736 290 l 557 290 l 424 10 b 407 0 418 3 413 0 l 389 0 b 383 10 382 0 379 3 l 515 290 l 256 290 l 124 10 b 108 0 121 3 115 0 l 89 0 b 83 10 82 0 79 3 l 217 290 l 46 290 b 40 300 39 290 36 293 l 49 317 b 64 326 51 324 57 326 l 235 326 l 367 606 l 196 606 b 190 615 189 606 186 608 l 199 632 b 214 642 201 639 207 642 l 385 642 l 499 882 b 514 893 501 889 507 893 l 532 893 b 538 882 539 893 542 889 l 424 642 l 683 642 l 797 882 b 811 893 801 889 806 893 l 831 893 b 838 882 839 893 842 889 l 724 642 m 406 606 l 274 326 l 533 326 l 665 606 "},"$":{"ha":821,"x_min":0,"x_max":0,"o":"m 535 1097 b 543 1088 542 1097 544 1094 l 525 983 b 704 925 604 979 664 960 b 800 769 743 890 775 838 b 792 754 803 763 800 757 l 776 749 b 763 753 769 746 764 747 b 628 922 729 842 700 889 b 488 946 590 938 544 946 b 182 714 311 946 210 868 b 433 514 153 546 290 526 l 439 514 b 615 478 517 507 554 500 b 685 436 646 467 669 453 b 722 263 717 403 738 342 b 353 4 692 93 568 7 l 333 -101 b 321 -111 333 -108 329 -111 l 304 -111 b 296 -101 299 -111 296 -108 l 314 3 b 38 250 147 10 75 93 b 47 267 36 257 40 263 l 64 272 b 78 265 71 274 75 272 b 349 40 117 111 182 40 b 682 267 544 40 656 115 b 596 444 697 357 669 415 b 425 475 565 456 508 465 b 250 510 349 482 310 488 b 181 551 219 521 196 535 b 143 718 149 583 128 640 b 488 983 172 892 288 981 l 506 1088 b 518 1097 507 1094 511 1097 "},"%":{"ha":1115,"x_min":0,"x_max":0,"o":"m 139 807 b 382 1007 161 935 247 1007 b 558 800 519 1007 581 928 l 540 697 b 297 499 518 569 435 499 b 121 704 160 499 99 576 m 1046 986 b 1049 974 1054 986 1056 982 l 169 10 b 144 0 164 3 156 0 l 131 0 b 126 13 119 0 118 4 l 1006 976 b 1028 986 1011 983 1018 986 m 525 803 b 378 974 546 910 493 974 b 172 803 265 974 193 910 l 154 701 b 301 532 133 594 186 532 b 507 701 414 532 486 594 m 633 290 b 876 488 656 417 739 488 b 1054 281 1014 488 1076 408 l 1036 176 b 790 -21 1014 50 928 -21 b 615 188 656 -21 593 60 m 1019 283 b 872 454 1040 390 988 454 b 667 283 760 454 688 390 l 649 182 b 796 13 631 75 683 13 b 1003 182 908 13 985 76 "},"&":{"ha":893,"x_min":0,"x_max":0,"o":"m 236 783 b 328 942 247 846 278 899 b 513 1006 378 985 439 1006 b 669 938 579 1006 632 983 b 708 778 707 892 719 839 b 625 626 696 713 668 663 b 411 513 581 590 510 553 l 397 507 l 654 211 l 778 311 b 793 311 783 315 789 315 l 804 297 b 801 283 808 293 807 289 l 676 183 l 829 11 b 822 0 835 4 832 0 l 799 0 b 782 8 792 0 786 3 l 649 160 b 428 15 556 86 482 39 b 261 -19 374 -8 318 -19 b 96 56 192 -19 136 6 b 53 235 54 104 40 164 b 143 408 65 310 96 368 b 338 519 190 449 256 486 b 236 783 256 613 221 701 m 671 781 b 639 914 681 832 669 876 b 506 971 607 951 563 971 b 353 914 447 971 396 951 b 272 779 308 876 282 831 b 315 608 261 714 289 644 b 374 536 328 590 347 565 l 399 546 b 582 635 492 583 553 613 b 671 781 631 671 660 719 m 361 490 b 175 389 281 458 218 425 b 92 232 131 351 103 300 b 128 79 82 172 93 121 b 268 17 161 38 208 17 b 419 51 319 17 369 28 b 625 188 468 74 538 119 "},"'":{"ha":225,"x_min":0,"x_max":0,"o":"m 172 690 b 160 682 171 685 167 682 l 150 682 b 143 690 144 682 142 685 l 194 976 b 204 986 194 983 197 986 l 224 986 b 233 976 231 986 233 983 "},"(":{"ha":318,"x_min":0,"x_max":0,"o":"m 186 849 b 432 1153 214 1008 292 1093 b 444 1147 438 1157 442 1154 l 449 1132 b 442 1118 450 1125 447 1121 b 224 849 315 1064 247 989 l 96 135 b 221 -135 72 -6 114 -81 b 224 -149 226 -139 228 -143 l 214 -161 b 199 -167 208 -168 203 -169 b 60 138 78 -107 32 -22 "},")":{"ha":318,"x_min":0,"x_max":0,"o":"m 154 1147 b 168 1153 158 1154 163 1156 b 307 849 289 1093 335 1008 l 181 138 b -62 -168 154 -22 78 -108 b -76 -162 -69 -171 -74 -169 l -82 -146 b -74 -132 -83 -139 -81 -135 b 143 138 53 -78 119 -3 l 269 851 b 147 1121 296 994 257 1067 b 143 1135 140 1125 139 1129 "},"*":{"ha":543,"x_min":0,"x_max":0,"o":"m 374 935 b 379 926 381 935 382 932 l 344 760 l 511 817 b 524 813 518 818 522 817 l 524 796 b 515 785 525 789 522 786 l 346 742 l 428 608 b 424 596 431 604 429 600 l 408 586 b 397 589 401 582 399 583 l 328 729 l 210 590 b 197 586 206 583 201 582 l 186 597 b 186 608 181 601 181 606 l 314 742 l 164 786 b 158 797 156 788 154 792 l 167 813 b 178 818 168 818 172 819 l 324 760 l 347 926 b 357 935 349 932 351 935 "},"+":{"ha":811,"x_min":0,"x_max":0,"o":"m 732 472 b 740 461 740 472 743 468 l 738 447 b 725 436 738 440 733 436 l 426 436 l 374 138 b 361 126 372 131 368 126 l 346 126 b 338 138 339 126 336 131 l 390 436 l 92 436 b 82 447 85 436 82 440 l 85 461 b 99 472 88 468 92 472 l 397 472 l 450 771 b 461 782 450 778 454 782 l 476 782 b 486 771 483 782 488 778 l 433 472 "},",":{"ha":203,"x_min":0,"x_max":0,"o":"m -32 -158 b -46 -168 -35 -165 -39 -168 l -54 -168 b -61 -160 -60 -168 -62 -165 l 28 50 b 47 64 31 60 38 64 l 63 64 b 72 50 75 64 78 60 "},"-":{"ha":596,"x_min":0,"x_max":0,"o":"m 489 388 b 497 376 497 388 500 383 l 494 361 b 483 350 494 354 490 350 l 90 350 b 81 361 83 350 81 354 l 83 376 b 97 388 86 383 90 388 "},".":{"ha":207,"x_min":0,"x_max":0,"o":"m 58 56 b 79 28 79 56 83 49 l 78 21 b 44 -6 74 3 63 -6 l 39 -6 b 17 21 17 -6 11 -1 l 18 28 b 51 56 22 46 33 56 "},"/":{"ha":539,"x_min":0,"x_max":0,"o":"m 14 -74 b -3 -83 10 -81 4 -83 l -22 -83 b -28 -74 -29 -83 -32 -81 l 547 976 b 563 986 550 983 556 986 l 582 986 b 588 976 590 986 592 983 "},":":{"ha":258,"x_min":0,"x_max":0,"o":"m 167 611 b 188 585 188 611 192 606 l 186 578 b 154 550 182 560 172 550 l 147 550 b 126 578 126 550 121 556 l 128 585 b 160 611 129 606 139 611 m 89 108 b 110 81 110 108 114 101 l 108 74 b 75 47 104 56 93 47 l 69 47 b 47 74 47 47 42 51 l 49 81 b 82 108 53 99 64 108 "},";":{"ha":263,"x_min":0,"x_max":0,"o":"m 161 665 b 182 638 182 665 186 658 l 181 631 b 147 604 176 613 165 604 l 142 604 b 119 631 119 604 115 608 l 122 638 b 154 665 125 656 136 665 m -7 -158 b -21 -168 -11 -165 -15 -168 l -29 -168 b -36 -160 -35 -168 -37 -165 l 58 50 b 79 64 63 60 69 64 l 94 64 b 103 50 107 64 110 60 "},"<":{"ha":704,"x_min":0,"x_max":0,"o":"m 658 761 b 671 753 668 767 675 763 l 667 735 b 650 714 664 726 658 719 l 115 453 l 115 450 l 557 188 b 567 168 568 182 568 181 l 565 153 b 550 144 563 143 557 140 l 69 432 b 61 447 63 436 60 440 l 64 458 b 78 475 65 465 69 471 "},"=":{"ha":846,"x_min":0,"x_max":0,"o":"m 772 610 b 782 599 779 610 783 606 l 779 583 b 765 572 778 576 774 572 l 132 572 b 124 583 125 572 122 576 l 126 599 b 139 610 128 606 132 610 m 724 335 b 733 325 731 335 735 332 l 731 308 b 718 299 729 301 725 299 l 83 299 b 75 308 76 299 74 301 l 78 325 b 90 335 79 332 83 335 "},">":{"ha":703,"x_min":0,"x_max":0,"o":"m 153 753 b 168 761 156 763 161 765 l 649 475 b 657 458 656 469 658 464 l 654 447 b 640 432 653 440 649 436 l 60 144 b 46 153 49 140 44 143 l 51 172 b 67 192 54 182 60 188 l 603 453 l 604 456 l 161 718 b 150 739 151 724 149 731 "},"?":{"ha":767,"x_min":0,"x_max":0,"o":"m 119 799 b 500 1028 204 951 331 1028 b 724 946 599 1028 674 1000 b 775 742 772 892 790 824 b 704 571 763 671 732 608 b 647 511 690 551 671 532 b 526 426 593 467 586 464 b 440 371 489 404 460 386 b 376 301 419 356 399 333 b 331 193 353 269 338 233 b 319 182 329 186 326 182 l 304 182 b 294 193 297 182 294 186 b 378 360 307 264 333 317 b 508 456 422 403 447 418 b 583 504 540 475 565 492 b 646 557 601 517 622 533 b 735 742 694 603 722 664 b 499 990 761 885 672 990 b 154 786 344 990 229 922 b 139 779 149 779 143 778 l 124 785 b 119 799 117 789 115 793 m 293 56 b 314 28 314 56 318 49 l 314 21 b 281 -6 310 3 299 -6 l 275 -6 b 253 21 254 -6 251 -1 l 254 28 b 286 56 257 46 268 56 "},"@":{"ha":1249,"x_min":0,"x_max":0,"o":"m 124 453 b 342 858 154 624 226 760 b 771 1006 457 957 600 1006 b 1153 856 947 1006 1074 956 b 1225 453 1231 756 1254 621 l 1208 358 b 1099 142 1192 264 1156 192 b 913 67 1042 92 981 67 b 844 128 867 67 844 88 b 571 68 758 88 667 68 b 375 292 414 68 349 149 l 415 515 b 689 742 439 660 532 742 b 922 700 781 742 858 728 b 957 633 956 685 964 672 l 874 153 b 918 99 867 117 882 99 b 1175 357 1035 99 1143 189 l 1190 453 b 765 974 1247 776 1097 974 b 364 835 606 974 471 928 b 158 453 256 742 188 615 l 143 357 b 567 -151 86 31 243 -151 b 861 -114 707 -151 828 -125 l 869 -112 b 878 -115 876 -111 879 -111 l 875 -135 b 865 -144 874 -140 871 -143 b 561 -183 761 -171 660 -183 b 108 358 215 -183 47 13 m 896 672 b 686 708 844 696 774 708 b 450 515 551 708 472 644 l 411 293 b 578 101 389 165 444 101 b 797 142 668 101 763 125 b 840 163 815 149 829 156 l 921 626 b 896 672 926 653 922 661 "},"A":{"ha":868,"x_min":0,"x_max":0,"o":"m 788 11 b 776 0 788 4 783 0 l 763 0 b 744 10 751 0 746 3 l 668 344 l 190 344 l -3 10 b -25 0 -8 3 -15 0 l -42 0 b -49 11 -51 0 -53 4 l 515 982 b 533 993 519 989 526 993 l 550 993 b 564 983 560 993 564 990 m 540 914 b 538 951 539 924 538 936 l 535 951 b 521 914 528 931 524 918 l 210 379 l 663 379 "},"B":{"ha":886,"x_min":0,"x_max":0,"o":"m 625 986 b 839 739 788 986 867 896 b 647 508 818 615 754 539 l 647 507 b 789 256 760 481 815 388 b 474 0 757 89 644 0 l 57 0 b 47 11 50 0 46 4 l 218 975 b 231 986 219 982 224 986 m 714 578 b 797 736 757 614 785 667 b 769 894 810 806 800 858 b 617 949 739 931 688 949 l 254 949 l 178 522 l 542 522 b 714 578 613 522 669 540 m 747 263 b 558 485 771 403 703 485 l 172 485 l 94 38 l 479 38 b 747 263 625 38 721 117 "},"C":{"ha":878,"x_min":0,"x_max":0,"o":"m 160 668 b 585 1006 197 881 346 1006 b 904 761 796 1006 888 926 b 894 746 906 753 901 747 l 881 742 b 867 749 872 739 868 742 b 582 968 850 900 771 968 b 200 669 367 968 233 857 l 140 322 b 414 21 107 132 203 21 b 782 246 607 21 710 90 b 799 253 786 253 792 256 l 814 247 b 818 232 821 244 822 239 b 668 43 779 147 729 83 b 413 -19 607 1 522 -19 b 99 321 175 -19 61 110 "},"D":{"ha":892,"x_min":0,"x_max":0,"o":"m 508 986 b 846 615 764 986 886 844 l 801 363 b 336 0 761 135 592 0 l 57 0 b 47 11 50 0 46 4 l 218 975 b 231 986 219 982 224 986 m 807 619 b 503 949 844 826 736 949 l 254 949 l 94 38 l 343 38 b 763 367 572 38 725 160 "},"E":{"ha":788,"x_min":0,"x_max":0,"o":"m 801 986 b 811 975 808 986 813 982 l 807 960 b 794 949 807 953 803 949 l 254 949 l 178 519 l 660 519 b 668 508 668 519 671 515 l 667 492 b 653 481 664 485 660 481 l 171 481 l 94 38 l 656 38 b 664 26 661 38 664 33 l 661 11 b 647 0 658 4 654 0 l 57 0 b 47 11 50 0 46 4 l 218 975 b 231 986 219 982 224 986 "},"F":{"ha":772,"x_min":0,"x_max":0,"o":"m 801 986 b 811 975 808 986 813 982 l 807 960 b 794 949 807 953 803 949 l 254 949 l 175 504 l 649 504 b 657 493 657 504 660 500 l 654 476 b 642 465 654 469 650 465 l 168 465 l 89 11 b 75 0 86 4 82 0 l 57 0 b 47 11 50 0 46 4 l 218 975 b 231 986 219 982 224 986 "},"G":{"ha":901,"x_min":0,"x_max":0,"o":"m 856 488 b 865 475 865 488 868 483 l 836 315 b 414 -19 801 106 649 -19 b 100 322 174 -19 61 110 l 161 669 b 586 1006 199 882 347 1006 b 907 761 797 1006 890 924 b 897 746 908 753 904 747 l 882 742 b 868 749 874 739 869 742 b 583 968 850 900 772 968 b 201 669 367 968 235 857 l 142 322 b 417 18 108 129 200 18 b 797 318 628 18 765 131 l 819 449 l 504 449 b 496 460 497 449 494 453 l 499 476 b 511 488 500 483 504 488 "},"H":{"ha":943,"x_min":0,"x_max":0,"o":"m 914 986 b 924 975 921 986 925 982 l 753 11 b 740 0 751 4 747 0 l 721 0 b 713 11 714 0 711 4 l 794 481 l 171 481 l 89 11 b 75 0 86 4 82 0 l 57 0 b 47 11 50 0 46 4 l 218 975 b 231 986 219 982 224 986 l 249 986 b 258 975 256 986 260 982 l 178 519 l 803 519 l 883 975 b 894 986 883 982 888 986 "},"I":{"ha":279,"x_min":0,"x_max":0,"o":"m 218 975 b 231 986 219 982 224 986 l 249 986 b 258 975 256 986 260 982 l 89 11 b 75 0 86 4 82 0 l 57 0 b 47 11 50 0 46 4 "},"J":{"ha":783,"x_min":0,"x_max":0,"o":"m 763 986 b 772 975 769 986 774 982 l 651 290 b 278 -21 618 94 483 -21 b 6 263 94 -21 4 74 b 14 276 4 269 7 274 l 32 283 b 46 275 42 286 46 283 b 282 18 44 107 114 18 b 611 296 461 18 579 124 l 732 975 b 743 986 732 982 736 986 "},"K":{"ha":824,"x_min":0,"x_max":0,"o":"m 724 13 b 715 0 728 4 725 0 l 700 0 b 681 10 690 0 683 3 l 572 342 b 376 481 538 442 493 481 l 171 481 l 89 11 b 75 0 86 4 82 0 l 57 0 b 47 11 50 0 46 4 l 218 975 b 231 986 219 982 224 986 l 249 986 b 258 975 256 986 260 982 l 178 519 l 375 519 b 414 518 393 519 406 519 l 832 976 b 856 986 838 983 846 986 l 876 986 b 881 974 886 986 888 982 l 454 508 b 610 360 539 492 582 444 "},"L":{"ha":703,"x_min":0,"x_max":0,"o":"m 249 986 b 258 975 256 986 260 982 l 94 38 l 622 38 b 631 26 628 38 631 33 l 628 11 b 614 0 625 4 621 0 l 57 0 b 47 11 50 0 46 4 l 218 975 b 231 986 219 982 224 986 "},"M":{"ha":1103,"x_min":0,"x_max":0,"o":"m 1072 986 b 1082 975 1079 986 1083 982 l 913 11 b 899 0 910 4 906 0 l 882 0 b 872 11 875 0 871 4 l 993 694 b 1024 846 1000 738 1011 785 b 1038 917 1029 875 1033 899 l 1036 917 l 901 731 l 546 249 b 528 239 540 242 535 239 l 517 239 b 501 249 508 239 503 242 l 311 738 b 247 918 293 781 272 840 l 244 918 b 208 694 235 856 224 781 l 89 11 b 75 0 86 4 82 0 l 57 0 b 47 11 50 0 46 4 l 218 975 b 231 986 219 982 224 986 l 244 986 b 260 975 251 986 257 982 l 529 289 l 1035 974 b 1056 986 1040 982 1047 986 "},"N":{"ha":954,"x_min":0,"x_max":0,"o":"m 924 986 b 933 975 931 986 935 982 l 764 11 b 750 0 761 4 757 0 l 732 0 b 719 8 728 0 724 3 l 329 753 b 289 840 319 771 307 800 b 247 922 271 879 257 907 l 244 922 b 228 813 240 900 235 864 b 211 704 221 761 215 725 l 89 11 b 75 0 86 4 82 0 l 57 0 b 47 11 50 0 46 4 l 218 975 b 231 986 219 982 224 986 l 244 986 b 258 979 251 986 256 983 l 639 256 b 693 150 653 229 671 194 b 735 65 715 104 729 76 l 738 65 b 756 182 742 89 747 128 b 775 308 763 236 769 279 l 893 976 b 906 986 894 983 899 986 "},"O":{"ha":918,"x_min":0,"x_max":0,"o":"m 163 671 b 590 1006 200 883 351 1006 b 901 661 828 1006 940 874 l 840 314 b 417 -19 803 103 654 -19 b 101 325 176 -19 63 113 m 861 665 b 586 968 894 856 797 968 b 204 665 374 968 238 858 l 143 321 b 419 18 110 131 207 18 b 800 321 629 18 767 131 "},"P":{"ha":854,"x_min":0,"x_max":0,"o":"m 606 986 b 854 681 793 986 889 865 b 501 393 819 497 689 393 l 156 393 l 89 11 b 75 0 86 4 82 0 l 57 0 b 47 11 50 0 46 4 l 218 975 b 231 986 219 982 224 986 m 504 431 b 814 688 667 431 785 526 b 596 949 843 853 761 949 l 254 949 l 163 431 "},"Q":{"ha":933,"x_min":0,"x_max":0,"o":"m 163 671 b 590 1006 200 883 351 1006 b 901 661 828 1006 940 874 l 840 314 b 710 74 822 211 778 131 l 792 -50 b 788 -67 796 -57 794 -62 l 774 -76 b 758 -76 767 -82 761 -82 l 674 49 b 417 -19 607 3 521 -19 b 101 325 176 -19 63 113 m 586 968 b 204 665 374 968 238 858 l 143 321 b 419 18 110 131 207 18 b 800 321 629 18 767 131 l 861 665 b 586 968 894 856 797 968 "},"R":{"ha":882,"x_min":0,"x_max":0,"o":"m 632 986 b 858 710 804 986 888 883 b 556 449 829 549 717 456 b 663 324 604 429 640 388 l 765 13 b 756 0 769 4 765 0 l 739 0 b 719 10 729 0 722 3 l 622 306 b 422 444 590 406 540 444 l 165 444 l 89 11 b 75 0 86 4 82 0 l 57 0 b 47 11 50 0 46 4 l 218 975 b 231 986 219 982 224 986 m 818 714 b 622 949 844 864 774 949 l 254 949 l 171 483 l 540 483 b 818 714 690 483 792 565 "},"S":{"ha":849,"x_min":0,"x_max":0,"o":"m 139 753 b 524 1006 168 918 307 1006 b 836 793 700 1006 792 932 b 828 778 839 786 836 781 l 814 771 b 799 775 806 768 800 769 b 517 965 760 901 676 965 b 179 747 328 965 203 888 b 286 554 160 642 208 585 b 464 514 343 531 390 524 b 686 453 563 503 619 489 b 760 246 751 417 776 346 b 357 -19 728 69 594 -19 b 24 226 168 -19 63 60 b 33 243 22 233 26 239 l 50 249 b 64 243 57 251 63 250 b 360 19 104 88 193 19 b 719 253 572 19 692 97 b 618 440 732 360 701 413 b 447 475 558 461 525 465 b 182 571 342 486 246 510 b 139 753 144 608 124 671 "},"T":{"ha":725,"x_min":0,"x_max":0,"o":"m 797 986 b 807 975 804 986 808 982 l 803 960 b 792 949 803 953 799 949 l 476 949 l 311 11 b 297 0 310 4 306 0 l 279 0 b 271 11 271 0 268 4 l 436 949 l 121 949 b 111 960 114 949 110 953 l 114 975 b 126 986 115 982 119 986 "},"U":{"ha":943,"x_min":0,"x_max":0,"o":"m 165 333 b 431 17 131 135 219 17 b 806 333 642 17 772 138 l 919 975 b 932 986 921 982 925 986 l 951 986 b 961 975 958 986 963 982 l 846 326 b 426 -21 807 108 664 -21 b 125 338 188 -21 86 117 l 239 975 b 251 986 240 982 244 986 l 269 986 b 279 975 276 986 281 982 "},"V":{"ha":842,"x_min":0,"x_max":0,"o":"m 919 986 b 925 975 928 986 929 982 l 376 11 b 357 0 372 4 365 0 l 340 0 b 326 11 332 0 328 4 l 118 975 b 126 986 117 982 119 986 l 144 986 b 161 976 154 986 160 983 l 340 135 b 357 53 344 117 353 68 l 360 53 b 403 133 388 106 401 132 l 881 976 b 900 986 886 983 893 986 "},"W":{"ha":1197,"x_min":0,"x_max":0,"o":"m 1260 986 b 1267 975 1267 986 1269 982 l 833 11 b 815 0 831 4 825 0 l 797 0 b 783 11 788 0 783 4 l 700 781 b 690 900 699 801 693 879 l 688 900 b 635 781 671 857 653 817 l 279 11 b 260 0 275 4 268 0 l 243 0 b 229 11 233 0 229 4 l 136 975 b 144 986 133 982 136 986 l 165 986 b 179 976 174 986 178 983 l 254 181 b 261 60 256 160 258 119 l 264 60 b 315 179 292 125 308 165 l 674 951 b 692 961 678 958 683 961 l 708 961 b 722 951 718 961 722 958 l 806 176 b 814 60 811 106 814 67 l 817 60 b 863 175 835 106 850 143 l 1224 976 b 1240 986 1226 983 1232 986 "},"X":{"ha":833,"x_min":0,"x_max":0,"o":"m 907 986 b 913 975 917 986 918 982 l 471 499 l 751 15 b 744 0 758 6 756 0 l 724 0 b 706 10 714 0 707 3 l 439 467 l 17 10 b -6 0 10 3 3 0 l -32 0 b -33 15 -42 0 -42 6 l 419 501 l 146 975 b 153 986 140 982 143 986 l 175 986 b 194 976 183 986 190 983 l 450 533 l 861 976 b 881 986 865 983 872 986 "},"Y":{"ha":847,"x_min":0,"x_max":0,"o":"m 926 986 b 932 975 936 986 938 982 l 447 408 l 378 11 b 365 0 376 4 372 0 l 346 0 b 338 11 338 0 335 4 l 407 410 l 125 975 b 133 986 121 982 124 986 l 154 986 b 174 976 164 986 171 983 l 435 451 l 881 976 b 903 986 886 983 893 986 "},"Z":{"ha":750,"x_min":0,"x_max":0,"o":"m 793 986 b 803 975 800 986 803 982 l 800 961 b 792 946 797 954 794 949 l 25 39 l 644 39 b 653 28 653 39 656 35 l 650 11 b 638 0 649 4 644 0 l -21 0 b -29 11 -29 0 -32 4 l -26 26 b -19 44 -26 33 -24 39 l 746 949 l 153 949 b 142 960 146 949 142 953 l 146 975 b 158 986 147 982 151 986 "},"[":{"ha":340,"x_min":0,"x_max":0,"o":"m 454 1189 b 463 1179 461 1189 464 1186 l 460 1164 b 449 1153 460 1157 456 1153 l 269 1153 l 36 -167 l 215 -167 b 224 -178 224 -167 226 -171 l 221 -193 b 208 -203 219 -200 215 -203 l 1 -203 b -7 -193 -6 -203 -8 -200 l 235 1179 b 247 1189 236 1186 240 1189 "},"\\":{"ha":528,"x_min":0,"x_max":0,"o":"m 150 976 b 158 986 149 983 151 986 l 178 986 b 192 976 185 986 189 983 l 394 -74 b 385 -83 396 -81 393 -83 l 367 -83 b 353 -74 360 -83 356 -81 "},"]":{"ha":339,"x_min":0,"x_max":0,"o":"m 367 1189 b 375 1179 375 1189 378 1186 l 135 -193 b 121 -203 132 -200 128 -203 l -86 -203 b -94 -193 -93 -203 -96 -200 l -92 -178 b -79 -167 -89 -171 -85 -167 l 101 -167 l 333 1153 l 154 1153 b 144 1164 147 1153 144 1157 l 147 1179 b 160 1189 149 1186 153 1189 "},"^":{"ha":824,"x_min":0,"x_max":0,"o":"m 556 1125 b 568 1117 563 1125 567 1122 l 817 736 b 808 722 821 726 818 722 l 790 722 b 769 732 782 722 775 725 l 546 1082 l 543 1082 l 199 732 b 175 722 193 725 185 722 l 156 722 b 153 736 146 722 144 726 l 528 1117 b 546 1125 533 1122 539 1125 "},"_":{"ha":713,"x_min":0,"x_max":0,"o":"m 586 0 b 594 -11 593 0 596 -4 l 592 -26 b 579 -37 592 -33 588 -37 l -26 -37 b -36 -26 -33 -37 -36 -33 l -33 -11 b -19 0 -32 -4 -28 0 "},"`":{"ha":357,"x_min":0,"x_max":0,"o":"m 171 1000 b 192 1001 178 1007 185 1007 l 404 847 b 403 833 408 843 407 839 l 399 829 b 383 828 394 825 389 824 l 164 979 b 164 993 157 982 157 986 "},"a":{"ha":733,"x_min":0,"x_max":0,"o":"m 111 472 b 442 729 140 651 243 729 b 656 690 526 729 599 717 b 697 614 699 672 704 658 l 599 46 b 579 28 597 38 590 32 b 286 -19 489 -4 392 -19 b 74 265 110 -19 42 92 m 628 658 b 438 694 576 682 513 694 b 147 469 264 694 176 629 l 111 264 b 294 15 83 110 140 15 b 563 61 390 15 479 31 l 658 606 b 628 658 664 639 661 643 "},"b":{"ha":739,"x_min":0,"x_max":0,"o":"m 239 1028 b 247 1018 244 1028 247 1025 l 185 671 b 458 729 283 710 375 729 b 674 460 635 729 707 639 l 638 254 b 303 -19 606 72 493 -19 b 88 19 217 -19 144 -7 b 46 96 47 40 39 53 l 208 1018 b 221 1028 210 1025 214 1028 m 636 464 b 450 694 664 618 601 694 b 179 633 357 694 267 674 l 85 104 b 115 51 81 71 82 67 b 307 15 172 28 236 15 b 600 258 475 15 572 96 "},"c":{"ha":708,"x_min":0,"x_max":0,"o":"m 107 468 b 442 729 136 635 251 729 b 693 536 607 729 676 660 b 685 521 694 528 692 522 l 671 518 b 658 524 663 515 658 517 b 436 694 642 640 581 694 b 144 465 274 694 171 608 l 106 246 b 317 15 79 103 156 15 b 603 196 460 15 547 72 b 618 203 607 203 611 204 l 635 199 b 638 185 640 196 642 192 b 313 -19 575 49 467 -19 b 68 251 125 -19 39 83 "},"d":{"ha":738,"x_min":0,"x_max":0,"o":"m 132 464 b 440 729 163 640 265 729 b 693 672 533 729 617 710 l 756 1018 b 768 1028 756 1025 760 1028 l 785 1028 b 793 1018 790 1028 793 1025 l 631 96 b 563 19 624 51 611 38 b 332 -19 493 -7 417 -19 b 94 258 142 -19 63 74 m 688 635 b 439 694 614 675 532 694 b 169 461 288 694 197 617 l 132 257 b 340 15 106 96 175 15 b 546 51 414 15 482 28 b 593 104 583 67 588 71 "},"e":{"ha":717,"x_min":0,"x_max":0,"o":"m 103 446 b 447 729 135 625 263 729 b 694 493 636 729 732 642 b 379 307 664 369 558 307 b 121 335 286 307 200 317 l 104 247 b 311 14 78 99 149 14 b 593 154 444 14 526 64 b 611 158 600 161 606 163 l 622 151 b 622 136 626 147 626 143 b 306 -19 547 32 442 -19 b 68 251 118 -19 36 83 m 657 499 b 442 696 690 626 610 696 b 139 444 281 696 167 601 l 125 368 b 386 339 201 349 289 339 b 657 499 540 339 631 392 "},"f":{"ha":465,"x_min":0,"x_max":0,"o":"m 551 1028 b 560 1017 558 1028 561 1024 l 557 1004 b 544 993 554 997 550 993 b 353 947 454 993 390 978 b 271 763 315 915 288 854 l 263 710 l 499 710 b 507 700 506 710 508 707 l 504 685 b 493 675 503 678 500 675 l 257 675 l 139 10 b 126 0 138 3 133 0 l 110 0 b 101 10 103 0 100 3 l 219 675 l 63 675 b 53 685 56 675 51 678 l 56 700 b 68 710 57 707 61 710 l 225 710 l 233 763 b 328 969 251 863 282 932 b 540 1028 372 1007 443 1026 "},"g":{"ha":739,"x_min":0,"x_max":0,"o":"m 89 458 b 424 729 119 639 231 729 b 638 690 508 729 581 717 b 679 614 681 672 686 658 l 561 -58 b 225 -357 526 -257 414 -357 b -11 -194 101 -357 24 -303 b -4 -178 -14 -186 -11 -181 l 10 -172 b 24 -176 17 -168 21 -169 b 231 -321 53 -272 108 -321 b 524 -58 394 -321 492 -233 l 540 42 b 269 -15 456 4 365 -15 b 53 256 92 -15 24 85 m 610 658 b 419 694 553 682 490 694 b 126 456 253 694 156 615 l 90 254 b 276 19 63 97 125 19 b 547 79 371 19 461 39 l 640 606 b 610 658 646 639 643 643 "},"h":{"ha":758,"x_min":0,"x_max":0,"o":"m 239 1028 b 246 1018 244 1028 247 1025 l 186 675 b 456 729 271 711 361 729 b 674 463 632 729 704 640 l 594 10 b 582 0 593 3 589 0 l 565 0 b 557 10 557 0 554 3 l 636 461 b 447 694 663 617 600 694 b 179 638 351 694 263 675 l 69 10 b 57 0 67 3 63 0 l 39 0 b 31 10 32 0 29 3 l 208 1018 b 221 1028 210 1025 214 1028 "},"i":{"ha":240,"x_min":0,"x_max":0,"o":"m 218 954 b 239 928 236 954 243 946 l 239 922 b 210 897 235 901 228 897 l 203 897 b 182 922 185 897 178 901 l 182 928 b 213 954 186 946 196 954 m 182 710 b 190 700 189 710 192 707 l 69 10 b 57 0 67 3 63 0 l 39 0 b 31 10 32 0 29 3 l 151 700 b 164 710 154 707 158 710 "},"j":{"ha":240,"x_min":0,"x_max":0,"o":"m 217 954 b 238 928 235 954 242 946 l 238 922 b 208 897 233 901 226 897 l 201 897 b 181 922 183 897 176 901 l 181 928 b 211 954 185 946 194 954 m 181 710 b 189 700 188 710 190 707 l 63 -14 b -257 -319 25 -221 -61 -319 b -265 -308 -262 -319 -265 -315 l -262 -293 b -249 -283 -260 -286 -256 -283 b 25 -14 -78 -283 -8 -197 l 150 700 b 164 710 153 707 157 710 "},"k":{"ha":683,"x_min":0,"x_max":0,"o":"m 581 11 b 572 0 582 4 579 0 l 556 0 b 540 8 546 0 542 3 l 463 253 b 326 350 440 324 404 350 l 128 350 l 69 11 b 56 0 67 4 63 0 l 39 0 b 31 11 32 0 29 4 l 208 1017 b 221 1028 210 1024 214 1028 l 238 1028 b 246 1017 244 1028 247 1024 l 135 383 l 326 383 l 340 383 l 647 701 b 672 710 654 707 663 710 l 686 710 b 692 697 696 710 699 706 l 382 376 b 499 268 444 367 476 333 "},"l":{"ha":250,"x_min":0,"x_max":0,"o":"m 74 10 b 61 0 72 3 68 0 l 44 0 b 36 10 38 0 35 3 l 214 1018 b 226 1028 214 1025 218 1028 l 243 1028 b 251 1018 250 1028 253 1025 "},"m":{"ha":1122,"x_min":0,"x_max":0,"o":"m 575 660 b 844 729 668 706 757 729 b 1039 475 1004 729 1068 644 l 957 10 b 944 0 954 3 950 0 l 926 0 b 918 10 919 0 917 3 l 1000 474 b 835 694 1026 625 975 694 b 592 629 744 694 663 672 b 601 476 610 592 613 540 l 519 10 b 507 0 518 3 514 0 l 489 0 b 482 10 482 0 479 3 l 564 474 b 392 694 590 625 535 694 b 211 657 326 694 265 682 b 168 601 188 644 172 626 l 65 10 b 53 0 63 3 58 0 l 35 0 b 26 10 28 0 25 3 l 132 610 b 197 689 139 650 154 668 b 400 729 260 715 328 729 b 575 660 486 729 544 706 "},"n":{"ha":754,"x_min":0,"x_max":0,"o":"m 197 685 b 451 729 276 714 361 729 b 669 463 628 729 701 640 l 590 10 b 578 0 589 3 585 0 l 561 0 b 553 10 553 0 550 3 l 632 461 b 443 694 658 617 596 694 b 210 653 356 694 278 681 b 168 603 186 643 172 626 l 65 10 b 53 0 63 3 58 0 l 35 0 b 26 10 28 0 25 3 l 132 610 b 197 685 142 653 153 667 "},"o":{"ha":744,"x_min":0,"x_max":0,"o":"m 110 493 b 443 729 136 639 265 729 b 697 492 622 729 721 638 l 649 215 b 317 -19 622 69 494 -19 b 61 218 139 -19 38 72 m 660 494 b 439 694 682 617 593 694 b 147 494 288 694 171 617 l 100 215 b 319 15 78 93 168 15 b 611 215 474 15 589 93 "},"p":{"ha":738,"x_min":0,"x_max":0,"o":"m 204 690 b 435 729 274 717 350 729 b 671 453 625 729 703 638 l 635 246 b 324 -19 603 69 499 -19 b 74 47 236 -19 153 3 l 14 -296 b 1 -306 11 -303 7 -306 l -17 -306 b -24 -296 -24 -306 -26 -303 l 136 614 b 204 690 143 658 156 672 m 633 453 b 426 694 661 614 592 694 b 221 658 349 694 281 682 b 172 606 182 643 178 639 l 81 86 b 328 15 154 39 238 15 b 597 247 479 15 569 93 "},"q":{"ha":740,"x_min":0,"x_max":0,"o":"m 468 729 b 682 690 553 729 625 717 b 724 614 725 672 731 658 l 564 -296 b 551 -306 561 -303 557 -306 l 533 -306 b 526 -296 526 -306 524 -303 l 586 47 b 311 -19 493 3 401 -19 b 96 246 136 -19 64 69 l 133 454 b 468 729 165 638 276 729 m 133 246 b 321 15 106 92 168 15 b 593 86 411 15 503 39 l 685 606 b 654 658 690 639 688 643 b 464 694 603 682 539 694 b 171 451 296 694 199 614 "},"r":{"ha":463,"x_min":0,"x_max":0,"o":"m 453 729 l 494 729 b 504 719 501 729 504 726 l 501 706 b 489 694 500 699 496 694 l 446 694 b 214 654 361 694 283 681 b 171 601 190 644 175 626 l 68 10 b 56 0 65 3 61 0 l 38 0 b 31 10 31 0 28 3 l 135 610 b 200 685 144 653 156 667 b 453 729 276 714 361 729 "},"s":{"ha":676,"x_min":0,"x_max":0,"o":"m 96 536 b 392 729 121 665 219 729 b 638 578 535 729 617 679 b 631 563 640 571 638 565 l 618 557 b 604 561 611 554 607 556 b 388 694 583 650 526 694 b 135 533 238 694 153 640 b 179 404 119 458 146 428 b 267 379 204 390 231 385 b 339 371 294 375 306 375 b 354 369 346 369 350 369 b 526 325 432 363 478 351 b 579 174 575 297 592 247 b 274 -19 556 44 454 -19 b 11 157 124 -19 38 31 b 19 172 10 164 13 169 l 36 176 b 47 171 43 179 46 178 b 278 15 69 60 144 15 b 542 176 435 15 522 69 b 340 335 563 292 490 322 b 154 375 247 344 185 357 b 96 536 103 406 83 460 "},"t":{"ha":454,"x_min":0,"x_max":0,"o":"m 281 876 b 288 867 288 876 290 874 l 261 710 l 496 710 b 504 700 503 710 506 707 l 501 685 b 490 675 500 678 497 675 l 256 675 l 181 247 b 196 63 164 154 169 93 b 371 17 222 32 281 17 b 379 7 378 17 381 14 l 376 -8 b 365 -19 375 -15 372 -19 b 163 35 263 -21 194 -3 b 142 246 131 72 124 142 l 218 675 l 57 675 b 47 685 50 675 46 678 l 50 700 b 63 710 51 707 56 710 l 224 710 l 250 867 b 263 876 251 874 256 876 "},"u":{"ha":756,"x_min":0,"x_max":0,"o":"m 747 710 b 756 700 754 710 757 707 l 650 101 b 585 25 640 58 629 43 b 331 -19 508 -4 424 -19 b 113 247 154 -19 81 69 l 192 700 b 204 710 194 707 199 710 l 222 710 b 231 700 229 710 232 707 l 150 249 b 339 15 124 93 186 15 b 572 56 424 15 501 29 b 614 108 596 65 610 83 l 718 700 b 731 710 719 707 724 710 "},"v":{"ha":681,"x_min":0,"x_max":0,"o":"m 707 710 b 713 699 717 710 718 706 l 294 4 b 276 -6 289 -3 283 -6 l 265 -6 b 251 4 257 -6 253 -3 l 76 697 b 88 710 74 706 78 710 l 101 710 b 115 699 108 710 113 706 l 256 139 b 276 42 257 131 264 99 l 279 42 b 306 86 283 49 293 63 b 335 138 318 108 328 125 l 671 699 b 692 710 675 706 682 710 "},"w":{"ha":1007,"x_min":0,"x_max":0,"o":"m 1021 710 b 1026 697 1029 710 1031 706 l 683 4 b 668 -7 679 -3 675 -7 l 653 -7 b 640 4 644 -7 640 -3 l 558 538 b 546 635 551 596 547 628 l 544 635 l 497 538 l 225 4 b 210 -7 221 -3 217 -7 l 196 -7 b 183 4 189 -7 185 -3 l 86 697 b 97 710 85 706 88 710 l 110 710 b 124 699 122 710 124 708 l 197 169 b 211 47 200 151 208 68 l 213 47 b 243 110 219 60 229 81 b 272 172 256 139 265 160 l 531 675 b 549 685 535 682 540 685 l 558 685 b 572 675 567 685 571 682 l 650 178 b 667 47 654 146 660 103 l 669 47 l 729 176 l 986 699 b 1007 710 990 706 997 710 "},"x":{"ha":647,"x_min":0,"x_max":0,"o":"m 665 710 b 669 700 675 710 676 707 l 346 364 l 563 10 b 554 0 565 3 563 0 l 535 0 b 521 8 529 0 525 3 l 321 338 l 7 8 b -12 0 1 3 -6 0 l -35 0 b -37 10 -43 0 -44 3 l 301 365 l 96 700 b 106 710 92 707 96 710 l 121 710 b 138 701 129 710 135 707 l 328 392 l 624 701 b 643 710 629 707 636 710 "},"y":{"ha":760,"x_min":0,"x_max":0,"o":"m 704 710 b 713 700 711 710 714 707 l 579 -57 b 240 -357 544 -257 431 -357 b 1 -194 115 -357 36 -303 b 10 -178 -1 -186 1 -181 l 22 -172 b 38 -176 29 -168 33 -169 b 246 -321 67 -269 124 -321 b 542 -58 411 -321 510 -233 l 558 38 b 289 -15 457 3 368 -15 b 71 253 113 -15 39 74 l 149 700 b 161 710 151 707 156 710 l 179 710 b 186 700 186 710 189 707 l 108 253 b 297 19 81 97 136 19 b 564 74 379 19 468 38 l 675 700 b 688 710 676 707 681 710 "},"z":{"ha":603,"x_min":0,"x_max":0,"o":"m 493 35 b 501 25 500 35 503 32 l 499 10 b 488 0 497 3 494 0 l -21 0 b -29 10 -29 0 -32 3 l -26 25 b -19 39 -26 29 -24 35 l 563 675 l 103 675 b 94 686 97 675 94 679 l 97 700 b 108 710 99 707 101 710 l 606 710 b 614 700 614 710 617 707 l 611 686 b 604 669 611 682 608 676 l 22 35 "},"{":{"ha":407,"x_min":0,"x_max":0,"o":"m 524 1189 b 532 1179 532 1189 535 1186 l 529 1164 b 518 1153 529 1157 525 1153 l 458 1153 b 306 1015 365 1153 322 1110 l 243 656 b 124 492 228 568 188 513 b 185 329 181 471 200 417 l 122 -31 b 226 -168 106 -125 133 -168 l 285 -168 b 293 -179 292 -168 294 -172 l 290 -194 b 278 -204 289 -201 285 -204 l 218 -204 b 83 -32 100 -204 63 -150 l 146 326 b 38 474 167 431 136 474 l 22 474 b 15 483 17 474 14 476 l 18 501 b 29 511 19 508 22 511 l 46 511 b 206 658 142 511 188 558 l 268 1017 b 464 1189 289 1135 346 1189 "},"|":{"ha":233,"x_min":0,"x_max":0,"o":"m 263 1189 b 271 1179 269 1189 272 1186 l 29 -194 b 17 -204 28 -201 24 -204 l 1 -204 b -7 -194 -6 -204 -8 -201 l 235 1179 b 247 1189 236 1186 240 1189 "},"}":{"ha":407,"x_min":0,"x_max":0,"o":"m 218 1189 b 353 1017 339 1189 375 1138 l 290 658 b 399 511 272 558 303 511 l 414 511 b 421 501 421 511 424 508 l 418 483 b 407 474 418 476 414 474 l 390 474 b 232 326 294 474 249 426 l 168 -32 b -28 -204 146 -153 93 -204 l -87 -204 b -96 -194 -94 -204 -97 -201 l -93 -179 b -81 -168 -92 -172 -87 -168 l -21 -168 b 131 -31 72 -168 115 -125 l 194 329 b 313 494 210 419 250 474 b 251 656 257 515 236 569 l 315 1015 b 213 1153 332 1110 306 1153 l 153 1153 b 143 1164 146 1153 143 1157 l 146 1179 b 158 1189 149 1186 153 1189 "},"~":{"ha":781,"x_min":0,"x_max":0,"o":"m 104 426 b 275 496 163 472 219 496 b 406 464 313 496 356 485 b 529 432 454 443 496 432 b 678 492 579 432 629 451 b 693 490 685 496 689 494 l 701 481 b 699 465 707 475 706 469 b 526 396 640 419 583 396 b 396 428 489 396 446 407 b 272 460 346 449 304 460 b 125 400 224 460 175 440 b 110 400 118 394 114 394 l 101 411 b 104 426 97 415 97 421 "},"¡":{"ha":231,"x_min":0,"x_max":0,"o":"m 151 650 b 129 678 131 650 125 657 l 129 683 b 163 711 133 701 144 711 l 169 711 b 190 683 190 711 194 706 l 190 678 b 157 650 186 660 175 650 m -28 -322 b -36 -312 -33 -322 -36 -319 l 114 500 b 126 511 115 507 119 511 l 135 511 b 143 500 143 511 146 507 l 7 -312 b -6 -322 6 -319 1 -322 "},"¢":{"ha":735,"x_min":0,"x_max":0,"o":"m 638 199 b 642 185 644 196 646 192 b 335 -18 581 53 478 -14 l 319 -107 b 306 -117 317 -114 313 -117 l 288 -117 b 279 -107 281 -117 278 -114 l 296 -19 b 74 253 124 -12 46 92 l 111 471 b 426 729 139 631 249 722 l 446 838 b 458 847 447 844 451 847 l 476 847 b 485 838 483 847 486 844 l 465 729 b 699 538 619 724 683 658 b 689 522 699 531 696 525 l 674 518 b 661 524 667 514 663 517 b 440 694 646 644 586 694 b 149 465 275 694 175 610 l 110 246 b 321 15 83 103 160 15 b 607 196 464 15 551 72 b 622 203 611 203 615 204 "},"£":{"ha":868,"x_min":0,"x_max":0,"o":"m 283 763 b 604 1006 307 908 414 1006 b 863 789 756 1006 836 944 b 853 775 864 782 860 778 l 839 768 b 824 776 832 767 826 769 b 599 968 800 919 732 968 b 324 760 436 968 346 886 l 276 489 l 678 489 b 686 478 686 489 689 485 l 683 464 b 672 453 683 457 679 453 l 269 453 l 224 189 b 128 38 211 121 179 71 l 128 36 b 200 38 143 36 167 36 l 278 38 l 724 38 b 732 26 731 38 733 33 l 729 11 b 717 0 728 4 724 0 l 1 0 b -7 11 -7 0 -10 4 l -4 28 b 6 38 -4 35 -1 38 l 40 38 b 181 189 118 39 168 113 l 228 453 l 99 453 b 89 464 92 453 89 457 l 92 478 b 106 489 93 485 97 489 l 233 489 "},"¤":{"ha":818,"x_min":0,"x_max":0,"o":"m 257 703 b 478 782 325 756 399 782 b 672 704 556 782 621 756 l 767 785 b 782 785 771 789 776 789 l 792 772 b 789 757 796 767 794 761 l 694 678 b 740 467 739 618 754 549 b 628 258 726 389 689 319 l 693 181 b 690 165 696 175 694 169 l 676 153 b 661 153 669 149 665 149 l 596 232 b 372 151 525 178 451 151 b 178 231 293 151 229 178 l 83 150 b 68 150 76 144 72 144 l 58 161 b 61 176 54 165 54 171 l 157 258 b 110 467 111 318 96 388 b 225 675 124 547 163 617 l 160 754 b 163 769 156 758 156 764 l 176 782 b 192 782 182 786 188 786 m 701 468 b 656 665 715 546 700 611 b 474 744 611 718 550 744 b 263 665 396 744 325 718 b 147 468 200 611 161 546 b 194 271 135 390 150 325 b 376 189 238 217 299 189 b 588 271 453 189 524 217 b 701 468 650 325 689 392 "},"¥":{"ha":874,"x_min":0,"x_max":0,"o":"m 915 986 b 921 975 925 986 926 982 l 478 461 l 701 461 b 710 451 708 461 711 458 l 708 439 b 696 429 706 432 701 429 l 454 429 l 426 264 l 667 264 b 675 254 672 264 675 261 l 672 242 b 660 232 672 235 668 232 l 419 232 l 382 11 b 368 0 379 4 375 0 l 349 0 b 340 11 342 0 339 4 l 379 232 l 136 232 b 128 242 129 232 126 235 l 129 254 b 142 264 131 261 135 264 l 385 264 l 414 429 l 171 429 b 163 439 163 429 160 432 l 164 451 b 176 461 165 458 169 461 l 403 461 l 142 975 b 150 986 140 982 143 986 l 171 986 b 190 976 181 986 186 983 l 442 475 l 871 976 b 893 986 876 983 883 986 "},"¦":{"ha":250,"x_min":0,"x_max":0,"o":"m 271 1189 b 279 1179 278 1189 281 1186 l 179 608 b 167 599 176 601 172 599 l 151 599 b 143 608 144 599 142 601 l 243 1179 b 256 1189 244 1186 249 1189 m 129 388 b 138 378 136 388 139 385 l 38 -193 b 25 -203 35 -200 31 -203 l 10 -203 b 1 -193 3 -203 0 -200 l 103 378 b 114 388 103 385 107 388 "},"§":{"ha":814,"x_min":0,"x_max":0,"o":"m 154 786 b 506 1015 178 929 294 1015 b 794 785 671 1015 767 939 b 786 771 796 778 793 774 l 771 764 b 756 771 764 760 758 763 b 500 976 731 908 646 976 b 194 779 319 976 218 911 b 290 608 179 693 211 636 b 450 581 322 599 375 589 b 653 526 538 571 594 558 b 721 350 711 494 736 433 b 532 131 703 253 640 179 b 656 -82 635 99 676 28 b 293 -312 633 -225 510 -312 b -8 -69 118 -312 18 -232 b 1 -56 -10 -62 -7 -58 l 19 -50 b 32 -57 26 -47 31 -50 b 296 -274 56 -201 143 -274 b 615 -76 486 -274 593 -197 b 521 93 631 10 600 67 b 353 122 489 104 433 114 b 178 157 279 129 235 135 b 111 196 149 167 126 181 b 74 353 79 228 61 281 b 279 574 92 457 160 531 b 154 786 176 604 135 675 m 436 543 b 325 558 386 549 349 554 b 244 525 301 551 286 547 b 189 488 224 514 204 501 b 114 353 157 460 124 410 b 208 190 103 261 133 214 b 365 160 261 172 294 167 b 485 144 414 156 454 151 b 679 350 597 190 663 260 b 588 513 693 440 654 488 b 436 543 538 531 497 538 "},"¨":{"ha":610,"x_min":0,"x_max":0,"o":"m 279 929 b 299 907 297 929 303 924 l 297 897 b 269 875 293 879 288 875 l 261 875 b 243 897 246 875 239 882 l 244 907 b 271 929 247 922 256 929 m 542 929 b 561 907 557 929 564 922 l 560 897 b 532 875 558 882 549 875 l 525 875 b 504 897 504 875 503 879 l 507 907 b 535 929 508 922 517 929 "},"©":{"ha":1131,"x_min":0,"x_max":0,"o":"m 118 488 b 325 843 143 629 213 747 b 704 986 438 939 564 986 b 1032 843 844 986 953 939 b 1113 488 1111 747 1138 628 b 907 133 1088 347 1019 229 b 529 -11 794 38 669 -11 b 200 133 389 -11 279 38 b 118 488 121 229 93 347 m 1083 488 b 1008 822 1107 621 1082 732 b 700 957 935 913 832 957 b 342 822 567 957 447 913 b 147 488 235 732 171 621 b 224 154 124 356 150 244 b 533 18 297 64 401 18 b 890 154 665 18 783 64 b 1083 488 996 244 1060 356 m 406 569 b 660 767 428 696 517 767 b 849 622 783 767 838 715 b 842 610 849 615 846 611 l 829 606 b 818 610 822 603 818 604 b 653 736 807 703 765 736 b 438 565 529 736 458 679 l 407 397 b 563 225 389 288 440 225 b 775 360 669 225 731 265 b 790 365 779 365 783 367 l 800 363 b 804 350 804 360 806 356 b 558 196 758 247 676 196 b 376 400 419 196 354 274 "},"ª":{"ha":517,"x_min":0,"x_max":0,"o":"m 176 847 b 360 931 225 903 286 931 b 497 754 482 931 518 867 l 468 588 b 408 514 461 544 449 531 b 274 493 376 500 332 493 b 121 611 151 493 108 533 b 318 736 136 694 201 736 b 460 728 340 736 388 733 l 465 760 b 354 900 482 853 454 900 b 201 829 293 900 242 876 b 189 826 196 825 192 824 l 179 832 b 176 847 172 835 172 840 m 454 700 b 314 708 418 706 371 708 b 153 608 218 708 164 675 b 278 522 143 551 179 522 b 394 540 324 522 363 528 b 436 592 422 550 431 560 "},"«":{"ha":756,"x_min":0,"x_max":0,"o":"m 324 90 b 321 76 329 86 328 81 l 310 69 b 294 69 303 65 299 65 l 57 358 b 60 371 53 363 53 367 l 400 663 b 414 663 406 668 410 668 l 422 647 b 419 632 426 643 426 639 l 100 361 m 632 90 b 629 76 636 86 636 81 l 619 69 b 603 69 613 65 607 65 l 365 358 b 368 371 361 363 361 367 l 708 663 b 722 663 715 667 721 667 l 731 647 b 728 632 735 643 735 639 l 408 361 "},"¬":{"ha":796,"x_min":0,"x_max":0,"o":"m 710 515 b 718 506 717 515 719 513 l 665 204 b 653 194 664 197 660 194 l 635 194 b 626 204 628 194 625 197 l 675 479 l 122 479 b 114 489 115 479 113 482 l 117 506 b 128 515 118 513 121 515 "},"®":{"ha":682,"x_min":0,"x_max":0,"o":"m 140 717 b 249 908 153 792 189 856 b 457 986 308 960 378 986 b 633 907 531 986 589 960 b 679 717 676 854 692 790 b 574 525 667 640 631 576 b 367 447 515 474 446 447 b 189 526 293 447 233 474 b 140 717 144 579 128 643 m 165 717 b 207 542 153 649 167 590 b 369 469 247 493 301 469 b 560 540 443 469 506 493 b 657 717 613 588 644 646 b 617 890 669 785 656 842 b 457 963 576 939 524 963 b 265 893 383 963 319 939 b 165 717 211 846 178 788 m 458 861 b 539 769 518 861 549 826 b 456 683 531 721 503 693 l 496 582 b 490 572 500 575 497 572 l 482 572 b 469 578 476 572 472 574 l 431 681 l 322 681 l 303 578 b 296 572 303 574 300 572 l 283 572 b 278 578 279 572 278 574 l 325 849 b 340 861 328 857 333 861 m 325 704 l 431 704 b 515 771 479 704 507 726 b 453 838 522 814 499 838 l 349 838 "},"¯":{"ha":489,"x_min":0,"x_max":0,"o":"m 510 917 b 518 906 517 917 519 913 l 517 896 b 504 885 515 889 511 885 l 172 885 b 165 896 165 885 163 889 l 167 906 b 178 917 168 913 171 917 "},"°":{"ha":524,"x_min":0,"x_max":0,"o":"m 533 767 b 453 631 524 714 497 668 b 304 574 407 593 358 574 b 175 635 250 574 207 594 b 140 776 142 675 131 722 b 221 913 150 831 176 876 b 369 967 264 949 314 967 b 499 908 424 967 467 947 b 533 767 531 869 543 822 m 174 771 b 308 608 158 681 218 608 b 431 657 351 608 393 625 b 499 771 468 689 492 728 b 365 932 514 861 456 932 b 242 886 319 932 279 917 b 174 771 204 854 182 817 "},"±":{"ha":929,"x_min":0,"x_max":0,"o":"m 813 567 b 821 557 821 567 824 564 l 819 543 b 807 532 818 536 814 532 l 510 532 l 474 336 b 461 325 472 329 468 325 l 447 325 b 438 336 440 325 436 329 l 474 532 l 174 532 b 164 543 167 532 163 536 l 165 557 b 179 567 168 564 172 567 l 479 567 l 514 768 b 528 779 517 775 521 779 l 542 779 b 550 768 549 779 551 775 l 515 567 m 753 228 b 761 218 761 228 764 225 l 760 204 b 747 193 758 197 754 193 l 114 193 b 104 204 107 193 103 197 l 106 218 b 119 228 108 225 113 228 "},"²":{"ha":476,"x_min":0,"x_max":0,"o":"m 156 978 l 160 989 b 375 1136 178 1026 235 1136 b 529 974 492 1136 546 1069 b 490 892 524 938 504 913 b 444 858 482 879 453 864 b 389 836 436 851 396 839 b 331 815 386 835 332 815 l 238 783 b 131 658 176 763 140 721 l 121 606 l 449 606 b 458 596 456 606 460 603 l 457 585 b 443 574 456 578 451 574 l 97 574 b 85 588 88 574 83 578 l 96 651 b 229 811 111 732 156 785 l 322 843 b 389 867 332 847 378 861 b 446 896 400 871 435 885 b 494 975 467 915 489 938 b 371 1104 507 1053 465 1104 b 199 994 293 1104 236 1068 b 188 971 194 986 192 978 l 188 969 b 172 960 183 963 179 958 l 161 964 b 156 978 154 965 151 969 "},"³":{"ha":494,"x_min":0,"x_max":0,"o":"m 153 979 b 388 1136 201 1089 272 1136 b 528 979 492 1136 543 1072 b 435 856 518 918 486 876 b 499 717 489 829 510 783 b 288 563 482 622 408 563 b 104 717 169 563 115 613 b 113 732 103 725 106 731 l 126 736 b 138 728 133 739 138 736 b 292 594 149 633 190 594 b 464 719 388 594 451 646 b 379 839 476 786 442 839 l 271 839 b 261 849 264 839 260 842 l 263 860 b 276 871 265 867 269 871 l 382 871 b 496 979 444 871 483 918 b 383 1106 508 1056 467 1106 b 183 969 290 1106 224 1060 b 167 961 179 961 174 958 l 156 965 b 153 979 149 968 149 972 "},"´":{"ha":357,"x_min":0,"x_max":0,"o":"m 408 1001 b 429 1000 418 1007 425 1007 l 436 990 b 432 976 442 985 440 981 l 157 825 b 142 826 150 824 146 824 l 136 835 b 140 849 132 840 133 844 "},"µ":{"ha":747,"x_min":0,"x_max":0,"o":"m 699 710 b 707 700 706 710 708 707 l 601 100 b 536 24 594 57 579 42 b 290 -21 460 -6 378 -21 b 79 118 171 -21 100 25 l 7 -296 b -6 -306 4 -303 0 -306 l -25 -306 b -32 -296 -31 -306 -33 -303 l 143 700 b 156 710 146 707 150 710 l 174 710 b 182 700 181 710 183 707 l 101 247 b 292 14 75 92 138 14 b 522 56 374 14 451 28 b 565 107 554 71 561 83 l 669 700 b 682 710 671 707 675 710 "},"¶":{"ha":440,"x_min":0,"x_max":0,"o":"m 419 986 b 429 976 426 986 429 983 l 236 -114 b 224 -124 235 -121 231 -124 l 207 -124 b 199 -114 200 -124 197 -121 l 385 946 l 314 946 l 128 -114 b 115 -124 126 -121 122 -124 l 99 -124 b 92 -114 93 -124 90 -121 l 247 771 b 160 879 185 771 149 817 b 289 986 171 944 222 986 "},"·":{"ha":250,"x_min":0,"x_max":0,"o":"m 129 396 b 151 368 150 396 156 390 l 150 363 b 117 335 146 344 135 335 l 110 335 b 89 363 89 335 83 340 l 90 368 b 124 396 94 390 101 396 "},"¸":{"ha":349,"x_min":0,"x_max":0,"o":"m 71 -122 b 122 -115 86 -118 104 -115 b 225 -215 199 -115 236 -153 b 54 -342 210 -297 144 -342 b -60 -308 7 -342 -31 -331 b -67 -290 -65 -304 -68 -299 l -65 -278 b -57 -274 -64 -269 -61 -268 b 57 -314 -28 -300 10 -314 b 193 -212 129 -314 181 -278 b 103 -139 200 -164 168 -139 b 46 -147 79 -139 61 -142 b 36 -132 33 -151 29 -144 l 108 0 l 136 0 "},"¹":{"ha":360,"x_min":0,"x_max":0,"o":"m 393 1125 b 403 1114 400 1125 404 1121 l 310 585 b 297 574 308 578 304 574 l 285 574 b 276 585 278 574 275 578 l 364 1081 l 149 974 b 133 976 142 969 136 969 l 131 986 b 138 1001 128 993 131 999 l 371 1121 b 388 1125 376 1124 382 1125 "},"º":{"ha":524,"x_min":0,"x_max":0,"o":"m 156 774 b 364 931 172 874 247 931 b 518 763 482 931 536 864 l 497 653 b 288 494 479 547 410 494 b 135 664 171 494 114 560 m 485 768 b 358 899 500 850 457 899 b 188 768 265 899 203 850 l 168 657 b 293 526 153 575 199 526 b 465 657 389 526 450 574 "},"»":{"ha":758,"x_min":0,"x_max":0,"o":"m 117 639 b 121 654 114 644 115 650 l 133 663 b 147 663 140 668 144 668 l 388 371 b 385 358 390 367 389 363 l 46 69 b 31 69 39 65 33 65 l 19 83 b 22 97 17 89 18 93 l 340 368 m 426 639 b 429 654 422 646 422 650 l 442 663 b 456 663 449 667 454 667 l 696 371 b 693 358 699 367 697 363 l 354 69 b 339 69 349 65 343 65 l 328 83 b 331 97 325 89 326 93 l 649 368 "},"¼":{"ha":1129,"x_min":0,"x_max":0,"o":"m 389 999 b 397 988 397 999 400 994 l 306 458 b 292 447 303 451 299 447 l 281 447 b 272 458 272 447 269 451 l 358 954 l 143 846 b 129 850 136 843 131 844 l 125 860 b 132 874 124 865 125 869 l 365 994 l 372 997 b 382 999 376 999 379 999 m 968 986 b 975 974 978 986 981 982 l 267 11 b 242 0 260 4 251 0 l 228 0 b 222 13 218 0 217 4 l 931 975 b 951 986 936 982 943 986 m 1036 194 b 1044 185 1043 194 1046 192 l 1043 175 b 1031 164 1042 168 1038 164 l 951 164 l 924 10 b 913 0 922 3 919 0 l 899 0 b 890 10 892 0 889 3 l 918 164 l 629 164 b 621 174 622 164 619 167 l 622 182 b 629 197 626 192 628 196 l 974 543 b 993 551 979 549 986 551 l 1008 551 b 1017 540 1017 551 1019 547 l 957 194 m 978 507 l 667 194 l 922 194 "},"½":{"ha":1231,"x_min":0,"x_max":0,"o":"m 389 999 b 397 988 397 999 400 994 l 306 458 b 292 447 303 451 299 447 l 281 447 b 272 458 272 447 269 451 l 358 954 l 143 846 b 129 850 136 843 131 844 l 125 860 b 132 874 124 865 125 869 l 365 994 l 372 997 b 382 999 376 999 379 999 m 971 986 b 978 974 981 986 983 982 l 269 11 b 246 0 264 4 256 0 l 231 0 b 225 13 221 0 219 4 l 933 975 b 954 986 939 982 946 986 m 796 403 l 800 413 b 1015 563 815 447 872 563 b 1169 400 1132 563 1186 494 b 1131 318 1164 364 1144 339 b 1085 285 1122 306 1093 290 b 1029 263 1076 278 1036 265 b 971 242 1026 261 972 242 l 879 210 b 771 85 817 188 781 146 l 761 32 l 1089 32 b 1100 22 1096 32 1100 29 l 1097 10 b 1083 0 1096 3 1092 0 l 738 0 b 725 14 728 0 724 4 l 738 78 b 869 236 751 157 796 210 l 963 269 b 1000 282 965 271 978 275 b 1040 297 1021 289 1035 294 b 1071 313 1044 299 1056 304 b 1135 401 1113 332 1118 356 b 1011 529 1150 479 1107 529 b 839 419 933 529 876 493 b 828 396 835 411 832 403 l 828 394 b 814 386 824 388 819 385 l 801 389 b 796 403 793 390 792 396 "},"¾":{"ha":1207,"x_min":0,"x_max":0,"o":"m 143 853 b 378 1010 193 963 263 1010 b 519 851 483 1010 535 946 b 425 729 510 792 478 750 b 489 590 479 703 500 656 b 279 436 472 496 400 436 b 96 590 161 436 107 486 b 103 606 94 597 96 603 l 117 608 b 129 600 124 611 128 608 b 282 468 140 506 181 468 b 456 593 381 468 440 517 b 369 713 467 660 435 713 l 261 713 b 251 722 254 713 251 715 l 254 733 b 267 743 256 740 260 743 l 372 743 b 486 853 435 743 475 792 b 374 978 501 926 458 978 b 174 843 282 978 215 933 b 157 835 169 833 164 831 l 147 838 b 143 853 140 840 139 846 m 1051 986 b 1057 974 1061 986 1064 982 l 349 11 b 325 0 343 4 335 0 l 311 0 b 306 13 300 0 299 4 l 1014 975 b 1035 986 1019 982 1026 986 m 1115 194 b 1124 185 1122 194 1125 192 l 1122 174 b 1110 164 1121 167 1117 164 l 1031 164 l 1004 10 b 992 0 1001 3 997 0 l 978 0 b 971 10 971 0 968 3 l 997 164 l 710 164 b 700 174 703 164 700 167 l 703 182 b 708 197 704 190 707 196 l 1053 543 b 1072 551 1058 549 1065 551 l 1088 551 b 1097 539 1094 551 1099 547 l 1036 194 m 1058 507 l 746 194 l 1003 194 "},"¿":{"ha":758,"x_min":0,"x_max":0,"o":"m 474 651 b 453 678 453 651 449 657 l 453 685 b 486 713 457 703 468 713 l 492 713 b 514 685 513 713 518 707 l 513 678 b 481 651 511 657 501 651 m 647 -93 b 267 -322 563 -246 435 -322 b 44 -240 168 -322 93 -294 b -8 -36 -6 -186 -24 -118 b 92 171 7 51 38 119 b 240 279 149 225 168 236 b 328 335 278 301 307 319 b 392 406 347 350 368 374 b 436 514 414 438 429 474 b 447 524 438 521 440 524 l 463 524 b 472 514 469 524 472 521 b 389 347 460 443 435 390 b 331 297 365 325 346 308 b 258 250 314 285 290 269 b 183 203 226 231 201 215 b 121 149 165 190 144 172 b 32 -36 72 103 44 42 b 268 -285 6 -179 92 -285 b 613 -81 422 -285 538 -217 b 628 -74 618 -74 624 -71 l 643 -79 b 647 -93 650 -82 651 -86 "},"À":{"ha":868,"x_min":0,"x_max":0,"o":"m 450 1226 b 472 1228 457 1233 465 1235 l 692 1081 b 690 1067 696 1076 696 1072 l 685 1061 b 669 1060 681 1057 675 1056 l 442 1203 b 442 1218 436 1206 436 1211 m 788 11 b 776 0 788 4 783 0 l 763 0 b 744 10 751 0 746 3 l 668 344 l 190 344 l -3 10 b -25 0 -8 3 -15 0 l -42 0 b -49 11 -51 0 -53 4 l 515 982 b 533 993 519 989 526 993 l 550 993 b 564 983 560 993 564 990 m 540 914 b 538 951 539 924 538 936 l 535 951 b 521 914 528 931 524 918 l 210 379 l 663 379 "},"Á":{"ha":868,"x_min":0,"x_max":0,"o":"m 693 1240 b 714 1239 703 1244 710 1244 l 721 1229 b 717 1214 726 1222 725 1218 l 442 1064 b 426 1065 435 1060 431 1061 l 421 1074 b 425 1086 417 1078 418 1082 m 788 11 b 776 0 788 4 783 0 l 763 0 b 744 10 751 0 746 3 l 668 344 l 190 344 l -3 10 b -25 0 -8 3 -15 0 l -42 0 b -49 11 -51 0 -53 4 l 515 982 b 533 993 519 989 526 993 l 550 993 b 564 983 560 993 564 990 m 540 914 b 538 951 539 924 538 936 l 535 951 b 521 914 528 931 524 918 l 210 379 l 663 379 "},"Â":{"ha":868,"x_min":0,"x_max":0,"o":"m 589 1243 b 611 1232 596 1243 604 1239 l 776 1072 b 768 1063 781 1065 778 1063 l 753 1063 b 735 1069 746 1063 739 1065 l 585 1213 l 382 1069 b 363 1063 376 1065 369 1063 l 340 1063 b 336 1072 329 1063 328 1065 l 560 1232 b 583 1243 568 1239 576 1243 m 788 11 b 776 0 788 4 783 0 l 763 0 b 744 10 751 0 746 3 l 668 344 l 190 344 l -3 10 b -25 0 -8 3 -15 0 l -42 0 b -49 11 -51 0 -53 4 l 515 982 b 533 993 519 989 526 993 l 550 993 b 564 983 560 993 564 990 m 540 914 b 538 951 539 924 538 936 l 535 951 b 521 914 528 931 524 918 l 210 379 l 663 379 "},"Ã":{"ha":868,"x_min":0,"x_max":0,"o":"m 785 1210 b 792 1201 790 1210 793 1207 b 669 1076 776 1118 735 1076 b 464 1181 569 1076 551 1181 b 372 1085 418 1181 382 1142 b 363 1076 371 1079 368 1076 l 350 1076 b 343 1085 344 1076 342 1079 b 467 1210 358 1163 401 1210 b 575 1157 501 1210 538 1192 b 672 1104 613 1122 644 1104 b 763 1201 721 1104 751 1144 b 772 1210 764 1207 768 1210 m 788 11 b 776 0 788 4 783 0 l 763 0 b 744 10 751 0 746 3 l 668 344 l 190 344 l -3 10 b -25 0 -8 3 -15 0 l -42 0 b -49 11 -51 0 -53 4 l 515 982 b 533 993 519 989 526 993 l 550 993 b 564 983 560 993 564 990 m 540 914 b 538 951 539 924 538 936 l 535 951 b 521 914 528 931 524 918 l 210 379 l 663 379 "},"Ä":{"ha":868,"x_min":0,"x_max":0,"o":"m 447 1174 b 465 1151 465 1174 469 1169 l 464 1143 b 438 1119 460 1125 456 1119 l 429 1119 b 410 1143 414 1119 407 1128 l 411 1151 b 439 1174 414 1167 424 1174 m 708 1174 b 729 1151 725 1174 732 1167 l 728 1143 b 700 1119 724 1128 715 1119 l 692 1119 b 672 1143 674 1119 668 1125 l 674 1151 b 701 1174 678 1168 683 1174 m 788 11 b 776 0 788 4 783 0 l 763 0 b 744 10 751 0 746 3 l 668 344 l 190 344 l -3 10 b -25 0 -8 3 -15 0 l -42 0 b -49 11 -51 0 -53 4 l 515 982 b 533 993 519 989 526 993 l 550 993 b 564 983 560 993 564 990 m 540 914 b 538 951 539 924 538 936 l 535 951 b 521 914 528 931 524 918 l 210 379 l 663 379 "},"Å":{"ha":868,"x_min":0,"x_max":0,"o":"m 422 1101 b 583 1231 438 1183 499 1231 b 693 1097 665 1231 708 1179 b 567 974 681 1026 633 983 l 788 11 b 776 0 788 4 783 0 l 763 0 b 744 10 751 0 746 3 l 668 344 l 190 344 l -3 10 b -25 0 -8 3 -15 0 l -42 0 b -49 11 -51 0 -53 4 l 510 972 b 422 1101 443 982 411 1031 m 665 1099 b 579 1204 678 1164 644 1204 b 450 1099 511 1204 463 1165 b 542 994 439 1033 474 994 b 665 1099 607 994 654 1036 m 540 914 b 538 951 539 924 538 936 l 535 951 b 521 914 528 931 524 918 l 210 379 l 663 379 "},"Æ":{"ha":1122,"x_min":0,"x_max":0,"o":"m 1000 38 b 1008 26 1007 38 1010 33 l 1006 11 b 993 0 1004 4 1000 0 l 539 0 b 531 11 532 0 529 4 l 576 271 l 185 271 l -18 10 b -40 0 -25 3 -32 0 l -57 0 b -64 11 -67 0 -69 4 l 688 975 b 706 986 693 982 699 986 l 1146 986 b 1156 975 1153 986 1157 982 l 1153 960 b 1140 949 1151 953 1147 949 l 736 949 l 660 518 l 1006 518 b 1014 507 1011 518 1014 514 l 1011 490 b 997 479 1008 483 1004 479 l 653 479 l 575 38 m 693 924 l 213 307 l 582 307 "},"Ç":{"ha":878,"x_min":0,"x_max":0,"o":"m 585 1006 b 904 761 796 1006 888 926 b 894 746 906 753 901 747 l 881 742 b 867 749 872 739 868 742 b 582 968 850 900 771 968 b 200 669 367 968 233 857 l 140 322 b 414 21 107 132 203 21 b 782 246 607 21 710 90 b 799 253 786 253 792 256 l 814 247 b 818 232 821 244 822 239 b 433 -19 742 65 639 -14 l 378 -124 b 428 -118 396 -119 413 -118 b 532 -218 504 -118 543 -156 b 361 -344 517 -297 451 -344 b 246 -311 315 -344 278 -333 b 239 -293 240 -307 238 -301 l 242 -281 b 250 -276 243 -274 246 -272 b 363 -317 279 -303 317 -317 b 499 -215 435 -317 488 -278 b 410 -142 506 -167 472 -142 b 351 -150 388 -142 368 -144 b 343 -135 339 -154 336 -147 l 406 -19 b 99 321 172 -18 61 111 l 160 668 b 585 1006 197 881 346 1006 "},"È":{"ha":788,"x_min":0,"x_max":0,"o":"m 426 1226 b 449 1228 433 1233 440 1233 l 667 1081 b 665 1067 671 1076 671 1072 l 661 1061 b 644 1060 657 1057 651 1056 l 418 1203 b 418 1218 411 1207 411 1211 m 801 986 b 811 975 808 986 813 982 l 807 960 b 794 949 807 953 803 949 l 254 949 l 178 519 l 660 519 b 668 508 668 519 671 515 l 667 492 b 653 481 664 485 660 481 l 171 481 l 94 38 l 656 38 b 664 26 661 38 664 33 l 661 11 b 647 0 658 4 654 0 l 57 0 b 47 11 50 0 46 4 l 218 975 b 231 986 219 982 224 986 "},"É":{"ha":788,"x_min":0,"x_max":0,"o":"m 669 1240 b 690 1239 678 1244 685 1244 l 696 1229 b 692 1214 701 1222 700 1218 l 418 1064 b 401 1065 410 1060 404 1061 l 396 1074 b 400 1086 392 1078 393 1082 m 801 986 b 811 975 808 986 813 982 l 807 960 b 794 949 807 953 803 949 l 254 949 l 178 519 l 660 519 b 668 508 668 519 671 515 l 667 492 b 653 481 664 485 660 481 l 171 481 l 94 38 l 656 38 b 664 26 661 38 664 33 l 661 11 b 647 0 658 4 654 0 l 57 0 b 47 11 50 0 46 4 l 218 975 b 231 986 219 982 224 986 "},"Ê":{"ha":788,"x_min":0,"x_max":0,"o":"m 564 1243 b 586 1232 572 1243 579 1239 l 751 1072 b 743 1063 756 1065 753 1063 l 729 1063 b 711 1069 721 1063 715 1065 l 560 1213 l 357 1069 b 338 1063 351 1065 344 1063 l 315 1063 b 311 1072 306 1063 304 1065 l 535 1232 b 558 1243 543 1239 551 1243 m 801 986 b 811 975 808 986 813 982 l 807 960 b 794 949 807 953 803 949 l 254 949 l 178 519 l 660 519 b 668 508 668 519 671 515 l 667 492 b 653 481 664 485 660 481 l 171 481 l 94 38 l 656 38 b 664 26 661 38 664 33 l 661 11 b 647 0 658 4 654 0 l 57 0 b 47 11 50 0 46 4 l 218 975 b 231 986 219 982 224 986 "},"Ë":{"ha":788,"x_min":0,"x_max":0,"o":"m 422 1174 b 442 1151 440 1174 443 1169 l 440 1143 b 413 1119 436 1125 431 1119 l 404 1119 b 386 1143 389 1119 382 1128 l 388 1151 b 414 1174 390 1167 399 1174 m 685 1174 b 704 1151 700 1174 707 1167 l 703 1143 b 675 1119 699 1128 690 1119 l 668 1119 b 647 1143 650 1119 643 1125 l 649 1151 b 678 1174 651 1167 661 1174 m 801 986 b 811 975 808 986 813 982 l 807 960 b 794 949 807 953 803 949 l 254 949 l 178 519 l 660 519 b 668 508 668 519 671 515 l 667 492 b 653 481 664 485 660 481 l 171 481 l 94 38 l 656 38 b 664 26 661 38 664 33 l 661 11 b 647 0 658 4 654 0 l 57 0 b 47 11 50 0 46 4 l 218 975 b 231 986 219 982 224 986 "},"Ì":{"ha":279,"x_min":0,"x_max":0,"o":"m 149 1226 b 171 1228 156 1233 163 1233 l 389 1081 b 389 1067 393 1076 393 1072 l 383 1061 b 368 1060 379 1057 374 1056 l 140 1203 b 140 1218 133 1207 133 1211 m 218 975 b 231 986 219 982 224 986 l 249 986 b 258 975 256 986 260 982 l 89 11 b 75 0 86 4 82 0 l 57 0 b 47 11 50 0 46 4 "},"Í":{"ha":279,"x_min":0,"x_max":0,"o":"m 392 1240 b 413 1239 401 1244 408 1244 l 418 1229 b 414 1214 425 1222 424 1218 l 140 1064 b 125 1065 133 1060 128 1061 l 119 1074 b 122 1086 115 1078 117 1082 m 218 975 b 231 986 219 982 224 986 l 249 986 b 258 975 256 986 260 982 l 89 11 b 75 0 86 4 82 0 l 57 0 b 47 11 50 0 46 4 "},"Î":{"ha":279,"x_min":0,"x_max":0,"o":"m 299 1243 b 321 1232 306 1243 314 1239 l 486 1072 b 478 1063 489 1065 486 1063 l 463 1063 b 444 1069 454 1063 449 1065 l 293 1213 l 92 1069 b 71 1063 86 1065 79 1063 l 50 1063 b 46 1072 39 1063 38 1065 l 268 1232 b 292 1243 276 1239 285 1243 m 229 975 b 242 986 231 982 235 986 l 260 986 b 269 975 267 986 271 982 l 100 11 b 86 0 97 4 93 0 l 68 0 b 58 11 61 0 57 4 "},"Ï":{"ha":279,"x_min":0,"x_max":0,"o":"m 144 1174 b 164 1151 163 1174 168 1168 l 163 1143 b 135 1119 158 1125 153 1119 l 126 1119 b 108 1143 111 1119 104 1128 l 110 1151 b 136 1174 113 1167 121 1174 m 407 1174 b 428 1151 422 1174 429 1167 l 425 1143 b 397 1119 422 1128 413 1119 l 390 1119 b 371 1143 372 1119 367 1125 l 372 1151 b 400 1174 376 1168 382 1174 m 218 975 b 231 986 219 982 224 986 l 249 986 b 258 975 256 986 260 982 l 89 11 b 75 0 86 4 82 0 l 57 0 b 47 11 50 0 46 4 "},"Ð":{"ha":903,"x_min":0,"x_max":0,"o":"m 522 986 b 860 615 778 986 900 844 l 815 363 b 349 0 775 135 606 0 l 71 0 b 61 11 64 0 60 4 l 143 478 l 25 478 b 17 488 17 478 14 481 l 18 500 b 32 510 21 507 25 510 l 150 510 l 232 975 b 244 986 233 982 238 986 m 821 619 b 517 949 858 826 750 949 l 268 949 l 190 510 l 474 510 b 482 500 481 510 483 507 l 479 488 b 468 478 478 481 475 478 l 185 478 l 107 38 l 357 38 b 776 367 586 38 739 160 "},"Ñ":{"ha":954,"x_min":0,"x_max":0,"o":"m 821 1210 b 828 1201 826 1210 829 1207 b 704 1076 813 1118 771 1076 b 599 1129 671 1076 636 1094 b 500 1181 561 1164 529 1181 b 408 1085 454 1181 418 1142 b 399 1076 407 1079 404 1076 l 385 1076 b 379 1085 381 1076 378 1079 b 503 1210 392 1163 436 1210 b 611 1157 538 1210 574 1192 b 708 1104 649 1122 681 1104 b 799 1201 757 1104 788 1144 b 808 1210 800 1207 804 1210 m 924 986 b 933 975 931 986 935 982 l 764 11 b 750 0 761 4 757 0 l 732 0 b 719 8 728 0 724 3 l 329 753 b 289 840 319 771 307 800 b 247 922 271 879 257 907 l 244 922 b 228 813 240 900 235 864 b 211 704 221 761 215 725 l 89 11 b 75 0 86 4 82 0 l 57 0 b 47 11 50 0 46 4 l 218 975 b 231 986 219 982 224 986 l 244 986 b 258 979 251 986 256 983 l 639 256 b 693 150 653 229 671 194 b 735 65 715 104 729 76 l 738 65 b 756 182 742 89 747 128 b 775 308 763 236 769 279 l 893 976 b 906 986 894 983 899 986 "},"Ò":{"ha":918,"x_min":0,"x_max":0,"o":"m 503 1240 b 525 1242 510 1247 517 1247 l 743 1094 b 742 1081 747 1090 746 1086 l 736 1075 b 721 1074 732 1071 726 1069 l 493 1217 b 494 1232 488 1221 488 1225 m 163 671 b 590 1006 200 883 351 1006 b 901 661 828 1006 940 874 l 840 314 b 417 -19 803 103 654 -19 b 101 325 176 -19 63 113 m 861 665 b 586 968 894 856 797 968 b 204 665 374 968 238 858 l 143 321 b 419 18 110 131 207 18 b 800 321 629 18 767 131 "},"Ó":{"ha":918,"x_min":0,"x_max":0,"o":"m 744 1254 b 767 1253 754 1258 763 1258 l 772 1243 b 768 1228 778 1236 776 1232 l 493 1078 b 478 1079 486 1074 482 1075 l 472 1088 b 476 1100 468 1092 469 1096 m 163 671 b 590 1006 200 883 351 1006 b 901 661 828 1006 940 874 l 840 314 b 417 -19 803 103 654 -19 b 101 325 176 -19 63 113 m 861 665 b 586 968 894 856 797 968 b 204 665 374 968 238 858 l 143 321 b 419 18 110 131 207 18 b 800 321 629 18 767 131 "},"Ô":{"ha":918,"x_min":0,"x_max":0,"o":"m 640 1257 b 663 1246 647 1257 656 1253 l 828 1086 b 819 1076 831 1079 828 1076 l 806 1076 b 788 1083 797 1076 792 1079 l 636 1226 l 433 1083 b 414 1076 428 1079 421 1076 l 392 1076 b 388 1086 382 1076 381 1079 l 611 1246 b 635 1257 619 1253 628 1257 m 163 671 b 590 1006 200 883 351 1006 b 901 661 828 1006 940 874 l 840 314 b 417 -19 803 103 654 -19 b 101 325 176 -19 63 113 m 861 665 b 586 968 894 856 797 968 b 204 665 374 968 238 858 l 143 321 b 419 18 110 131 207 18 b 800 321 629 18 767 131 "},"Õ":{"ha":918,"x_min":0,"x_max":0,"o":"m 838 1224 b 843 1215 844 1224 846 1221 b 721 1090 829 1132 789 1090 b 515 1194 621 1090 603 1194 b 425 1099 469 1194 435 1156 b 414 1090 424 1093 419 1090 l 401 1090 b 394 1099 396 1090 393 1093 b 518 1224 410 1176 453 1224 b 626 1171 553 1224 589 1206 b 724 1118 664 1136 696 1118 b 814 1215 772 1118 803 1158 b 824 1224 815 1221 818 1224 m 163 671 b 590 1006 200 883 351 1006 b 901 661 828 1006 940 874 l 840 314 b 417 -19 803 103 654 -19 b 101 325 176 -19 63 113 m 861 665 b 586 968 894 856 797 968 b 204 665 374 968 238 858 l 143 321 b 419 18 110 131 207 18 b 800 321 629 18 767 131 "},"Ö":{"ha":918,"x_min":0,"x_max":0,"o":"m 499 1188 b 518 1165 517 1188 519 1183 l 515 1157 b 489 1133 511 1139 507 1133 l 481 1133 b 463 1157 465 1133 458 1142 l 464 1165 b 490 1188 465 1181 474 1188 m 761 1188 b 781 1165 776 1188 783 1181 l 779 1157 b 751 1133 775 1142 767 1133 l 744 1133 b 724 1157 726 1133 719 1139 l 725 1165 b 754 1188 728 1181 738 1188 m 163 671 b 590 1006 200 883 351 1006 b 901 661 828 1006 940 874 l 840 314 b 417 -19 803 103 654 -19 b 101 325 176 -19 63 113 m 861 665 b 586 968 894 856 797 968 b 204 665 374 968 238 858 l 143 321 b 419 18 110 131 207 18 b 800 321 629 18 767 131 "},"×":{"ha":696,"x_min":0,"x_max":0,"o":"m 575 219 b 572 203 579 213 579 207 l 564 196 b 547 196 557 192 551 192 l 358 426 l 89 196 b 72 196 82 192 76 192 l 65 206 b 68 222 60 211 61 217 l 338 451 l 149 679 b 153 696 144 685 146 690 l 160 703 b 176 703 167 710 172 710 l 365 475 l 633 703 b 651 703 640 708 647 708 l 658 694 b 654 678 663 689 661 683 l 386 449 "},"Ø":{"ha":918,"x_min":0,"x_max":0,"o":"m 946 1040 b 949 1035 951 1040 953 1039 l 838 899 b 878 661 883 839 896 760 l 817 314 b 393 -19 779 103 631 -19 b 150 56 286 -19 204 6 l 60 -56 b 46 -61 57 -60 53 -61 l 26 -61 b 25 -56 22 -61 21 -60 l 129 75 b 78 325 76 135 60 218 l 139 671 b 567 1006 176 883 328 1006 b 818 918 681 1006 764 976 l 913 1035 b 925 1040 915 1039 919 1040 m 792 888 b 563 968 743 942 667 968 b 181 665 350 968 214 858 l 119 321 b 160 110 104 231 117 161 m 838 665 b 808 861 851 747 842 813 l 178 86 b 396 18 226 40 299 18 b 776 321 606 18 743 131 "},"Ù":{"ha":943,"x_min":0,"x_max":0,"o":"m 511 1226 b 533 1228 518 1233 525 1233 l 751 1081 b 750 1067 756 1076 754 1072 l 744 1061 b 729 1060 740 1057 735 1056 l 501 1203 b 503 1218 496 1207 496 1211 m 165 333 b 431 17 131 135 219 17 b 806 333 642 17 772 138 l 919 975 b 932 986 921 982 925 986 l 951 986 b 961 975 958 986 963 982 l 846 326 b 426 -21 807 108 664 -21 b 125 338 188 -21 86 117 l 239 975 b 251 986 240 982 244 986 l 269 986 b 279 975 276 986 281 982 "},"Ú":{"ha":943,"x_min":0,"x_max":0,"o":"m 753 1240 b 775 1239 763 1244 769 1244 l 781 1229 b 776 1214 786 1222 785 1218 l 501 1064 b 486 1065 494 1060 490 1061 l 481 1074 b 485 1086 476 1078 478 1082 m 165 333 b 431 17 131 135 219 17 b 806 333 642 17 772 138 l 919 975 b 932 986 921 982 925 986 l 951 986 b 961 975 958 986 963 982 l 846 326 b 426 -21 807 108 664 -21 b 125 338 188 -21 86 117 l 239 975 b 251 986 240 982 244 986 l 269 986 b 279 975 276 986 281 982 "},"Û":{"ha":943,"x_min":0,"x_max":0,"o":"m 649 1243 b 671 1232 656 1243 664 1239 l 836 1072 b 828 1063 839 1065 836 1063 l 814 1063 b 796 1069 806 1063 800 1065 l 644 1213 l 442 1069 b 422 1063 436 1065 429 1063 l 400 1063 b 396 1072 390 1063 389 1065 l 619 1232 b 643 1243 628 1239 636 1243 m 165 333 b 431 17 131 135 219 17 b 806 333 642 17 772 138 l 919 975 b 932 986 921 982 925 986 l 951 986 b 961 975 958 986 963 982 l 846 326 b 426 -21 807 108 664 -21 b 125 338 188 -21 86 117 l 239 975 b 251 986 240 982 244 986 l 269 986 b 279 975 276 986 281 982 "},"Ü":{"ha":943,"x_min":0,"x_max":0,"o":"m 507 1174 b 526 1151 525 1174 528 1169 l 524 1143 b 497 1119 519 1125 515 1119 l 489 1119 b 471 1143 474 1119 467 1128 l 472 1151 b 499 1174 474 1167 482 1174 m 769 1174 b 789 1151 785 1174 792 1167 l 788 1143 b 760 1119 783 1128 775 1119 l 753 1119 b 732 1143 735 1119 728 1125 l 733 1151 b 763 1174 736 1167 746 1174 m 165 333 b 431 17 131 135 219 17 b 806 333 642 17 772 138 l 919 975 b 932 986 921 982 925 986 l 951 986 b 961 975 958 986 963 982 l 846 326 b 426 -21 807 108 664 -21 b 125 338 188 -21 86 117 l 239 975 b 251 986 240 982 244 986 l 269 986 b 279 975 276 986 281 982 "},"Ý":{"ha":847,"x_min":0,"x_max":0,"o":"m 682 1240 b 704 1239 692 1244 699 1244 l 710 1229 b 706 1214 715 1222 714 1218 l 431 1064 b 415 1065 424 1060 419 1061 l 410 1074 b 414 1086 406 1078 407 1082 m 926 986 b 932 975 936 986 938 982 l 447 408 l 378 11 b 365 0 376 4 372 0 l 346 0 b 338 11 338 0 335 4 l 407 410 l 125 975 b 133 986 121 982 124 986 l 154 986 b 174 976 164 986 171 983 l 435 451 l 881 976 b 903 986 886 983 893 986 "},"Þ":{"ha":850,"x_min":0,"x_max":0,"o":"m 561 811 b 821 492 754 811 856 686 b 451 189 788 301 646 189 l 121 189 l 89 11 b 75 0 86 4 82 0 l 57 0 b 47 11 50 0 46 4 l 218 975 b 231 986 219 982 224 986 l 249 986 b 258 975 256 986 260 982 l 229 811 m 454 228 b 781 499 626 228 751 331 b 551 772 810 669 722 772 l 222 772 l 126 228 "},"ß":{"ha":756,"x_min":0,"x_max":0,"o":"m 158 735 b 488 1042 192 925 310 1042 b 719 761 675 1042 751 949 b 536 538 701 665 640 571 l 536 535 b 671 281 646 506 694 414 b 343 0 639 93 529 0 l 197 0 b 189 11 190 0 188 4 l 192 26 b 204 38 193 33 197 38 l 347 38 b 631 285 503 38 601 122 b 446 517 657 428 586 517 l 296 517 b 286 528 289 517 285 521 l 288 542 b 301 553 290 549 294 553 l 450 553 b 607 619 515 553 567 575 b 682 764 647 663 672 711 b 481 1004 711 924 643 1004 b 196 733 326 1004 225 901 l 69 11 b 56 0 67 4 63 0 l 40 0 b 31 11 33 0 29 4 "},"à":{"ha":733,"x_min":0,"x_max":0,"o":"m 378 989 b 400 990 385 996 392 996 l 611 836 b 611 822 615 832 615 828 l 607 818 b 592 817 603 814 597 813 l 371 968 b 371 982 365 971 365 975 m 111 472 b 442 729 140 651 243 729 b 656 690 526 729 599 717 b 697 614 699 672 704 658 l 599 46 b 579 28 597 38 590 32 b 286 -19 489 -4 392 -19 b 74 265 110 -19 42 92 m 628 658 b 438 694 576 682 513 694 b 147 469 264 694 176 629 l 111 264 b 294 15 83 110 140 15 b 563 61 390 15 479 31 l 658 606 b 628 658 664 639 661 643 "},"á":{"ha":733,"x_min":0,"x_max":0,"o":"m 615 990 b 636 989 625 994 632 994 l 642 979 b 638 965 647 974 646 969 l 364 814 b 349 815 357 811 351 811 l 343 824 b 346 838 339 828 340 833 m 111 472 b 442 729 140 651 243 729 b 656 690 526 729 599 717 b 697 614 699 672 704 658 l 599 46 b 579 28 597 38 590 32 b 286 -19 489 -4 392 -19 b 74 265 110 -19 42 92 m 628 658 b 438 694 576 682 513 694 b 147 469 264 694 176 629 l 111 264 b 294 15 83 110 140 15 b 563 61 390 15 479 31 l 658 606 b 628 658 664 639 661 643 "},"â":{"ha":733,"x_min":0,"x_max":0,"o":"m 510 985 b 531 974 517 985 524 981 l 696 813 b 689 804 701 807 699 804 l 674 804 b 656 811 665 804 660 807 l 504 956 l 301 811 b 283 804 296 807 290 804 l 261 804 b 256 813 250 804 249 807 l 479 974 b 503 985 489 981 496 985 m 111 472 b 442 729 140 651 243 729 b 656 690 526 729 599 717 b 697 614 699 672 704 658 l 599 46 b 579 28 597 38 590 32 b 286 -19 489 -4 392 -19 b 74 265 110 -19 42 92 m 628 658 b 438 694 576 682 513 694 b 147 469 264 694 176 629 l 111 264 b 294 15 83 110 140 15 b 563 61 390 15 479 31 l 658 606 b 628 658 664 639 661 643 "},"ã":{"ha":733,"x_min":0,"x_max":0,"o":"m 707 961 b 714 953 713 961 715 958 b 593 828 699 869 658 828 b 385 932 493 828 472 932 b 293 836 339 932 304 893 b 285 828 293 831 290 828 l 271 828 b 264 836 267 828 264 831 b 386 961 279 914 321 961 b 496 910 421 961 457 944 b 594 857 533 875 567 857 b 685 953 643 857 675 896 b 694 961 686 958 690 961 m 111 472 b 442 729 140 651 243 729 b 656 690 526 729 599 717 b 697 614 699 672 704 658 l 599 46 b 579 28 597 38 590 32 b 286 -19 489 -4 392 -19 b 74 265 110 -19 42 92 m 628 658 b 438 694 576 682 513 694 b 147 469 264 694 176 629 l 111 264 b 294 15 83 110 140 15 b 563 61 390 15 479 31 l 658 606 b 628 658 664 639 661 643 "},"ä":{"ha":733,"x_min":0,"x_max":0,"o":"m 369 931 b 389 908 388 931 390 926 l 388 899 b 360 876 383 881 378 876 l 351 876 b 333 899 336 876 329 883 l 335 908 b 361 931 338 924 346 931 m 632 931 b 651 908 647 931 654 924 l 650 899 b 622 876 646 883 638 876 l 615 876 b 594 899 594 876 593 881 l 596 908 b 625 931 599 924 608 931 m 111 472 b 442 729 140 651 243 729 b 656 690 526 729 599 717 b 697 614 699 672 704 658 l 599 46 b 579 28 597 38 590 32 b 286 -19 489 -4 392 -19 b 74 265 110 -19 42 92 m 628 658 b 438 694 576 682 513 694 b 147 469 264 694 176 629 l 111 264 b 294 15 83 110 140 15 b 563 61 390 15 479 31 l 658 606 b 628 658 664 639 661 643 "},"å":{"ha":733,"x_min":0,"x_max":0,"o":"m 363 931 b 519 1056 375 1008 436 1056 b 626 926 599 1056 642 1004 b 474 800 611 847 553 800 b 363 931 392 800 347 851 m 560 853 b 601 928 582 871 596 896 b 588 1004 607 960 603 985 b 515 1032 572 1022 547 1032 b 388 928 443 1032 400 997 b 478 825 378 865 411 825 b 560 853 510 825 538 835 m 111 472 b 442 729 140 651 243 729 b 656 690 526 729 599 717 b 697 614 699 672 704 658 l 599 46 b 579 28 597 38 590 32 b 286 -19 489 -4 392 -19 b 74 265 110 -19 42 92 m 628 658 b 438 694 576 682 513 694 b 147 469 264 694 176 629 l 111 264 b 294 15 83 110 140 15 b 563 61 390 15 479 31 l 658 606 b 628 658 664 639 661 643 "},"æ":{"ha":1083,"x_min":0,"x_max":0,"o":"m 574 560 b 842 729 628 667 724 729 b 1054 496 1007 729 1089 644 b 772 307 1025 372 922 307 b 546 338 699 307 622 317 l 531 247 b 707 14 504 92 563 14 b 956 154 824 14 894 61 b 969 158 960 161 965 163 l 983 151 b 983 136 988 147 988 143 b 701 -19 915 32 822 -19 b 507 93 597 -19 533 18 b 260 -19 456 18 372 -19 b 35 193 82 -19 11 50 b 336 394 58 332 153 394 b 519 376 382 394 443 389 l 533 456 b 507 661 546 540 560 615 b 383 694 481 683 439 694 b 161 576 292 694 218 656 b 146 572 157 571 151 569 l 132 578 b 129 593 125 581 125 586 b 390 729 194 683 281 729 b 574 560 525 729 572 667 m 1018 499 b 836 696 1050 626 981 696 b 565 444 693 696 593 601 l 553 368 b 778 339 624 349 699 339 b 1018 499 913 339 992 392 m 514 344 b 328 361 456 356 393 361 b 72 189 172 361 94 310 b 263 14 51 71 113 14 b 493 129 368 14 444 53 b 496 246 486 167 488 206 "},"ç":{"ha":708,"x_min":0,"x_max":0,"o":"m 107 468 b 442 729 136 635 251 729 b 693 536 607 729 676 660 b 685 521 694 528 692 522 l 671 518 b 658 524 663 515 658 517 b 438 694 642 640 581 694 b 144 465 272 694 171 608 l 106 246 b 317 15 79 103 156 15 b 604 196 460 15 547 72 b 618 203 607 203 611 204 l 635 199 b 638 185 640 196 642 192 b 325 -19 575 51 471 -17 l 271 -122 b 321 -117 283 -118 300 -117 b 425 -217 397 -117 435 -154 b 253 -342 408 -296 343 -342 b 139 -308 206 -342 168 -331 b 132 -290 133 -304 131 -299 l 135 -278 b 142 -274 136 -271 139 -269 b 256 -314 172 -300 210 -314 b 392 -212 329 -314 381 -278 b 301 -139 399 -164 367 -139 b 244 -147 278 -139 260 -142 b 235 -132 232 -151 229 -144 l 297 -19 b 68 251 119 -14 39 89 "},"è":{"ha":717,"x_min":0,"x_max":0,"o":"m 365 989 b 386 990 371 994 378 994 l 599 836 b 597 822 603 832 603 828 l 593 818 b 578 817 589 814 583 813 l 358 968 b 358 982 351 971 351 975 m 103 446 b 447 729 135 625 263 729 b 694 493 636 729 732 642 b 379 307 664 369 558 307 b 121 335 286 307 200 317 l 104 247 b 311 14 78 99 149 14 b 593 154 444 14 526 64 b 611 158 600 161 606 163 l 622 151 b 622 136 626 147 626 143 b 306 -19 547 32 442 -19 b 68 251 118 -19 36 83 m 657 499 b 442 696 690 626 610 696 b 139 444 281 696 167 601 l 125 368 b 386 339 201 349 289 339 b 657 499 540 339 631 392 "},"é":{"ha":717,"x_min":0,"x_max":0,"o":"m 601 990 b 624 989 611 994 618 994 l 629 979 b 625 965 635 974 633 969 l 350 814 b 335 815 343 813 339 813 l 329 824 b 333 838 325 829 326 833 m 103 446 b 447 729 135 625 263 729 b 694 493 636 729 732 642 b 379 307 664 369 558 307 b 121 335 286 307 200 317 l 104 247 b 311 14 78 99 149 14 b 593 154 444 14 526 64 b 611 158 600 161 606 163 l 622 151 b 622 136 626 147 626 143 b 306 -19 547 32 442 -19 b 68 251 118 -19 36 83 m 657 499 b 442 696 690 626 610 696 b 139 444 281 696 167 601 l 125 368 b 386 339 201 349 289 339 b 657 499 540 339 631 392 "},"ê":{"ha":717,"x_min":0,"x_max":0,"o":"m 247 804 b 242 813 238 804 236 807 l 465 974 b 490 985 475 981 483 985 l 496 985 b 518 974 503 985 511 981 l 682 813 b 675 804 688 807 685 804 l 661 804 b 642 811 653 804 646 807 l 490 956 l 289 811 b 269 804 283 807 276 804 m 447 729 b 694 493 636 729 732 642 b 379 307 664 369 558 307 b 121 335 286 307 200 317 l 104 247 b 311 14 78 99 149 14 b 593 154 444 14 526 64 b 611 158 600 161 606 163 l 622 151 b 622 136 626 147 626 143 b 306 -19 547 32 442 -19 b 68 251 118 -19 36 83 l 103 446 b 447 729 135 625 263 729 m 657 499 b 442 696 690 626 610 696 b 139 444 281 696 167 601 l 125 368 b 386 339 201 349 289 339 b 657 499 540 339 631 392 "},"ë":{"ha":717,"x_min":0,"x_max":0,"o":"m 357 931 b 375 908 375 931 379 926 l 374 899 b 347 876 369 881 365 876 l 339 876 b 319 899 322 876 318 882 l 321 908 b 349 931 324 924 333 931 m 619 931 b 639 908 635 931 642 924 l 638 899 b 610 876 633 883 625 876 l 601 876 b 582 899 583 876 578 881 l 583 908 b 611 931 588 925 593 931 m 103 446 b 447 729 135 625 263 729 b 694 493 636 729 732 642 b 379 307 664 369 558 307 b 121 335 286 307 200 317 l 104 247 b 311 14 78 99 149 14 b 593 154 444 14 526 64 b 611 158 600 161 606 163 l 622 151 b 622 136 626 147 626 143 b 306 -19 547 32 442 -19 b 68 251 118 -19 36 83 m 657 499 b 442 696 690 626 610 696 b 139 444 281 696 167 601 l 125 368 b 386 339 201 349 289 339 b 657 499 540 339 631 392 "},"ì":{"ha":240,"x_min":0,"x_max":0,"o":"m 82 978 b 101 981 89 983 96 985 l 263 833 b 264 818 269 828 269 822 l 258 814 b 243 814 253 811 247 811 l 75 957 b 74 972 67 961 67 967 m 182 710 b 190 700 189 710 192 707 l 69 10 b 57 0 67 3 63 0 l 39 0 b 31 10 32 0 29 3 l 151 700 b 164 710 154 707 158 710 "},"í":{"ha":240,"x_min":0,"x_max":0,"o":"m 308 989 b 329 988 318 996 325 996 l 335 979 b 328 964 339 974 336 968 l 101 813 b 86 814 94 810 90 810 l 82 822 b 88 836 79 828 81 832 m 182 710 b 190 700 189 710 192 707 l 69 10 b 57 0 67 3 63 0 l 39 0 b 31 10 32 0 29 3 l 151 700 b 164 710 154 707 158 710 "},"î":{"ha":240,"x_min":0,"x_max":0,"o":"m 353 822 b 344 814 357 817 354 814 l 332 814 b 315 821 322 814 317 817 l 214 951 l 65 819 b 46 814 61 815 56 814 l 28 814 b 24 822 21 814 19 817 l 192 971 b 215 981 199 978 207 981 l 221 981 b 238 971 228 981 233 978 m 186 710 b 194 700 193 710 196 707 l 74 10 b 61 0 71 3 67 0 l 43 0 b 35 10 36 0 33 3 l 156 700 b 168 710 158 707 163 710 "},"ï":{"ha":240,"x_min":0,"x_max":0,"o":"m 121 954 b 140 931 139 954 144 949 l 138 922 b 113 900 133 904 131 900 l 104 900 b 83 922 88 900 82 904 l 86 931 b 113 954 89 946 97 954 m 306 954 b 326 931 322 954 329 946 l 324 922 b 297 900 322 907 313 900 l 289 900 b 268 922 271 900 267 904 l 271 931 b 299 954 275 949 281 954 m 182 710 b 190 700 189 710 192 707 l 69 10 b 57 0 67 3 63 0 l 39 0 b 31 10 32 0 29 3 l 151 700 b 164 710 154 707 158 710 "},"ð":{"ha":761,"x_min":0,"x_max":0,"o":"m 735 1036 b 747 1036 739 1040 743 1040 l 754 1029 b 753 1017 758 1025 757 1021 l 653 931 b 714 557 724 857 744 733 l 657 239 b 317 -19 629 76 510 -19 b 65 242 124 -19 38 76 l 101 443 b 439 701 131 606 250 701 b 678 558 572 701 656 647 b 624 903 706 725 690 832 l 483 781 b 471 779 478 776 474 776 l 463 788 b 464 800 458 792 460 796 l 603 919 b 319 993 543 968 449 993 b 311 1004 313 993 310 997 l 314 1018 b 326 1028 314 1025 318 1028 b 632 947 467 1028 569 1001 m 656 442 b 438 667 682 585 604 667 b 139 442 269 667 165 585 l 104 239 b 324 15 78 96 156 15 b 619 239 490 15 593 96 "},"ñ":{"ha":754,"x_min":0,"x_max":0,"o":"m 674 961 b 681 953 679 961 682 958 b 560 828 665 869 625 828 b 351 932 461 828 439 932 b 260 836 306 932 271 893 b 251 828 260 831 257 828 l 239 828 b 231 836 233 828 231 831 b 353 961 246 914 288 961 b 463 910 388 961 424 944 b 561 857 500 875 533 857 b 651 953 610 857 642 896 b 661 961 653 958 657 961 m 197 685 b 451 729 276 714 361 729 b 669 463 628 729 701 640 l 590 10 b 578 0 589 3 585 0 l 561 0 b 553 10 553 0 550 3 l 632 461 b 443 694 658 617 596 694 b 210 653 356 694 278 681 b 168 603 186 643 172 626 l 65 10 b 53 0 63 3 58 0 l 35 0 b 26 10 28 0 25 3 l 132 610 b 197 685 142 653 153 667 "},"ò":{"ha":744,"x_min":0,"x_max":0,"o":"m 361 988 b 382 989 368 994 375 994 l 594 835 b 593 821 599 831 599 826 l 589 817 b 574 815 585 813 581 813 l 354 967 b 354 981 347 969 347 974 m 110 493 b 443 729 136 639 265 729 b 697 492 622 729 721 638 l 649 215 b 317 -19 622 69 494 -19 b 61 218 139 -19 38 72 m 660 494 b 439 694 682 617 593 694 b 147 494 288 694 171 617 l 100 215 b 319 15 78 93 168 15 b 611 215 474 15 589 93 "},"ó":{"ha":744,"x_min":0,"x_max":0,"o":"m 597 989 b 619 988 607 993 614 993 l 625 979 b 621 964 629 972 628 968 l 346 813 b 331 814 339 810 333 810 l 325 822 b 329 836 321 828 322 832 m 110 493 b 443 729 136 639 265 729 b 697 492 622 729 721 638 l 649 215 b 317 -19 622 69 494 -19 b 61 218 139 -19 38 72 m 660 494 b 439 694 682 617 593 694 b 147 494 288 694 171 617 l 100 215 b 319 15 78 93 168 15 b 611 215 474 15 589 93 "},"ô":{"ha":744,"x_min":0,"x_max":0,"o":"m 243 803 b 238 811 233 803 232 806 l 461 972 b 486 983 471 979 479 983 l 492 983 b 514 972 500 983 507 979 l 678 811 b 671 803 683 806 681 803 l 657 803 b 638 810 649 803 642 806 l 486 956 l 285 810 b 265 803 279 806 272 803 m 443 729 b 697 492 622 729 721 638 l 649 215 b 317 -19 622 69 494 -19 b 61 218 139 -19 38 72 l 110 493 b 443 729 136 639 265 729 m 660 494 b 439 694 682 617 593 694 b 147 494 288 694 171 617 l 100 215 b 319 15 78 93 168 15 b 611 215 474 15 589 93 "},"õ":{"ha":744,"x_min":0,"x_max":0,"o":"m 690 960 b 696 951 697 960 699 957 b 576 826 682 868 642 826 b 468 879 542 826 506 844 b 368 931 429 914 396 931 b 276 835 319 931 286 892 b 268 826 276 829 274 826 l 254 826 b 247 835 249 826 246 829 b 369 960 260 913 304 960 b 576 856 467 960 492 856 b 667 951 625 856 657 894 b 676 960 668 957 671 960 m 110 493 b 443 729 136 639 265 729 b 697 492 622 729 721 638 l 649 215 b 317 -19 622 69 494 -19 b 61 218 139 -19 38 72 m 660 494 b 439 694 682 617 593 694 b 147 494 288 694 171 617 l 100 215 b 319 15 78 93 168 15 b 611 215 474 15 589 93 "},"ö":{"ha":744,"x_min":0,"x_max":0,"o":"m 353 929 b 371 907 371 929 375 925 l 369 897 b 343 875 365 879 361 875 l 335 875 b 315 897 318 875 314 881 l 317 907 b 344 929 319 922 329 929 m 615 929 b 635 907 631 929 638 922 l 633 897 b 606 875 629 882 621 875 l 597 875 b 578 897 579 875 574 879 l 579 907 b 607 929 583 924 589 929 m 110 493 b 443 729 136 639 265 729 b 697 492 622 729 721 638 l 649 215 b 317 -19 622 69 494 -19 b 61 218 139 -19 38 72 m 660 494 b 439 694 682 617 593 694 b 147 494 288 694 171 617 l 100 215 b 319 15 78 93 168 15 b 611 215 474 15 589 93 "},"÷":{"ha":836,"x_min":0,"x_max":0,"o":"m 483 765 b 507 738 506 765 511 760 l 506 732 b 474 704 503 714 492 704 l 467 704 b 444 732 446 704 440 710 l 446 738 b 478 765 450 760 457 765 m 744 469 b 754 458 751 469 754 465 l 751 443 b 738 432 750 436 746 432 l 107 432 b 99 443 99 432 96 436 l 101 458 b 113 469 101 465 106 469 m 385 200 b 407 172 406 200 411 193 l 407 167 b 374 139 403 144 396 139 l 368 139 b 346 167 347 139 342 144 l 346 172 b 379 200 350 190 361 200 "},"ø":{"ha":744,"x_min":0,"x_max":0,"o":"m 710 767 b 713 761 713 767 714 765 l 633 664 b 683 492 679 619 696 563 l 635 215 b 301 -19 611 71 481 -19 b 119 28 225 -19 165 -4 l 61 -43 b 50 -49 57 -47 54 -49 l 29 -49 b 28 -43 25 -49 24 -47 l 97 43 b 49 218 51 86 35 144 l 96 493 b 428 729 122 639 251 729 b 613 682 507 729 568 714 l 681 763 b 690 767 682 765 686 767 m 590 650 b 425 694 547 679 493 694 b 135 494 274 694 157 617 l 86 215 b 122 76 76 156 88 110 m 143 58 b 306 15 181 29 235 15 b 597 215 460 15 575 93 l 646 493 b 606 629 656 549 642 594 "},"ù":{"ha":756,"x_min":0,"x_max":0,"o":"m 396 988 b 417 989 403 994 410 994 l 629 835 b 628 821 633 831 633 826 l 624 817 b 608 815 619 813 615 813 l 389 967 b 389 981 382 969 382 974 m 747 710 b 756 700 754 710 757 707 l 650 101 b 585 25 640 58 629 43 b 331 -19 508 -4 424 -19 b 113 247 154 -19 81 69 l 192 700 b 204 710 194 707 199 710 l 222 710 b 231 700 229 710 232 707 l 150 249 b 339 15 124 93 186 15 b 572 56 424 15 501 29 b 614 108 596 65 610 83 l 718 700 b 731 710 719 707 724 710 "},"ú":{"ha":756,"x_min":0,"x_max":0,"o":"m 632 989 b 654 988 642 993 649 993 l 660 979 b 656 964 664 972 663 968 l 381 813 b 365 814 374 810 368 810 l 360 822 b 364 836 356 828 357 832 m 747 710 b 756 700 754 710 757 707 l 650 101 b 585 25 640 58 629 43 b 331 -19 508 -4 424 -19 b 113 247 154 -19 81 69 l 192 700 b 204 710 194 707 199 710 l 222 710 b 231 700 229 710 232 707 l 150 249 b 339 15 124 93 186 15 b 572 56 424 15 501 29 b 614 108 596 65 610 83 l 718 700 b 731 710 719 707 724 710 "},"û":{"ha":756,"x_min":0,"x_max":0,"o":"m 526 983 b 549 972 535 983 542 979 l 713 811 b 706 803 718 806 715 803 l 692 803 b 672 810 683 803 676 806 l 521 956 l 319 810 b 300 803 314 806 307 803 l 278 803 b 272 811 268 803 267 806 l 496 972 b 521 983 506 979 514 983 m 747 710 b 756 700 754 710 757 707 l 650 101 b 585 25 640 58 629 43 b 331 -19 508 -4 424 -19 b 113 247 154 -19 81 69 l 192 700 b 204 710 194 707 199 710 l 222 710 b 231 700 229 710 232 707 l 150 249 b 339 15 124 93 186 15 b 572 56 424 15 501 29 b 614 108 596 65 610 83 l 718 700 b 731 710 719 707 724 710 "},"ü":{"ha":756,"x_min":0,"x_max":0,"o":"m 388 929 b 406 907 406 929 410 925 l 404 897 b 378 875 400 879 396 875 l 369 875 b 350 897 353 875 349 881 l 351 907 b 379 929 354 922 364 929 m 650 929 b 669 907 665 929 672 922 l 668 897 b 640 875 664 882 656 875 l 632 875 b 613 897 614 875 608 879 l 614 907 b 642 929 618 924 624 929 m 747 710 b 756 700 754 710 757 707 l 650 101 b 585 25 640 58 629 43 b 331 -19 508 -4 424 -19 b 113 247 154 -19 81 69 l 192 700 b 204 710 194 707 199 710 l 222 710 b 231 700 229 710 232 707 l 150 249 b 339 15 124 93 186 15 b 572 56 424 15 501 29 b 614 108 596 65 610 83 l 718 700 b 731 710 719 707 724 710 "},"ý":{"ha":760,"x_min":0,"x_max":0,"o":"m 589 989 b 611 988 599 993 606 993 l 617 979 b 613 964 621 972 619 968 l 338 813 b 322 814 331 810 325 810 l 317 822 b 321 836 313 828 314 832 m 704 710 b 713 700 711 710 714 707 l 579 -57 b 240 -357 544 -257 431 -357 b 1 -194 115 -357 36 -303 b 10 -178 -1 -186 1 -181 l 22 -172 b 38 -176 29 -168 33 -169 b 246 -321 67 -269 124 -321 b 542 -58 411 -321 510 -233 l 558 38 b 289 -15 457 3 368 -15 b 71 253 113 -15 39 74 l 149 700 b 161 710 151 707 156 710 l 179 710 b 186 700 186 710 189 707 l 108 253 b 297 19 81 97 136 19 b 564 74 379 19 468 38 l 675 700 b 688 710 676 707 681 710 "},"þ":{"ha":743,"x_min":0,"x_max":0,"o":"m 208 1017 b 221 1028 210 1024 214 1028 l 239 1028 b 246 1017 244 1028 247 1024 l 183 661 b 435 718 263 699 346 718 b 671 442 625 718 704 626 l 636 244 b 324 -21 604 68 500 -21 b 75 46 236 -21 154 1 l 15 -296 b 3 -306 13 -303 8 -306 l -15 -306 b -24 -296 -22 -306 -25 -303 m 632 442 b 426 683 660 603 592 683 b 176 624 339 683 256 664 l 82 85 b 329 14 153 38 235 14 b 599 246 481 14 571 92 "},"ÿ":{"ha":760,"x_min":0,"x_max":0,"o":"m 344 929 b 363 907 363 929 367 925 l 361 897 b 335 875 357 879 353 875 l 326 875 b 307 897 310 875 306 881 l 308 907 b 336 929 311 922 321 929 m 607 929 b 626 907 622 929 629 922 l 625 897 b 597 875 621 882 613 875 l 589 875 b 569 897 568 875 565 879 l 571 907 b 599 929 575 924 581 929 m 704 710 b 713 700 711 710 714 707 l 579 -57 b 240 -357 544 -257 431 -357 b 1 -194 115 -357 36 -303 b 10 -178 -1 -186 1 -181 l 22 -172 b 38 -176 29 -168 33 -169 b 246 -321 67 -269 124 -321 b 542 -58 411 -321 510 -233 l 558 38 b 289 -15 457 3 368 -15 b 71 253 113 -15 39 74 l 149 700 b 161 710 151 707 156 710 l 179 710 b 186 700 186 710 189 707 l 108 253 b 297 19 81 97 136 19 b 564 74 379 19 468 38 l 675 700 b 688 710 676 707 681 710 "},"Ā":{"ha":868,"x_min":0,"x_max":0,"o":"m 738 1157 b 746 1146 744 1157 747 1153 l 743 1136 b 732 1126 743 1129 739 1126 l 400 1126 b 392 1136 393 1126 390 1129 l 393 1146 b 406 1157 396 1153 400 1157 m 788 11 b 776 0 788 4 783 0 l 763 0 b 744 10 751 0 746 3 l 668 344 l 190 344 l -3 10 b -25 0 -8 3 -15 0 l -42 0 b -49 11 -51 0 -53 4 l 515 982 b 533 993 519 989 526 993 l 550 993 b 564 983 560 993 564 990 m 540 914 b 538 951 539 924 538 936 l 535 951 b 521 914 528 931 524 918 l 210 379 l 663 379 "},"ā":{"ha":733,"x_min":0,"x_max":0,"o":"m 658 906 b 667 894 665 906 668 901 l 665 885 b 653 874 663 878 658 874 l 321 874 b 313 885 314 874 311 878 l 315 894 b 326 906 315 901 319 906 m 111 472 b 442 729 140 651 243 729 b 656 690 526 729 599 717 b 697 614 699 672 704 658 l 599 46 b 579 28 597 38 590 32 b 286 -19 489 -4 392 -19 b 74 265 110 -19 42 92 m 628 658 b 438 694 576 682 513 694 b 147 469 264 694 176 629 l 111 264 b 294 15 83 110 140 15 b 563 61 390 15 479 31 l 658 606 b 628 658 664 639 661 643 "},"Ă":{"ha":868,"x_min":0,"x_max":0,"o":"m 789 1221 b 557 1063 742 1115 664 1063 b 375 1221 447 1063 386 1115 b 382 1232 375 1228 378 1231 l 399 1236 b 408 1231 406 1236 408 1235 b 561 1094 415 1136 465 1094 b 758 1231 651 1094 718 1140 b 771 1238 763 1236 767 1239 l 786 1232 b 789 1221 792 1229 793 1225 m 788 11 b 776 0 788 4 783 0 l 763 0 b 744 10 751 0 746 3 l 668 344 l 190 344 l -3 10 b -25 0 -8 3 -15 0 l -42 0 b -49 11 -51 0 -53 4 l 515 982 b 533 993 519 989 526 993 l 550 993 b 564 983 560 993 564 990 m 540 914 b 538 951 539 924 538 936 l 535 951 b 521 914 528 931 524 918 l 210 379 l 663 379 "},"ă":{"ha":733,"x_min":0,"x_max":0,"o":"m 711 968 b 481 811 664 864 588 811 b 297 968 368 811 307 864 b 304 979 296 975 297 979 l 318 983 b 329 978 324 986 328 985 b 482 843 336 883 386 843 b 681 979 575 843 640 889 b 692 985 683 986 688 988 l 708 979 b 711 968 713 978 714 974 m 111 472 b 442 729 140 651 243 729 b 656 690 526 729 599 717 b 697 614 699 672 704 658 l 599 46 b 579 28 597 38 590 32 b 286 -19 489 -4 392 -19 b 74 265 110 -19 42 92 m 628 658 b 438 694 576 682 513 694 b 147 469 264 694 176 629 l 111 264 b 294 15 83 110 140 15 b 563 61 390 15 479 31 l 658 606 b 628 658 664 639 661 643 "},"Ą":{"ha":868,"x_min":0,"x_max":0,"o":"m 550 993 b 564 983 560 993 564 990 l 788 11 b 783 1 788 7 786 3 b 585 -268 644 -97 572 -203 b 642 -311 590 -300 604 -311 b 749 -265 679 -311 715 -296 b 757 -267 753 -261 756 -262 l 761 -285 b 757 -296 763 -286 761 -290 b 629 -344 717 -328 675 -344 b 547 -282 583 -344 557 -324 b 753 6 532 -204 607 -94 b 743 15 747 7 744 10 l 668 344 l 190 344 l -3 10 b -25 0 -8 3 -15 0 l -42 0 b -49 11 -51 0 -53 4 l 515 982 b 533 993 519 989 526 993 m 540 914 b 538 951 539 924 538 936 l 535 951 b 521 914 528 931 524 918 l 210 379 l 663 379 "},"ą":{"ha":735,"x_min":0,"x_max":0,"o":"m 111 472 b 442 729 140 651 243 729 b 656 690 526 729 599 717 b 697 614 699 672 704 658 l 599 46 b 592 35 594 39 593 36 b 375 -268 442 -81 363 -200 b 433 -311 382 -301 394 -311 b 540 -265 471 -311 507 -296 b 549 -267 544 -261 547 -262 l 553 -285 b 549 -296 554 -286 553 -290 b 421 -344 508 -328 465 -344 b 339 -282 374 -344 346 -324 b 532 14 324 -208 393 -97 b 286 -19 450 -8 368 -19 b 74 265 110 -19 42 92 m 628 658 b 438 694 576 682 513 694 b 147 469 264 694 176 629 l 111 264 b 294 15 83 110 140 15 b 563 61 390 15 479 31 l 658 606 b 628 658 664 639 661 643 "},"Ć":{"ha":878,"x_min":0,"x_max":0,"o":"m 738 1240 b 760 1239 747 1244 756 1244 l 765 1229 b 761 1214 771 1222 769 1218 l 486 1064 b 471 1065 479 1060 475 1061 l 465 1074 b 469 1086 461 1078 463 1082 m 160 668 b 585 1006 197 881 346 1006 b 904 761 796 1006 888 926 b 894 746 906 753 901 747 l 881 742 b 867 749 872 739 868 742 b 582 968 850 900 771 968 b 200 669 367 968 233 857 l 140 322 b 414 21 107 132 203 21 b 782 246 607 21 710 90 b 799 253 786 253 792 256 l 814 247 b 818 232 821 244 822 239 b 668 43 779 147 729 83 b 413 -19 607 1 522 -19 b 99 321 175 -19 61 110 "},"ć":{"ha":708,"x_min":0,"x_max":0,"o":"m 589 989 b 610 988 599 994 606 994 l 617 979 b 613 964 621 972 619 968 l 338 813 b 322 814 331 810 325 810 l 317 822 b 321 836 313 828 314 832 m 107 468 b 442 729 136 635 251 729 b 693 536 607 729 676 660 b 685 521 694 528 692 522 l 671 518 b 658 524 663 515 658 517 b 436 694 642 640 581 694 b 144 465 274 694 171 608 l 106 246 b 317 15 79 103 156 15 b 603 196 460 15 547 72 b 618 203 607 203 611 204 l 635 199 b 638 185 640 196 642 192 b 313 -19 575 49 467 -19 b 68 251 125 -19 39 83 "},"Ĉ":{"ha":878,"x_min":0,"x_max":0,"o":"m 633 1243 b 656 1232 640 1243 649 1239 l 821 1072 b 813 1063 824 1065 821 1063 l 799 1063 b 781 1069 790 1063 785 1065 l 629 1213 l 426 1069 b 407 1063 421 1065 414 1063 l 385 1063 b 381 1072 375 1063 374 1065 l 604 1232 b 628 1243 613 1239 621 1243 m 160 668 b 585 1006 197 881 346 1006 b 904 761 796 1006 888 926 b 894 746 906 753 901 747 l 881 742 b 867 749 872 739 868 742 b 582 968 850 900 771 968 b 200 669 367 968 233 857 l 140 322 b 414 21 107 132 203 21 b 782 246 607 21 710 90 b 799 253 786 253 792 256 l 814 247 b 818 232 821 244 822 239 b 668 43 779 147 729 83 b 413 -19 607 1 522 -19 b 99 321 175 -19 61 110 "},"ĉ":{"ha":708,"x_min":0,"x_max":0,"o":"m 235 803 b 229 811 225 803 224 806 l 453 972 b 478 983 463 979 471 983 l 483 983 b 504 972 490 983 497 979 l 669 811 b 663 803 675 806 672 803 l 649 803 b 629 810 640 803 633 806 l 478 956 l 276 810 b 257 803 271 806 264 803 m 693 536 b 685 521 694 528 692 522 l 671 518 b 658 524 663 515 658 517 b 436 694 642 640 581 694 b 144 465 274 694 171 608 l 106 246 b 317 15 79 103 156 15 b 603 196 460 15 547 72 b 618 203 607 203 611 204 l 635 199 b 638 185 640 196 642 192 b 313 -19 575 49 467 -19 b 68 251 125 -19 39 83 l 107 468 b 442 729 136 635 251 729 b 693 536 607 729 676 660 "},"Ċ":{"ha":878,"x_min":0,"x_max":0,"o":"m 621 1168 b 642 1144 638 1168 644 1160 l 639 1138 b 611 1114 638 1122 629 1114 l 606 1114 b 585 1138 588 1114 583 1119 l 586 1144 b 615 1168 590 1160 600 1168 m 160 668 b 585 1006 197 881 346 1006 b 904 761 796 1006 888 926 b 894 746 906 753 901 747 l 881 742 b 867 749 872 739 868 742 b 582 968 850 900 771 968 b 200 669 367 968 233 857 l 140 322 b 414 21 107 132 203 21 b 782 246 607 21 710 90 b 799 253 786 253 792 256 l 814 247 b 818 232 821 244 822 239 b 668 43 779 147 729 83 b 413 -19 607 1 522 -19 b 99 321 175 -19 61 110 "},"ċ":{"ha":708,"x_min":0,"x_max":0,"o":"m 472 918 b 492 893 488 918 494 910 l 490 888 b 463 863 489 869 481 863 l 457 863 b 436 888 436 863 432 867 l 438 893 b 467 918 440 910 450 918 m 107 468 b 442 729 136 635 251 729 b 693 536 607 729 676 660 b 685 521 694 528 692 522 l 671 518 b 658 524 663 515 658 517 b 436 694 642 640 581 694 b 144 465 274 694 171 608 l 106 246 b 317 15 79 103 156 15 b 603 196 460 15 547 72 b 618 203 607 203 611 204 l 635 199 b 638 185 640 196 642 192 b 313 -19 575 49 467 -19 b 68 251 125 -19 39 83 "},"Č":{"ha":878,"x_min":0,"x_max":0,"o":"m 844 1244 b 847 1233 854 1244 854 1240 l 626 1075 b 601 1064 617 1068 608 1064 l 596 1064 b 575 1075 589 1064 582 1068 l 410 1233 b 417 1244 404 1238 407 1244 l 436 1244 b 451 1238 442 1244 447 1242 l 601 1094 l 806 1238 b 826 1244 811 1242 818 1244 m 160 668 b 585 1006 197 881 346 1006 b 904 761 796 1006 888 926 b 894 746 906 753 901 747 l 881 742 b 867 749 872 739 868 742 b 582 968 850 900 771 968 b 200 669 367 968 233 857 l 140 322 b 414 21 107 132 203 21 b 782 246 607 21 710 90 b 799 253 786 253 792 256 l 814 247 b 818 232 821 244 822 239 b 668 43 779 147 729 83 b 413 -19 607 1 522 -19 b 99 321 175 -19 61 110 "},"č":{"ha":708,"x_min":0,"x_max":0,"o":"m 693 982 b 696 972 703 982 704 979 l 475 813 b 451 803 467 806 458 803 l 449 803 b 426 813 442 803 433 806 l 260 974 b 265 982 256 979 258 982 l 283 982 b 300 976 290 982 296 981 l 451 833 l 654 976 b 675 982 658 981 665 982 m 442 729 b 693 536 607 729 676 660 b 685 521 694 528 692 522 l 671 518 b 658 524 663 515 658 517 b 436 694 642 640 581 694 b 144 465 274 694 171 608 l 106 246 b 317 15 79 103 156 15 b 603 196 460 15 547 72 b 618 203 607 203 611 204 l 635 199 b 638 185 640 196 642 192 b 313 -19 575 49 467 -19 b 68 251 125 -19 39 83 l 107 468 b 442 729 136 635 251 729 "},"Ď":{"ha":892,"x_min":0,"x_max":0,"o":"m 788 1244 b 790 1233 794 1244 796 1240 l 569 1075 b 544 1064 560 1068 551 1064 l 538 1064 b 518 1075 531 1064 525 1068 l 353 1233 b 360 1244 347 1238 349 1244 l 378 1244 b 394 1238 385 1244 390 1242 l 543 1094 l 747 1238 b 769 1244 753 1242 760 1244 m 508 986 b 846 615 764 986 886 844 l 801 363 b 336 0 761 135 592 0 l 57 0 b 47 11 50 0 46 4 l 218 975 b 231 986 219 982 224 986 m 807 619 b 503 949 844 826 736 949 l 254 949 l 94 38 l 343 38 b 763 367 572 38 725 160 "},"ď":{"ha":764,"x_min":0,"x_max":0,"o":"m 132 464 b 440 729 163 640 265 729 b 693 672 533 729 617 710 l 756 1018 b 768 1028 756 1025 760 1028 l 785 1028 b 793 1018 790 1028 793 1025 l 631 96 b 563 19 624 51 611 38 b 332 -19 493 -7 417 -19 b 94 258 142 -19 63 74 m 876 718 b 864 707 874 711 869 707 l 853 707 b 844 717 846 707 843 710 l 953 1017 b 965 1028 954 1024 958 1028 l 979 1028 b 989 1017 989 1028 993 1024 m 688 635 b 439 694 614 675 532 694 b 169 461 288 694 197 617 l 132 257 b 340 15 106 96 175 15 b 546 51 414 15 482 28 b 593 104 583 67 588 71 "},"Đ":{"ha":903,"x_min":0,"x_max":0,"o":"m 522 986 b 860 615 778 986 900 844 l 815 363 b 349 0 775 135 606 0 l 71 0 b 61 11 64 0 60 4 l 143 478 l 25 478 b 17 488 17 478 14 481 l 18 500 b 32 510 21 507 25 510 l 150 510 l 232 975 b 244 986 233 982 238 986 m 821 619 b 517 949 858 826 750 949 l 268 949 l 190 510 l 474 510 b 482 500 481 510 483 507 l 479 488 b 468 478 478 481 475 478 l 185 478 l 107 38 l 357 38 b 776 367 586 38 739 160 "},"đ":{"ha":739,"x_min":0,"x_max":0,"o":"m 881 893 b 889 883 888 893 890 890 l 886 875 b 876 865 886 868 883 865 l 768 865 l 632 96 b 564 19 625 51 613 38 b 333 -19 494 -7 418 -19 b 96 258 143 -19 64 74 l 133 464 b 442 728 164 640 267 728 b 694 672 540 728 624 710 l 729 865 l 482 865 b 474 875 475 865 472 868 l 475 883 b 486 893 476 890 479 893 l 735 893 l 757 1018 b 769 1028 757 1025 761 1028 l 786 1028 b 794 1018 792 1028 794 1025 l 772 893 m 689 636 b 440 693 622 674 539 693 b 171 461 288 693 197 615 l 133 257 b 342 15 107 96 176 15 b 547 51 415 15 483 28 b 594 104 585 67 589 71 "},"Ē":{"ha":788,"x_min":0,"x_max":0,"o":"m 713 1157 b 721 1146 719 1157 722 1153 l 718 1136 b 708 1126 718 1129 715 1126 l 376 1126 b 367 1136 369 1126 365 1129 l 368 1146 b 381 1157 371 1153 375 1157 m 801 986 b 811 975 808 986 813 982 l 807 960 b 794 949 807 953 803 949 l 254 949 l 178 519 l 660 519 b 668 508 668 519 671 515 l 667 492 b 653 481 664 485 660 481 l 171 481 l 94 38 l 656 38 b 664 26 661 38 664 33 l 661 11 b 647 0 658 4 654 0 l 57 0 b 47 11 50 0 46 4 l 218 975 b 231 986 219 982 224 986 "},"ē":{"ha":717,"x_min":0,"x_max":0,"o":"m 308 874 b 300 885 301 874 299 878 l 301 894 b 313 906 303 901 306 906 l 644 906 b 654 894 651 906 654 901 l 651 885 b 640 874 650 878 647 874 m 447 729 b 694 493 636 729 732 642 b 379 307 664 369 558 307 b 121 335 286 307 200 317 l 104 247 b 311 14 78 99 149 14 b 593 154 444 14 526 64 b 611 158 600 161 606 163 l 622 151 b 622 136 626 147 626 143 b 306 -19 547 32 442 -19 b 68 251 118 -19 36 83 l 103 446 b 447 729 135 625 263 729 m 657 499 b 442 696 690 626 610 696 b 139 444 281 696 167 601 l 125 368 b 386 339 201 349 289 339 b 657 499 540 339 631 392 "},"Ĕ":{"ha":788,"x_min":0,"x_max":0,"o":"m 764 1221 b 532 1063 715 1111 644 1063 b 351 1221 421 1063 361 1115 b 358 1232 350 1226 351 1231 l 374 1236 b 383 1231 381 1236 383 1235 b 536 1094 390 1136 440 1094 b 735 1231 628 1094 694 1140 b 747 1238 739 1236 743 1239 l 761 1232 b 764 1221 767 1229 768 1225 m 801 986 b 811 975 808 986 813 982 l 807 960 b 794 949 807 953 803 949 l 254 949 l 178 519 l 660 519 b 668 508 668 519 671 515 l 667 492 b 653 481 664 485 660 481 l 171 481 l 94 38 l 656 38 b 664 26 661 38 664 33 l 661 11 b 647 0 658 4 654 0 l 57 0 b 47 11 50 0 46 4 l 218 975 b 231 986 219 982 224 986 "},"ĕ":{"ha":717,"x_min":0,"x_max":0,"o":"m 697 968 b 468 811 650 864 574 811 b 285 968 356 811 294 864 b 292 979 282 975 285 979 l 306 983 b 317 978 311 986 315 985 b 468 843 324 883 372 843 b 668 979 561 843 628 889 b 679 985 669 985 674 986 l 694 979 b 697 968 699 978 700 975 m 103 446 b 447 729 135 625 263 729 b 694 493 636 729 732 642 b 379 307 664 369 558 307 b 121 335 286 307 200 317 l 104 247 b 311 14 78 99 149 14 b 593 154 444 14 526 64 b 611 158 600 161 606 163 l 622 151 b 622 136 626 147 626 143 b 306 -19 547 32 442 -19 b 68 251 118 -19 36 83 m 657 499 b 442 696 690 626 610 696 b 139 444 281 696 167 601 l 125 368 b 386 339 201 349 289 339 b 657 499 540 339 631 392 "},"Ė":{"ha":788,"x_min":0,"x_max":0,"o":"m 551 1168 b 572 1144 568 1168 575 1160 l 571 1138 b 542 1114 568 1122 558 1114 l 536 1114 b 515 1138 518 1114 514 1119 l 518 1144 b 546 1168 521 1160 531 1168 m 801 986 b 811 975 808 986 813 982 l 807 960 b 794 949 807 953 803 949 l 254 949 l 178 519 l 660 519 b 668 508 668 519 671 515 l 667 492 b 653 481 664 485 660 481 l 171 481 l 94 38 l 656 38 b 664 26 661 38 664 33 l 661 11 b 647 0 658 4 654 0 l 57 0 b 47 11 50 0 46 4 l 218 975 b 231 986 219 982 224 986 "},"ė":{"ha":717,"x_min":0,"x_max":0,"o":"m 485 918 b 506 894 503 918 507 913 l 503 889 b 475 864 501 872 493 864 l 469 864 b 449 889 451 864 447 868 l 450 894 b 479 918 453 910 463 918 m 103 446 b 447 729 135 625 263 729 b 694 493 636 729 732 642 b 379 307 664 369 558 307 b 121 335 286 307 200 317 l 104 247 b 311 14 78 99 149 14 b 593 154 444 14 526 64 b 611 158 600 161 606 163 l 622 151 b 622 136 626 147 626 143 b 306 -19 547 32 442 -19 b 68 251 118 -19 36 83 m 657 499 b 442 696 690 626 610 696 b 139 444 281 696 167 601 l 125 368 b 386 339 201 349 289 339 b 657 499 540 339 631 392 "},"Ę":{"ha":788,"x_min":0,"x_max":0,"o":"m 801 986 b 811 975 808 986 813 982 l 807 960 b 794 949 807 953 803 949 l 254 949 l 178 519 l 660 519 b 668 508 668 519 671 515 l 667 492 b 653 481 664 485 660 481 l 171 481 l 94 38 l 656 38 b 664 26 661 38 664 33 l 661 11 b 657 6 660 10 658 7 l 656 1 b 451 -268 517 -94 439 -200 b 510 -311 457 -300 471 -311 b 617 -265 547 -311 583 -296 b 625 -267 619 -262 622 -262 l 629 -285 b 624 -296 631 -287 628 -292 b 497 -344 583 -328 542 -344 b 415 -282 450 -344 422 -324 b 617 0 400 -206 478 -93 l 57 0 b 47 11 50 0 46 4 l 218 975 b 231 986 219 982 224 986 "},"ę":{"ha":717,"x_min":0,"x_max":0,"o":"m 103 446 b 447 729 135 625 263 729 b 694 493 636 729 732 642 b 379 307 664 369 558 307 b 121 335 286 307 200 317 l 104 247 b 311 14 78 99 149 14 b 593 154 444 14 526 64 b 611 158 600 161 606 163 l 622 151 b 622 136 626 147 626 143 b 528 42 597 99 565 68 b 368 -126 460 -10 407 -65 b 319 -265 329 -187 313 -233 b 379 -311 325 -296 344 -311 b 483 -265 415 -311 450 -296 b 492 -267 488 -261 490 -262 l 496 -285 b 492 -296 497 -286 496 -290 b 363 -344 451 -328 408 -344 b 282 -281 314 -344 288 -324 b 449 3 269 -214 332 -99 b 306 -19 410 -12 363 -19 b 68 251 118 -19 36 83 m 386 339 b 657 499 540 339 631 392 b 442 696 690 626 610 696 b 139 444 281 696 167 601 l 125 368 b 386 339 201 349 289 339 "},"Ě":{"ha":788,"x_min":0,"x_max":0,"o":"m 775 1244 b 778 1233 785 1244 785 1240 l 558 1075 b 532 1064 549 1068 540 1064 l 526 1064 b 506 1075 519 1064 513 1068 l 340 1233 b 347 1244 335 1238 338 1244 l 367 1244 b 382 1238 372 1244 378 1242 l 532 1094 l 736 1238 b 758 1244 742 1242 749 1244 m 801 986 b 811 975 808 986 813 982 l 807 960 b 794 949 807 953 803 949 l 254 949 l 178 519 l 660 519 b 668 508 668 519 671 515 l 667 492 b 653 481 664 485 660 481 l 171 481 l 94 38 l 656 38 b 664 26 661 38 664 33 l 661 11 b 647 0 658 4 654 0 l 57 0 b 47 11 50 0 46 4 l 218 975 b 231 986 219 982 224 986 "},"ě":{"ha":717,"x_min":0,"x_max":0,"o":"m 706 983 b 710 974 715 983 717 981 l 489 814 b 464 803 479 807 471 803 l 461 803 b 439 814 454 803 447 807 l 272 975 b 279 983 268 981 271 983 l 297 983 b 313 978 304 983 308 982 l 465 833 l 667 978 b 688 983 672 982 679 983 m 447 729 b 694 493 636 729 732 642 b 379 307 664 369 558 307 b 121 335 286 307 200 317 l 104 247 b 311 14 78 99 149 14 b 593 154 444 14 526 64 b 611 158 600 161 606 163 l 622 151 b 622 136 626 147 626 143 b 306 -19 547 32 442 -19 b 68 251 118 -19 36 83 l 103 446 b 447 729 135 625 263 729 m 657 499 b 442 696 690 626 610 696 b 139 444 281 696 167 601 l 125 368 b 386 339 201 349 289 339 b 657 499 540 339 631 392 "},"Ĝ":{"ha":901,"x_min":0,"x_max":0,"o":"m 636 1257 b 660 1246 644 1257 653 1253 l 824 1086 b 815 1076 828 1079 825 1076 l 801 1076 b 783 1083 793 1076 788 1079 l 632 1226 l 429 1083 b 410 1076 424 1079 417 1076 l 389 1076 b 383 1086 379 1076 376 1079 l 607 1246 b 631 1257 615 1253 624 1257 m 856 488 b 865 475 865 488 868 483 l 836 315 b 414 -19 801 106 649 -19 b 100 322 174 -19 61 110 l 161 669 b 586 1006 199 882 347 1006 b 907 761 797 1006 890 924 b 897 746 908 753 904 747 l 882 742 b 868 749 874 739 869 742 b 583 968 850 900 772 968 b 201 669 367 968 235 857 l 142 322 b 417 18 108 129 200 18 b 797 318 628 18 765 131 l 819 449 l 504 449 b 496 460 497 449 494 453 l 499 476 b 511 488 500 483 504 488 "},"ĝ":{"ha":739,"x_min":0,"x_max":0,"o":"m 236 803 b 231 811 226 803 225 806 l 454 972 b 479 983 464 979 472 983 l 485 983 b 507 972 493 983 500 979 l 671 811 b 664 803 676 806 674 803 l 650 803 b 631 810 642 803 635 806 l 479 956 l 278 810 b 258 803 272 806 265 803 m 638 690 b 679 614 681 672 686 658 l 561 -58 b 225 -357 526 -257 414 -357 b -11 -194 101 -357 24 -303 b -4 -178 -14 -186 -11 -181 l 10 -172 b 24 -176 17 -168 21 -169 b 231 -321 53 -272 108 -321 b 524 -58 394 -321 492 -233 l 540 42 b 269 -15 456 4 365 -15 b 53 256 92 -15 24 85 l 89 458 b 424 729 119 639 231 729 b 638 690 508 729 581 717 m 640 606 b 610 658 646 639 643 643 b 419 694 553 682 490 694 b 126 456 253 694 156 615 l 90 254 b 276 19 63 97 125 19 b 547 79 371 19 461 39 "},"Ğ":{"ha":901,"x_min":0,"x_max":0,"o":"m 838 1235 b 606 1076 790 1129 713 1076 b 424 1235 493 1076 433 1129 b 431 1246 422 1240 424 1244 l 446 1250 b 457 1244 453 1250 456 1249 b 608 1108 464 1154 514 1108 b 807 1244 700 1108 767 1154 b 819 1251 811 1250 815 1253 l 833 1246 b 838 1235 839 1243 840 1239 m 856 488 b 865 475 865 488 868 483 l 836 315 b 414 -19 801 106 649 -19 b 100 322 174 -19 61 110 l 161 669 b 586 1006 199 882 347 1006 b 907 761 797 1006 890 924 b 897 746 908 753 904 747 l 882 742 b 868 749 874 739 869 742 b 583 968 850 900 772 968 b 201 669 367 968 235 857 l 142 322 b 417 18 108 129 200 18 b 797 318 628 18 765 131 l 819 449 l 504 449 b 496 460 497 449 494 453 l 499 476 b 511 488 500 483 504 488 "},"ğ":{"ha":739,"x_min":0,"x_max":0,"o":"m 686 967 b 457 810 639 863 563 810 b 274 967 344 810 283 863 b 281 979 271 974 274 978 l 294 982 b 306 976 301 985 304 983 b 457 842 313 882 361 842 b 657 978 550 842 617 888 b 668 983 658 983 663 985 l 683 979 b 686 967 688 978 689 974 m 89 458 b 424 729 119 639 231 729 b 638 690 508 729 581 717 b 679 614 681 672 686 658 l 561 -58 b 225 -357 526 -257 414 -357 b -11 -194 101 -357 24 -303 b -4 -178 -14 -186 -11 -181 l 10 -172 b 24 -176 17 -168 21 -169 b 231 -321 53 -272 108 -321 b 524 -58 394 -321 492 -233 l 540 42 b 269 -15 456 4 365 -15 b 53 256 92 -15 24 85 m 610 658 b 419 694 553 682 490 694 b 126 456 253 694 156 615 l 90 254 b 276 19 63 97 125 19 b 547 79 371 19 461 39 l 640 606 b 610 658 646 639 643 643 "},"Ġ":{"ha":901,"x_min":0,"x_max":0,"o":"m 624 1182 b 644 1158 640 1182 647 1174 l 643 1151 b 614 1128 640 1136 631 1128 l 608 1128 b 589 1151 590 1128 588 1133 l 590 1158 b 618 1182 593 1174 603 1182 m 856 488 b 865 475 865 488 868 483 l 836 315 b 414 -19 801 106 649 -19 b 100 322 174 -19 61 110 l 161 669 b 586 1006 199 882 347 1006 b 907 761 797 1006 890 924 b 897 746 908 753 904 747 l 882 742 b 868 749 874 739 869 742 b 583 968 850 900 772 968 b 201 669 367 968 235 857 l 142 322 b 417 18 108 129 200 18 b 797 318 628 18 765 131 l 819 449 l 504 449 b 496 460 497 449 494 453 l 499 476 b 511 488 500 483 504 488 "},"ġ":{"ha":739,"x_min":0,"x_max":0,"o":"m 474 918 b 494 893 492 918 496 911 l 492 888 b 464 863 490 871 482 863 l 458 863 b 438 888 440 863 436 867 l 439 893 b 468 918 442 910 451 918 m 89 458 b 424 729 119 639 231 729 b 638 690 508 729 581 717 b 679 614 681 672 686 658 l 561 -58 b 225 -357 526 -257 414 -357 b -11 -194 101 -357 24 -303 b -4 -178 -14 -186 -11 -181 l 10 -172 b 24 -176 17 -168 21 -169 b 231 -321 53 -272 108 -321 b 524 -58 394 -321 492 -233 l 540 42 b 269 -15 456 4 365 -15 b 53 256 92 -15 24 85 m 610 658 b 419 694 553 682 490 694 b 126 456 253 694 156 615 l 90 254 b 276 19 63 97 125 19 b 547 79 371 19 461 39 l 640 606 b 610 658 646 639 643 643 "},"Ģ":{"ha":901,"x_min":0,"x_max":0,"o":"m 856 488 b 865 475 865 488 868 483 l 836 315 b 414 -19 801 106 649 -19 b 100 322 174 -19 61 110 l 161 669 b 586 1006 199 882 347 1006 b 907 761 797 1006 890 924 b 897 746 908 753 904 747 l 882 742 b 868 749 874 739 869 742 b 583 968 850 900 772 968 b 201 669 367 968 235 857 l 142 322 b 417 18 108 129 200 18 b 797 318 628 18 765 131 l 819 449 l 504 449 b 496 460 497 449 494 453 l 499 476 b 511 488 500 483 504 488 m 338 -326 b 324 -337 333 -333 329 -337 l 311 -337 b 304 -328 303 -337 300 -335 l 400 -125 b 417 -114 403 -118 408 -114 l 432 -114 b 440 -125 442 -114 444 -118 "},"ģ":{"ha":739,"x_min":0,"x_max":0,"o":"m 514 1019 b 528 1029 517 1026 521 1029 l 539 1029 b 547 1019 547 1029 550 1026 l 435 825 b 421 814 431 818 426 814 l 407 814 b 397 826 396 814 393 818 m 89 458 b 424 729 119 639 231 729 b 638 690 508 729 581 717 b 679 614 681 672 686 658 l 561 -58 b 225 -357 526 -257 414 -357 b -11 -194 101 -357 24 -303 b -4 -178 -14 -186 -11 -181 l 10 -172 b 24 -176 17 -168 21 -169 b 231 -321 53 -272 108 -321 b 524 -58 394 -321 492 -233 l 540 42 b 269 -15 456 4 365 -15 b 53 256 92 -15 24 85 m 610 658 b 419 694 553 682 490 694 b 126 456 253 694 156 615 l 90 254 b 276 19 63 97 125 19 b 547 79 371 19 461 39 l 640 606 b 610 658 646 639 643 643 "},"Ĥ":{"ha":943,"x_min":0,"x_max":0,"o":"m 619 1243 b 642 1232 628 1243 635 1239 l 807 1072 b 799 1063 811 1065 808 1063 l 785 1063 b 767 1069 776 1063 771 1065 l 615 1213 l 413 1069 b 393 1063 407 1065 400 1063 l 371 1063 b 367 1072 361 1063 360 1065 l 590 1232 b 614 1243 599 1239 607 1243 m 914 986 b 924 975 921 986 925 982 l 753 11 b 740 0 751 4 747 0 l 721 0 b 713 11 714 0 711 4 l 794 481 l 171 481 l 89 11 b 75 0 86 4 82 0 l 57 0 b 47 11 50 0 46 4 l 218 975 b 231 986 219 982 224 986 l 249 986 b 258 975 256 986 260 982 l 178 519 l 803 519 l 883 975 b 894 986 883 982 888 986 "},"ĥ":{"ha":758,"x_min":0,"x_max":0,"o":"m 74 1106 b 56 1099 68 1101 63 1099 l 33 1099 b 28 1108 25 1099 24 1101 l 251 1268 b 276 1279 261 1275 269 1279 l 282 1279 b 303 1268 289 1279 296 1275 l 468 1108 b 461 1099 472 1101 471 1099 l 447 1099 b 428 1106 439 1099 432 1101 l 276 1251 m 461 729 b 679 463 638 729 710 640 l 600 10 b 588 0 599 3 594 0 l 571 0 b 563 10 563 0 560 3 l 642 461 b 453 694 668 617 606 694 b 185 638 357 694 268 675 l 75 10 b 63 0 72 3 68 0 l 44 0 b 36 10 38 0 35 3 l 214 1018 b 226 1028 215 1025 219 1028 l 244 1028 b 251 1018 250 1028 253 1025 l 192 675 b 461 729 276 711 367 729 "},"Ħ":{"ha":950,"x_min":0,"x_max":0,"o":"m 1000 803 b 1008 793 1007 803 1010 800 l 1007 785 b 996 774 1006 778 1003 774 l 894 774 l 761 11 b 747 0 758 4 754 0 l 728 0 b 719 11 721 0 718 4 l 801 481 l 178 481 l 96 11 b 83 0 94 4 90 0 l 64 0 b 56 11 56 0 53 4 l 189 774 l 90 774 b 83 785 83 774 82 778 l 83 793 b 96 803 85 800 89 803 l 194 803 l 225 975 b 238 986 226 982 231 986 l 257 986 b 267 975 264 986 267 982 l 235 803 l 858 803 l 890 975 b 901 986 890 982 894 986 l 921 986 b 931 975 928 986 932 982 l 900 803 m 231 774 l 186 519 l 810 519 l 854 774 "},"ħ":{"ha":758,"x_min":0,"x_max":0,"o":"m 186 675 b 456 729 271 711 361 729 b 674 463 632 729 704 640 l 594 10 b 582 0 593 3 589 0 l 565 0 b 557 10 557 0 554 3 l 636 461 b 447 694 663 617 600 694 b 179 638 351 694 263 675 l 69 10 b 57 0 67 3 63 0 l 39 0 b 31 10 32 0 29 3 l 183 872 l 86 872 b 79 883 81 872 78 876 l 79 892 b 92 901 82 899 86 901 l 188 901 l 208 1018 b 221 1028 210 1025 214 1028 l 239 1028 b 246 1018 244 1028 247 1025 l 225 901 l 468 901 b 476 892 475 901 478 899 l 476 883 b 464 872 474 876 469 872 l 221 872 "},"Ĩ":{"ha":279,"x_min":0,"x_max":0,"o":"m 483 1210 b 490 1201 490 1210 492 1207 b 368 1076 475 1118 433 1076 b 163 1181 268 1076 250 1181 b 71 1085 117 1181 81 1142 b 61 1076 69 1079 67 1076 l 47 1076 b 42 1085 43 1076 40 1079 b 165 1210 54 1163 99 1210 b 274 1157 200 1210 236 1192 b 371 1104 311 1122 343 1104 b 461 1201 419 1104 450 1144 b 471 1210 463 1207 465 1210 m 218 975 b 231 986 219 982 224 986 l 249 986 b 258 975 256 986 260 982 l 89 11 b 75 0 86 4 82 0 l 57 0 b 47 11 50 0 46 4 "},"ĩ":{"ha":240,"x_min":0,"x_max":0,"o":"m 364 968 b 371 960 371 968 372 965 b 274 839 357 879 325 839 b 143 938 197 839 208 938 b 67 846 103 938 78 907 b 60 838 67 840 64 838 l 47 838 b 40 846 40 838 39 840 b 142 968 54 928 88 968 b 276 868 225 968 208 868 b 343 960 311 868 333 899 b 353 968 346 965 349 968 m 182 710 b 190 700 189 710 192 707 l 69 10 b 57 0 67 3 63 0 l 39 0 b 31 10 32 0 29 3 l 151 700 b 164 710 154 707 158 710 "},"Ī":{"ha":279,"x_min":0,"x_max":0,"o":"m 436 1157 b 443 1146 443 1157 446 1153 l 442 1136 b 431 1126 440 1129 438 1126 l 99 1126 b 89 1136 92 1126 89 1129 l 92 1146 b 104 1157 93 1153 97 1157 m 218 975 b 231 986 219 982 224 986 l 249 986 b 258 975 256 986 260 982 l 89 11 b 75 0 86 4 82 0 l 57 0 b 47 11 50 0 46 4 "},"ī":{"ha":240,"x_min":0,"x_max":0,"o":"m 313 908 b 317 899 317 908 318 906 l 315 889 b 307 879 314 882 311 879 l 85 879 b 79 889 81 879 78 882 l 82 899 b 89 908 82 906 85 908 m 182 710 b 190 700 189 710 192 707 l 69 10 b 57 0 67 3 63 0 l 39 0 b 31 10 32 0 29 3 l 151 700 b 164 710 154 707 158 710 "},"Ĭ":{"ha":279,"x_min":0,"x_max":0,"o":"m 488 1221 b 256 1063 440 1115 363 1063 b 74 1221 143 1063 83 1115 b 81 1232 74 1228 76 1231 l 97 1236 b 107 1231 103 1236 106 1235 b 260 1094 114 1136 164 1094 b 457 1231 350 1094 417 1140 b 469 1238 461 1236 465 1239 l 485 1232 b 488 1221 489 1228 490 1225 m 218 975 b 231 986 219 982 224 986 l 249 986 b 258 975 256 986 260 982 l 89 11 b 75 0 86 4 82 0 l 57 0 b 47 11 50 0 46 4 "},"ĭ":{"ha":240,"x_min":0,"x_max":0,"o":"m 378 976 b 382 965 382 974 383 969 b 190 815 346 865 282 815 b 50 965 101 815 50 869 b 57 976 50 972 53 975 l 71 981 b 81 975 78 982 81 979 b 193 846 79 889 117 846 b 351 975 272 846 325 889 b 364 981 353 979 357 981 m 182 710 b 190 700 189 710 192 707 l 69 10 b 57 0 67 3 63 0 l 39 0 b 31 10 32 0 29 3 l 151 700 b 164 710 154 707 158 710 "},"Į":{"ha":281,"x_min":0,"x_max":0,"o":"m 151 -283 b 146 -294 151 -287 150 -290 b 18 -344 106 -328 63 -344 b -64 -282 -29 -344 -57 -324 b 74 6 -78 -210 -32 -114 b 68 15 69 6 68 8 l 239 975 b 251 986 240 982 244 986 l 269 986 b 279 975 276 986 281 982 l 110 11 b 104 1 108 7 106 4 b -26 -264 4 -112 -39 -201 b 29 -311 -19 -296 -1 -311 b 140 -267 71 -311 108 -296 b 149 -268 144 -262 147 -264 "},"į":{"ha":240,"x_min":0,"x_max":0,"o":"m 210 897 b 189 922 192 897 185 901 l 189 928 b 219 954 193 946 203 954 l 225 954 b 246 928 243 954 250 946 l 246 922 b 217 897 242 901 235 897 m 92 -278 b 89 -289 96 -282 94 -285 b -11 -342 61 -324 28 -342 b -97 -250 -74 -342 -103 -311 b 42 3 -90 -185 -44 -100 b 38 10 39 4 38 7 l 158 700 b 171 710 161 707 165 710 l 189 710 b 197 700 196 710 199 707 l 76 10 b 71 3 74 6 72 3 l 46 -29 b -39 -162 13 -72 -11 -104 b -62 -240 -53 -192 -61 -217 b -1 -311 -68 -287 -47 -311 b 78 -268 29 -311 56 -297 b 86 -268 79 -267 82 -267 "},"İ":{"ha":279,"x_min":0,"x_max":0,"o":"m 274 1168 b 294 1144 292 1168 299 1160 l 293 1138 b 264 1114 290 1122 281 1114 l 258 1114 b 239 1138 240 1114 238 1119 l 240 1144 b 268 1168 244 1160 253 1168 m 218 975 b 231 986 219 982 224 986 l 249 986 b 258 975 256 986 260 982 l 89 11 b 75 0 86 4 82 0 l 57 0 b 47 11 50 0 46 4 "},"ı":{"ha":240,"x_min":0,"x_max":0,"o":"m 182 710 b 190 700 189 710 192 707 l 69 10 b 57 0 67 3 63 0 l 39 0 b 31 10 32 0 29 3 l 151 700 b 164 710 154 707 158 710 "},"Ĳ":{"ha":1067,"x_min":0,"x_max":0,"o":"m 218 975 b 231 986 219 982 224 986 l 249 986 b 258 975 256 986 260 982 l 89 11 b 75 0 86 4 82 0 l 57 0 b 47 11 50 0 46 4 m 1044 986 b 1054 975 1054 986 1057 982 l 933 290 b 560 -21 900 94 765 -21 b 288 263 376 -21 286 74 b 296 276 286 269 289 274 l 314 283 b 328 275 324 286 328 283 b 564 18 326 107 396 18 b 893 296 743 18 861 124 l 1014 975 b 1025 986 1014 982 1018 986 "},"ĳ":{"ha":581,"x_min":0,"x_max":0,"o":"m 218 954 b 239 928 236 954 243 946 l 239 922 b 210 897 235 901 228 897 l 203 897 b 182 922 185 897 178 901 l 182 928 b 213 954 186 946 196 954 m 560 954 b 581 928 578 954 585 946 l 581 922 b 550 897 576 906 567 897 l 544 897 b 524 922 524 897 519 901 l 524 928 b 553 954 528 946 538 954 m 182 710 b 190 700 189 710 192 707 l 69 10 b 57 0 67 3 63 0 l 39 0 b 31 10 32 0 29 3 l 151 700 b 164 710 154 707 158 710 m 522 710 b 531 700 529 710 532 707 l 404 -14 b 86 -319 367 -221 282 -319 b 78 -308 79 -319 76 -315 l 81 -293 b 93 -283 82 -286 86 -283 b 367 -14 264 -283 335 -197 l 493 700 b 506 710 494 707 499 710 "},"Ĵ":{"ha":783,"x_min":0,"x_max":0,"o":"m 800 1243 b 822 1232 808 1243 815 1239 l 988 1072 b 979 1063 990 1065 988 1063 l 965 1063 b 947 1069 957 1063 951 1065 l 796 1213 l 593 1069 b 574 1063 588 1065 581 1063 l 551 1063 b 547 1072 542 1063 540 1065 l 771 1232 b 794 1243 779 1239 788 1243 m 763 986 b 772 975 772 986 775 982 l 651 290 b 278 -21 618 94 483 -21 b 6 263 94 -21 4 74 b 14 276 4 269 7 274 l 32 283 b 46 275 42 286 46 283 b 282 18 44 107 114 18 b 611 296 461 18 579 124 l 732 975 b 743 986 732 982 736 986 "},"ĵ":{"ha":240,"x_min":0,"x_max":0,"o":"m 219 978 b 238 967 226 978 232 974 l 360 808 b 353 800 365 803 363 800 l 340 800 b 322 807 331 800 325 803 l 214 950 l 51 807 b 32 800 46 803 39 800 l 13 800 b 10 808 3 800 3 803 l 190 967 b 214 978 199 974 207 978 m 181 710 b 189 700 188 710 190 707 l 63 -14 b -257 -319 25 -221 -61 -319 b -265 -308 -262 -319 -265 -315 l -262 -293 b -249 -283 -260 -286 -256 -283 b 25 -14 -78 -283 -8 -197 l 150 700 b 164 710 153 707 157 710 "},"Ķ":{"ha":824,"x_min":0,"x_max":0,"o":"m 724 13 b 715 0 728 4 725 0 l 700 0 b 681 10 690 0 683 3 l 572 342 b 376 481 538 442 493 481 l 171 481 l 89 11 b 75 0 86 4 82 0 l 57 0 b 47 11 50 0 46 4 l 218 975 b 231 986 219 982 224 986 l 249 986 b 258 975 256 986 260 982 l 178 519 l 375 519 b 414 518 393 519 406 519 l 832 976 b 856 986 838 983 846 986 l 876 986 b 881 974 886 986 888 982 l 454 508 b 610 360 539 492 582 444 m 283 -326 b 268 -337 279 -333 275 -337 l 257 -337 b 250 -328 250 -337 247 -335 l 346 -125 b 361 -114 349 -118 354 -114 l 378 -114 b 385 -125 388 -114 389 -118 "},"ķ":{"ha":683,"x_min":0,"x_max":0,"o":"m 581 11 b 572 0 582 4 579 0 l 556 0 b 540 8 546 0 542 3 l 463 253 b 326 350 440 324 404 350 l 128 350 l 69 11 b 56 0 67 4 63 0 l 39 0 b 31 11 32 0 29 4 l 208 1017 b 221 1028 210 1024 214 1028 l 238 1028 b 246 1017 244 1028 247 1024 l 135 383 l 326 383 l 340 383 l 647 701 b 672 710 654 707 663 710 l 686 710 b 692 697 696 710 699 706 l 382 376 b 499 268 444 367 476 333 m 213 -304 b 196 -315 210 -311 204 -315 l 185 -315 b 178 -306 178 -315 176 -312 l 269 -87 b 285 -76 272 -81 278 -76 l 301 -76 b 308 -87 311 -76 314 -81 "},"ĸ":{"ha":626,"x_min":0,"x_max":0,"o":"m 525 14 b 515 0 529 4 526 0 l 500 0 b 482 10 490 0 485 3 l 288 386 l 108 228 l 68 11 b 53 0 65 4 60 0 l 38 0 b 29 11 29 0 26 4 l 163 699 b 176 710 165 706 169 710 l 193 710 b 200 699 200 710 203 706 l 122 283 l 597 701 b 625 710 604 707 614 710 l 642 710 b 644 697 654 710 654 706 l 318 413 "},"Ĺ":{"ha":703,"x_min":0,"x_max":0,"o":"m 393 1240 b 414 1239 403 1244 410 1244 l 419 1229 b 415 1214 425 1222 424 1218 l 142 1064 b 126 1065 135 1060 129 1061 l 121 1074 b 124 1086 117 1078 118 1082 m 249 986 b 258 975 256 986 260 982 l 94 38 l 622 38 b 631 26 628 38 631 33 l 628 11 b 614 0 625 4 621 0 l 57 0 b 47 11 50 0 46 4 l 218 975 b 231 986 219 982 224 986 "},"ĺ":{"ha":250,"x_min":0,"x_max":0,"o":"m 353 1221 b 371 1217 360 1225 365 1224 l 378 1207 b 372 1192 381 1200 379 1194 l 150 1081 b 135 1082 143 1078 138 1078 l 131 1090 b 136 1104 129 1097 131 1101 m 74 10 b 61 0 72 3 68 0 l 44 0 b 36 10 38 0 35 3 l 214 1018 b 226 1028 214 1025 218 1028 l 243 1028 b 251 1018 250 1028 253 1025 "},"Ļ":{"ha":703,"x_min":0,"x_max":0,"o":"m 249 986 b 258 975 256 986 260 982 l 94 38 l 622 38 b 631 26 628 38 631 33 l 628 11 b 614 0 625 4 621 0 l 57 0 b 47 11 50 0 46 4 l 218 975 b 231 986 219 982 224 986 m 238 -326 b 224 -337 233 -333 229 -337 l 211 -337 b 204 -328 203 -337 200 -335 l 300 -125 b 317 -114 303 -118 308 -114 l 332 -114 b 340 -125 342 -114 344 -118 "},"ļ":{"ha":250,"x_min":0,"x_max":0,"o":"m 76 10 b 64 0 75 3 71 0 l 47 0 b 39 10 40 0 38 3 l 217 1018 b 229 1028 217 1025 221 1028 l 246 1028 b 254 1018 253 1028 256 1025 m -29 -308 b -46 -321 -33 -317 -39 -321 l -54 -321 b -61 -310 -61 -321 -64 -317 l 33 -78 b 49 -67 36 -71 42 -67 l 63 -67 b 71 -78 72 -67 75 -71 "},"Ľ":{"ha":703,"x_min":0,"x_max":0,"o":"m 249 986 b 258 975 256 986 260 982 l 94 38 l 622 38 b 631 26 628 38 631 33 l 628 11 b 614 0 625 4 621 0 l 57 0 b 47 11 50 0 46 4 l 218 975 b 231 986 219 982 224 986 m 538 692 b 524 681 535 685 531 681 l 513 681 b 504 690 506 681 503 683 l 617 975 b 632 986 618 982 624 986 l 647 986 b 656 975 657 986 660 982 "},"ľ":{"ha":260,"x_min":0,"x_max":0,"o":"m 74 10 b 61 0 72 3 68 0 l 44 0 b 36 10 38 0 35 3 l 214 1018 b 226 1028 214 1025 218 1028 l 243 1028 b 251 1018 250 1028 253 1025 m 326 760 b 311 749 324 753 318 749 l 301 749 b 296 760 294 749 293 753 l 383 1017 b 399 1028 385 1024 390 1028 l 413 1028 b 421 1017 422 1028 425 1024 "},"Ŀ":{"ha":703,"x_min":0,"x_max":0,"o":"m 249 986 b 258 975 256 986 260 982 l 94 38 l 622 38 b 631 26 628 38 631 33 l 628 11 b 614 0 625 4 621 0 l 57 0 b 47 11 50 0 46 4 l 218 975 b 231 986 219 982 224 986 m 444 513 b 467 486 465 513 471 507 l 465 479 b 432 451 461 461 450 451 l 426 451 b 404 479 404 451 399 457 l 406 486 b 439 513 410 504 421 513 "},"ŀ":{"ha":353,"x_min":0,"x_max":0,"o":"m 74 10 b 61 0 72 3 68 0 l 44 0 b 36 10 38 0 35 3 l 214 1018 b 226 1028 214 1025 218 1028 l 243 1028 b 251 1018 250 1028 253 1025 m 331 549 b 353 522 351 549 357 543 l 350 515 b 318 488 347 497 336 488 l 311 488 b 290 515 290 488 285 493 l 292 522 b 325 549 296 543 303 549 "},"Ł":{"ha":729,"x_min":0,"x_max":0,"o":"m 651 38 b 660 26 657 38 660 33 l 657 11 b 643 0 654 4 650 0 l 86 0 b 76 11 79 0 75 4 l 150 425 l 3 358 b -8 363 -3 357 -7 358 l -12 376 b -7 389 -15 383 -14 388 l 156 464 l 247 975 b 260 986 249 982 253 986 l 278 986 b 288 975 285 986 289 982 l 201 482 l 547 639 b 561 635 554 642 558 640 l 564 622 b 558 610 567 617 565 613 l 194 444 l 122 38 "},"ł":{"ha":336,"x_min":0,"x_max":0,"o":"m 356 606 b 347 593 357 601 354 597 l 196 511 l 108 10 b 96 0 107 3 103 0 l 79 0 b 71 10 72 0 69 3 l 156 489 l 28 421 b 18 424 22 418 19 419 l 11 435 b 18 447 11 442 14 446 l 161 525 l 249 1018 b 261 1028 249 1025 253 1028 l 278 1028 b 286 1018 285 1028 288 1025 l 203 546 l 338 618 b 349 615 343 622 347 621 "},"Ń":{"ha":954,"x_min":0,"x_max":0,"o":"m 729 1240 b 750 1239 739 1244 746 1244 l 756 1229 b 751 1214 761 1222 760 1218 l 478 1064 b 463 1065 471 1060 465 1061 l 457 1074 b 460 1086 453 1078 454 1082 m 924 986 b 933 975 931 986 935 982 l 764 11 b 750 0 761 4 757 0 l 732 0 b 719 8 728 0 724 3 l 329 753 b 289 840 319 771 307 800 b 247 922 271 879 257 907 l 244 922 b 228 813 240 900 235 864 b 211 704 221 761 215 725 l 89 11 b 75 0 86 4 82 0 l 57 0 b 47 11 50 0 46 4 l 218 975 b 231 986 219 982 224 986 l 244 986 b 258 979 251 986 256 983 l 639 256 b 693 150 653 229 671 194 b 735 65 715 104 729 76 l 738 65 b 756 182 742 89 747 128 b 775 308 763 236 769 279 l 893 976 b 906 986 894 983 899 986 "},"ń":{"ha":754,"x_min":0,"x_max":0,"o":"m 582 990 b 603 989 592 994 599 994 l 610 979 b 604 965 615 974 614 969 l 331 814 b 315 815 324 813 319 813 l 310 824 b 314 838 306 829 307 833 m 197 685 b 451 729 276 714 361 729 b 669 463 628 729 701 640 l 590 10 b 578 0 589 3 585 0 l 561 0 b 553 10 553 0 550 3 l 632 461 b 443 694 658 617 596 694 b 210 653 356 694 278 681 b 168 603 186 643 172 626 l 65 10 b 53 0 63 3 58 0 l 35 0 b 26 10 28 0 25 3 l 132 610 b 197 685 142 653 153 667 "},"Ņ":{"ha":954,"x_min":0,"x_max":0,"o":"m 924 986 b 933 975 931 986 935 982 l 764 11 b 750 0 761 4 757 0 l 732 0 b 719 8 728 0 724 3 l 329 753 b 289 840 319 771 307 800 b 247 922 271 879 257 907 l 244 922 b 228 813 240 900 235 864 b 211 704 221 761 215 725 l 89 11 b 75 0 86 4 82 0 l 57 0 b 47 11 50 0 46 4 l 218 975 b 231 986 219 982 224 986 l 244 986 b 258 979 251 986 256 983 l 639 256 b 693 150 653 229 671 194 b 735 65 715 104 729 76 l 738 65 b 756 182 742 89 747 128 b 775 308 763 236 769 279 l 893 976 b 906 986 894 983 899 986 m 318 -326 b 303 -337 314 -333 310 -337 l 292 -337 b 283 -328 285 -337 282 -335 l 381 -125 b 396 -114 382 -118 388 -114 l 413 -114 b 419 -125 422 -114 424 -118 "},"ņ":{"ha":754,"x_min":0,"x_max":0,"o":"m 197 685 b 451 729 276 714 361 729 b 669 463 628 729 701 640 l 590 10 b 578 0 589 3 585 0 l 561 0 b 553 10 553 0 550 3 l 632 461 b 443 694 658 617 596 694 b 210 653 356 694 278 681 b 168 603 186 643 172 626 l 65 10 b 53 0 63 3 58 0 l 35 0 b 26 10 28 0 25 3 l 132 610 b 197 685 142 653 153 667 m 257 -289 b 243 -300 254 -296 250 -300 l 232 -300 b 224 -290 225 -300 222 -297 l 324 -65 b 338 -54 325 -58 331 -54 l 353 -54 b 361 -65 363 -54 365 -58 "},"Ň":{"ha":954,"x_min":0,"x_max":0,"o":"m 836 1244 b 839 1233 843 1244 844 1240 l 618 1075 b 593 1064 608 1068 600 1064 l 586 1064 b 565 1075 579 1064 572 1068 l 401 1233 b 408 1244 396 1238 397 1244 l 426 1244 b 443 1238 432 1244 438 1242 l 592 1094 l 796 1238 b 818 1244 801 1242 808 1244 m 924 986 b 933 975 931 986 935 982 l 764 11 b 750 0 761 4 757 0 l 732 0 b 719 8 728 0 724 3 l 329 753 b 289 840 319 771 307 800 b 247 922 271 879 257 907 l 244 922 b 228 813 240 900 235 864 b 211 704 221 761 215 725 l 89 11 b 75 0 86 4 82 0 l 57 0 b 47 11 50 0 46 4 l 218 975 b 231 986 219 982 224 986 l 244 986 b 258 979 251 986 256 983 l 639 256 b 693 150 653 229 671 194 b 735 65 715 104 729 76 l 738 65 b 756 182 742 89 747 128 b 775 308 763 236 769 279 l 893 976 b 906 986 894 983 899 986 "},"ň":{"ha":754,"x_min":0,"x_max":0,"o":"m 686 983 b 689 974 696 983 697 981 l 468 814 b 444 803 458 807 451 803 l 440 803 b 419 814 433 803 426 807 l 253 975 b 258 983 249 981 251 983 l 276 983 b 293 978 283 983 289 982 l 444 833 l 646 978 b 668 983 651 982 658 983 m 451 729 b 669 463 628 729 701 640 l 590 10 b 578 0 589 3 585 0 l 561 0 b 553 10 553 0 550 3 l 632 461 b 443 694 658 617 596 694 b 210 653 356 694 278 681 b 168 603 186 643 172 626 l 65 10 b 53 0 63 3 58 0 l 35 0 b 26 10 28 0 25 3 l 132 610 b 197 685 142 653 153 667 b 451 729 276 714 361 729 "},"ŉ":{"ha":754,"x_min":0,"x_max":0,"o":"m 88 758 b 74 749 83 751 79 749 l 61 749 b 56 760 54 749 53 753 l 201 1018 b 215 1028 206 1025 210 1028 l 232 1028 b 240 1017 243 1028 246 1024 m 197 685 b 451 729 276 714 361 729 b 669 463 628 729 701 640 l 590 10 b 578 0 589 3 585 0 l 561 0 b 553 10 553 0 550 3 l 632 461 b 443 694 658 617 596 694 b 210 653 356 694 278 681 b 168 603 186 643 172 626 l 65 10 b 53 0 63 3 58 0 l 35 0 b 26 10 28 0 25 3 l 132 610 b 197 685 142 653 153 667 "},"Ŋ":{"ha":956,"x_min":0,"x_max":0,"o":"m 926 986 b 936 975 933 986 938 982 l 760 -19 b 403 -319 728 -207 596 -319 b 394 -308 396 -319 393 -315 l 397 -293 b 410 -283 399 -286 403 -283 b 721 -18 576 -283 689 -185 l 724 4 l 331 753 b 290 840 321 771 308 800 b 249 922 272 879 258 907 l 246 922 b 235 846 244 918 242 893 b 217 733 228 797 221 760 l 89 11 b 75 0 86 4 82 0 l 57 0 b 47 11 50 0 46 4 l 218 975 b 231 986 219 982 224 986 l 247 986 b 260 979 256 986 260 983 l 640 253 b 692 153 653 229 671 196 b 736 63 713 110 726 79 l 739 63 b 757 179 743 85 749 124 b 776 308 764 235 771 278 l 896 976 b 908 986 897 983 901 986 "},"ŋ":{"ha":754,"x_min":0,"x_max":0,"o":"m 197 685 b 451 729 276 714 361 729 b 669 463 628 729 701 640 l 583 -21 b 229 -319 551 -208 422 -319 b 222 -310 224 -319 221 -317 l 224 -294 b 236 -283 225 -287 229 -283 b 547 -19 403 -283 515 -186 l 632 461 b 443 694 658 617 596 694 b 210 653 356 694 278 681 b 168 603 186 643 172 626 l 65 10 b 53 0 63 3 58 0 l 35 0 b 26 10 28 0 25 3 l 132 610 b 197 685 142 653 153 667 "},"Ō":{"ha":918,"x_min":0,"x_max":0,"o":"m 789 1171 b 797 1160 796 1171 799 1167 l 794 1150 b 783 1140 794 1143 790 1140 l 453 1140 b 443 1150 446 1140 442 1143 l 444 1160 b 457 1171 447 1167 451 1171 m 163 671 b 590 1006 200 883 351 1006 b 901 661 828 1006 940 874 l 840 314 b 417 -19 803 103 654 -19 b 101 325 176 -19 63 113 m 861 665 b 586 968 894 856 797 968 b 204 665 374 968 238 858 l 143 321 b 419 18 110 131 207 18 b 800 321 629 18 767 131 "},"ō":{"ha":744,"x_min":0,"x_max":0,"o":"m 304 872 b 296 883 297 872 294 876 l 297 893 b 308 904 299 900 301 904 l 640 904 b 650 893 647 904 650 900 l 647 883 b 636 872 646 876 643 872 m 443 729 b 697 492 622 729 721 638 l 649 215 b 317 -19 622 69 494 -19 b 61 218 139 -19 38 72 l 110 493 b 443 729 136 639 265 729 m 660 494 b 439 694 682 617 593 694 b 147 494 288 694 171 617 l 100 215 b 319 15 78 93 168 15 b 611 215 474 15 589 93 "},"Ŏ":{"ha":918,"x_min":0,"x_max":0,"o":"m 840 1235 b 608 1076 792 1125 721 1076 b 428 1235 497 1076 438 1129 b 435 1246 426 1240 428 1244 l 450 1250 b 460 1244 457 1250 460 1249 b 613 1108 467 1150 517 1108 b 811 1244 704 1108 771 1154 b 824 1251 814 1250 818 1253 l 838 1246 b 840 1235 843 1243 844 1239 m 163 671 b 590 1006 200 883 351 1006 b 901 661 828 1006 940 874 l 840 314 b 417 -19 803 103 654 -19 b 101 325 176 -19 63 113 m 861 665 b 586 968 894 856 797 968 b 204 665 374 968 238 858 l 143 321 b 419 18 110 131 207 18 b 800 321 629 18 767 131 "},"ŏ":{"ha":744,"x_min":0,"x_max":0,"o":"m 693 967 b 464 810 646 863 569 810 b 281 967 351 810 290 863 b 288 979 278 974 281 978 l 301 982 b 313 976 308 985 311 983 b 464 842 319 882 368 842 b 664 978 557 842 624 888 b 675 983 665 983 669 985 l 690 979 b 693 967 694 978 696 974 m 110 493 b 443 729 136 639 265 729 b 697 492 622 729 721 638 l 649 215 b 317 -19 622 69 494 -19 b 61 218 139 -19 38 72 m 660 494 b 439 694 682 617 593 694 b 147 494 288 694 171 617 l 100 215 b 319 15 78 93 168 15 b 611 215 474 15 589 93 "},"Ő":{"ha":918,"x_min":0,"x_max":0,"o":"m 604 1250 b 622 1258 610 1257 615 1260 l 638 1254 b 640 1242 646 1253 647 1249 l 451 1078 b 436 1074 444 1072 440 1071 l 426 1076 b 425 1089 419 1079 419 1083 m 849 1250 b 867 1258 854 1257 860 1260 l 883 1254 b 885 1242 892 1251 892 1247 l 694 1078 b 679 1072 689 1072 683 1071 l 669 1076 b 668 1088 661 1078 661 1082 m 163 671 b 590 1006 200 883 351 1006 b 901 661 828 1006 940 874 l 840 314 b 417 -19 803 103 654 -19 b 101 325 176 -19 63 113 m 861 665 b 586 968 894 856 797 968 b 204 665 374 968 238 858 l 143 321 b 419 18 110 131 207 18 b 800 321 629 18 767 131 "},"ő":{"ha":744,"x_min":0,"x_max":0,"o":"m 278 806 b 276 817 269 807 269 811 l 456 979 b 474 986 461 986 467 988 l 489 983 b 492 971 497 982 499 978 l 303 807 b 288 801 297 801 292 800 m 736 981 b 739 968 744 979 746 975 l 543 808 b 528 804 538 803 532 801 l 518 807 b 517 818 513 810 513 814 l 701 976 b 721 983 708 983 714 985 m 443 729 b 697 492 622 729 721 638 l 649 215 b 317 -19 622 69 494 -19 b 61 218 139 -19 38 72 l 110 493 b 443 729 136 639 265 729 m 660 494 b 439 694 682 617 593 694 b 147 494 288 694 171 617 l 100 215 b 319 15 78 93 168 15 b 611 215 474 15 589 93 "},"Œ":{"ha":1156,"x_min":0,"x_max":0,"o":"m 1053 38 b 1063 26 1060 38 1063 33 l 1060 11 b 1046 0 1057 4 1053 0 l 569 0 b 413 -21 518 -14 467 -21 b 101 325 174 -21 63 110 l 164 671 b 594 1007 201 883 354 1007 b 743 986 646 1007 694 1000 l 1200 986 b 1210 975 1207 986 1210 982 l 1206 960 b 1193 949 1204 953 1200 949 l 764 949 l 689 518 l 1058 518 b 1067 507 1065 518 1068 514 l 1064 490 b 1051 479 1063 483 1058 479 l 681 479 l 604 38 m 143 321 b 419 17 110 131 207 17 b 563 36 469 17 517 24 l 724 949 b 586 969 679 963 633 969 b 204 665 374 969 238 856 "},"œ":{"ha":1114,"x_min":0,"x_max":0,"o":"m 613 553 b 876 729 665 671 753 729 b 1085 499 1042 729 1119 647 b 807 307 1056 375 957 307 b 589 336 735 307 663 317 l 574 247 b 742 14 547 104 599 14 b 985 149 858 14 925 58 b 1000 154 992 156 996 158 l 1014 146 b 1014 131 1018 143 1018 138 b 736 -19 950 31 857 -19 b 539 147 614 -19 549 36 b 278 -19 488 43 393 -19 b 65 217 126 -19 42 72 l 114 496 b 407 729 138 640 256 729 b 613 553 533 729 608 665 m 1047 499 b 871 696 1079 626 1014 696 b 608 444 731 696 636 604 l 596 369 b 813 339 664 349 736 339 b 1047 499 943 339 1021 392 m 579 474 b 403 694 603 613 535 694 b 153 496 275 694 174 617 l 103 215 b 283 15 81 93 156 15 b 539 246 413 15 513 107 "},"Ŕ":{"ha":882,"x_min":0,"x_max":0,"o":"m 683 1240 b 704 1239 693 1244 700 1244 l 711 1229 b 707 1214 717 1222 715 1218 l 432 1064 b 417 1065 425 1060 421 1061 l 411 1074 b 415 1086 407 1078 408 1082 m 632 986 b 858 710 804 986 888 883 b 556 449 829 549 717 456 b 663 324 604 429 640 388 l 765 13 b 756 0 769 4 765 0 l 739 0 b 719 10 729 0 722 3 l 622 306 b 422 444 590 406 540 444 l 165 444 l 89 11 b 75 0 86 4 82 0 l 57 0 b 47 11 50 0 46 4 l 218 975 b 231 986 219 982 224 986 m 818 714 b 622 949 844 864 774 949 l 254 949 l 171 483 l 540 483 b 818 714 690 483 792 565 "},"ŕ":{"ha":463,"x_min":0,"x_max":0,"o":"m 485 989 b 506 988 494 994 501 994 l 513 979 b 508 964 517 972 515 968 l 233 813 b 218 814 226 810 221 810 l 213 822 b 217 836 208 828 210 832 m 450 729 l 492 729 b 501 719 499 729 501 726 l 499 706 b 486 694 497 699 493 694 l 443 694 b 211 654 358 694 281 681 b 168 601 188 644 172 626 l 65 10 b 53 0 63 3 58 0 l 35 0 b 26 10 28 0 25 3 l 132 610 b 197 685 142 653 153 667 b 450 729 274 714 358 729 "},"Ŗ":{"ha":882,"x_min":0,"x_max":0,"o":"m 632 986 b 858 710 804 986 888 883 b 556 449 829 549 717 456 b 663 324 604 429 640 388 l 765 13 b 756 0 769 4 765 0 l 739 0 b 719 10 729 0 722 3 l 622 306 b 422 444 590 406 540 444 l 165 444 l 89 11 b 75 0 86 4 82 0 l 57 0 b 47 11 50 0 46 4 l 218 975 b 231 986 219 982 224 986 m 818 714 b 622 949 844 864 774 949 l 254 949 l 171 483 l 540 483 b 818 714 690 483 792 565 m 301 -326 b 288 -337 297 -333 293 -337 l 275 -337 b 268 -328 267 -337 264 -335 l 364 -125 b 381 -114 367 -118 372 -114 l 396 -114 b 404 -125 406 -114 408 -118 "},"ŗ":{"ha":463,"x_min":0,"x_max":0,"o":"m 453 729 l 494 729 b 504 719 501 729 504 726 l 501 706 b 489 694 499 699 494 694 l 446 694 b 213 654 361 694 283 681 b 171 601 185 642 175 628 l 68 10 b 56 0 65 3 61 0 l 38 0 b 29 10 31 0 28 3 l 135 610 b 200 685 144 653 156 667 b 453 729 276 714 361 729 m -22 -296 b -37 -307 -26 -303 -31 -307 l -50 -307 b -57 -296 -57 -307 -60 -303 l 35 -72 b 50 -60 36 -64 42 -60 l 67 -60 b 75 -72 75 -60 78 -64 "},"Ř":{"ha":882,"x_min":0,"x_max":0,"o":"m 790 1244 b 793 1233 800 1244 800 1240 l 572 1075 b 547 1064 563 1068 554 1064 l 542 1064 b 521 1075 535 1064 528 1068 l 356 1233 b 363 1244 350 1238 351 1244 l 381 1244 b 397 1238 388 1244 393 1242 l 546 1094 l 751 1238 b 772 1244 756 1242 763 1244 m 632 986 b 858 710 804 986 888 883 b 556 449 829 549 717 456 b 663 324 604 429 640 388 l 765 13 b 756 0 769 4 765 0 l 739 0 b 719 10 729 0 722 3 l 622 306 b 422 444 590 406 540 444 l 165 444 l 89 11 b 75 0 86 4 82 0 l 57 0 b 47 11 50 0 46 4 l 218 975 b 231 986 219 982 224 986 m 818 714 b 622 949 844 864 774 949 l 254 949 l 171 483 l 540 483 b 818 714 690 483 792 565 "},"ř":{"ha":464,"x_min":0,"x_max":0,"o":"m 589 982 b 592 972 599 982 600 979 l 371 813 b 347 803 363 806 354 803 l 344 803 b 322 813 338 803 329 806 l 156 974 b 161 982 151 979 154 982 l 179 982 b 196 976 186 982 192 981 l 347 833 l 550 976 b 571 982 554 981 561 982 m 492 729 b 501 719 499 729 501 726 l 499 706 b 486 694 497 699 493 694 l 443 694 b 211 654 358 694 281 681 b 168 601 188 644 172 626 l 65 10 b 53 0 63 3 58 0 l 35 0 b 26 10 28 0 25 3 l 132 610 b 197 685 142 653 153 667 b 450 729 274 714 358 729 "},"Ś":{"ha":849,"x_min":0,"x_max":0,"o":"m 689 1253 b 710 1251 697 1257 704 1257 l 715 1242 b 711 1226 721 1235 719 1231 l 438 1076 b 421 1078 431 1074 425 1074 l 415 1086 b 419 1099 411 1090 413 1094 m 139 753 b 524 1006 168 918 307 1006 b 836 793 700 1006 792 932 b 828 778 839 786 836 781 l 814 771 b 799 775 806 768 800 769 b 517 965 760 901 676 965 b 179 747 328 965 203 888 b 286 554 160 642 208 585 b 464 514 343 531 390 524 b 686 453 563 503 619 489 b 760 246 751 417 776 346 b 357 -19 728 69 594 -19 b 24 226 168 -19 63 60 b 33 243 22 233 26 239 l 50 249 b 64 243 57 251 63 250 b 360 19 104 88 193 19 b 719 253 572 19 692 97 b 618 440 732 360 701 413 b 447 475 558 461 525 465 b 182 571 342 486 246 510 b 139 753 144 608 124 671 "},"ś":{"ha":676,"x_min":0,"x_max":0,"o":"m 551 990 b 572 989 561 994 568 994 l 578 979 b 574 965 585 974 583 969 l 300 814 b 285 815 293 811 288 811 l 279 824 b 283 838 275 829 276 833 m 96 536 b 392 729 121 665 219 729 b 638 578 535 729 617 679 b 631 563 640 571 638 565 l 618 557 b 604 561 611 554 607 556 b 388 694 583 650 526 694 b 135 533 238 694 153 640 b 179 404 119 458 146 428 b 267 379 204 390 231 385 b 339 371 294 375 306 375 b 354 369 346 369 350 369 b 526 325 432 363 478 351 b 579 174 575 297 592 247 b 274 -19 556 44 454 -19 b 11 157 124 -19 38 31 b 19 172 10 164 13 169 l 36 176 b 47 171 43 179 46 178 b 278 15 69 60 144 15 b 542 176 435 15 522 69 b 340 335 563 292 490 322 b 154 375 247 344 185 357 b 96 536 103 406 83 460 "},"Ŝ":{"ha":849,"x_min":0,"x_max":0,"o":"m 583 1256 b 606 1244 592 1256 599 1251 l 771 1085 b 763 1075 775 1078 772 1075 l 749 1075 b 731 1082 740 1075 735 1078 l 579 1225 l 376 1082 b 357 1075 371 1078 364 1075 l 335 1075 b 331 1085 324 1075 322 1078 l 554 1244 b 578 1256 563 1251 571 1256 m 139 753 b 524 1006 168 918 307 1006 b 836 793 700 1006 792 932 b 828 778 839 786 836 781 l 814 771 b 799 775 806 768 800 769 b 517 965 760 901 676 965 b 179 747 328 965 203 888 b 286 554 160 642 208 585 b 464 514 343 531 390 524 b 686 453 563 503 619 489 b 760 246 751 417 776 346 b 357 -19 728 69 594 -19 b 24 226 168 -19 63 60 b 33 243 22 233 26 239 l 50 249 b 64 243 57 251 63 250 b 360 19 104 88 193 19 b 719 253 572 19 692 97 b 618 440 732 360 701 413 b 447 475 558 461 525 465 b 182 571 342 486 246 510 b 139 753 144 608 124 671 "},"ŝ":{"ha":676,"x_min":0,"x_max":0,"o":"m 197 804 b 192 813 186 804 185 807 l 415 974 b 440 985 425 981 433 985 l 446 985 b 467 974 453 985 460 981 l 632 813 b 625 804 638 807 635 804 l 610 804 b 592 811 603 804 596 807 l 440 956 l 238 811 b 219 804 232 807 226 804 m 638 578 b 631 563 640 571 638 565 l 618 557 b 604 561 611 554 607 556 b 388 694 583 650 526 694 b 135 533 238 694 153 640 b 179 404 119 458 146 428 b 267 379 204 390 231 385 b 339 371 294 375 306 375 b 354 369 346 369 350 369 b 526 325 432 363 478 351 b 579 174 575 297 592 247 b 274 -19 556 44 454 -19 b 11 157 124 -19 38 31 b 19 172 10 164 13 169 l 36 176 b 47 171 43 179 46 178 b 278 15 69 60 144 15 b 542 176 435 15 522 69 b 340 335 563 292 490 322 b 154 375 247 344 185 357 b 96 536 103 406 83 460 b 392 729 121 665 219 729 b 638 578 535 729 617 679 "},"Ş":{"ha":849,"x_min":0,"x_max":0,"o":"m 139 753 b 524 1006 168 918 307 1006 b 836 793 700 1006 792 932 b 828 778 839 786 836 781 l 814 771 b 799 775 806 768 800 769 b 517 965 760 901 676 965 b 179 747 328 965 203 888 b 286 554 160 642 208 585 b 464 514 343 531 390 524 b 686 453 563 503 619 489 b 760 246 751 417 776 346 b 383 -19 731 76 604 -12 l 329 -128 b 379 -122 342 -124 358 -122 b 483 -222 456 -122 494 -160 b 313 -349 468 -301 403 -349 b 197 -315 267 -349 229 -337 b 190 -297 192 -311 189 -304 l 193 -285 b 201 -279 194 -278 197 -276 b 314 -319 231 -306 268 -319 b 450 -219 386 -319 439 -282 b 361 -144 457 -169 424 -144 b 303 -154 338 -144 318 -147 b 294 -139 290 -157 288 -151 l 356 -19 b 24 226 168 -19 63 60 b 33 243 22 233 26 239 l 50 249 b 64 243 57 251 63 250 b 360 19 104 88 193 19 b 719 253 572 19 692 97 b 618 440 732 360 701 413 b 447 475 558 461 525 465 b 182 571 342 486 246 510 b 139 753 144 608 124 671 "},"ş":{"ha":676,"x_min":0,"x_max":0,"o":"m 96 536 b 392 729 121 665 219 729 b 638 578 535 729 617 679 b 631 563 640 571 638 565 l 618 557 b 604 561 611 554 607 556 b 388 694 583 650 526 694 b 135 533 238 694 153 640 b 179 404 119 458 146 428 b 267 379 204 390 231 385 b 339 371 294 375 306 375 b 354 369 346 369 350 369 b 526 325 432 363 478 351 b 579 174 575 297 592 247 b 297 -19 557 51 463 -12 l 242 -125 b 292 -119 260 -121 276 -119 b 396 -219 368 -119 407 -157 b 225 -346 381 -299 315 -346 b 110 -312 176 -346 139 -335 b 103 -294 104 -308 101 -303 l 106 -282 b 114 -276 107 -275 110 -274 b 226 -318 142 -304 179 -318 b 363 -217 299 -318 351 -279 b 274 -143 369 -168 336 -143 b 215 -151 247 -143 228 -146 b 206 -136 203 -156 200 -149 l 269 -19 b 11 157 121 -18 38 33 b 19 172 10 164 13 169 l 36 176 b 47 171 43 179 46 178 b 278 15 69 60 144 15 b 542 176 435 15 522 69 b 340 335 563 292 490 322 b 154 375 247 344 185 357 b 96 536 103 406 83 460 "},"Š":{"ha":849,"x_min":0,"x_max":0,"o":"m 794 1257 b 797 1246 804 1257 804 1253 l 578 1088 b 551 1076 568 1081 560 1076 l 546 1076 b 525 1088 539 1076 532 1081 l 360 1246 b 367 1257 354 1250 357 1257 l 386 1257 b 401 1250 392 1257 397 1254 l 551 1107 l 756 1250 b 778 1257 761 1254 768 1257 m 139 753 b 524 1006 168 918 307 1006 b 836 793 700 1006 792 932 b 828 778 839 786 836 781 l 814 771 b 799 775 806 768 800 769 b 517 965 760 901 676 965 b 179 747 328 965 203 888 b 286 554 160 642 208 585 b 464 514 343 531 390 524 b 686 453 563 503 619 489 b 760 246 751 417 776 346 b 357 -19 728 69 594 -19 b 24 226 168 -19 63 60 b 33 243 22 233 26 239 l 50 249 b 64 243 57 251 63 250 b 360 19 104 88 193 19 b 719 253 572 19 692 97 b 618 440 732 360 701 413 b 447 475 558 461 525 465 b 182 571 342 486 246 510 b 139 753 144 608 124 671 "},"š":{"ha":676,"x_min":0,"x_max":0,"o":"m 656 983 b 658 974 665 983 667 981 l 438 814 b 414 803 428 807 421 803 l 410 803 b 388 814 403 803 396 807 l 222 975 b 228 983 218 981 221 983 l 246 983 b 263 978 253 983 258 982 l 414 833 l 615 978 b 638 983 621 982 628 983 m 392 729 b 638 578 535 729 617 679 b 631 563 640 571 638 565 l 618 557 b 604 561 611 554 607 556 b 388 694 583 650 526 694 b 135 533 238 694 153 640 b 179 404 119 458 146 428 b 267 379 204 390 231 385 b 339 371 294 375 306 375 b 354 369 346 369 350 369 b 526 325 432 363 478 351 b 579 174 575 297 592 247 b 274 -19 556 44 454 -19 b 11 157 124 -19 38 31 b 19 172 10 164 13 169 l 36 176 b 47 171 43 179 46 178 b 278 15 69 60 144 15 b 542 176 435 15 522 69 b 340 335 563 292 490 322 b 154 375 247 344 185 357 b 96 536 103 406 83 460 b 392 729 121 665 219 729 "},"Ť":{"ha":725,"x_min":0,"x_max":0,"o":"m 722 1244 b 725 1233 729 1244 731 1240 l 504 1075 b 479 1064 494 1068 486 1064 l 472 1064 b 453 1075 465 1064 458 1068 l 288 1233 b 294 1244 282 1238 283 1244 l 313 1244 b 329 1238 319 1244 325 1242 l 478 1094 l 682 1238 b 704 1244 688 1242 694 1244 m 797 986 b 807 975 804 986 808 982 l 803 960 b 792 949 803 953 799 949 l 476 949 l 311 11 b 297 0 310 4 306 0 l 279 0 b 271 11 271 0 268 4 l 436 949 l 121 949 b 111 960 114 949 110 953 l 114 975 b 126 986 115 982 119 986 "},"ť":{"ha":454,"x_min":0,"x_max":0,"o":"m 472 797 b 457 786 468 790 464 786 l 447 786 b 440 796 440 786 439 789 l 531 1017 b 546 1028 533 1024 539 1028 l 561 1028 b 569 1017 569 1028 572 1024 m 281 876 b 288 867 288 876 290 874 l 261 710 l 496 710 b 504 700 503 710 506 707 l 501 685 b 490 675 500 678 497 675 l 256 675 l 181 247 b 196 63 164 154 169 93 b 371 17 222 32 281 17 b 379 7 378 17 381 14 l 376 -8 b 365 -19 375 -15 372 -19 b 163 35 263 -21 194 -3 b 142 246 131 72 124 142 l 218 675 l 57 675 b 47 685 50 675 46 678 l 50 700 b 63 710 51 707 56 710 l 224 710 l 250 867 b 263 876 251 874 256 876 "},"Ŧ":{"ha":763,"x_min":0,"x_max":0,"o":"m 817 986 b 826 975 824 986 826 982 l 822 960 b 810 949 821 953 817 949 l 494 949 l 411 476 l 632 476 b 639 467 638 476 640 474 l 636 456 b 625 443 636 447 632 443 l 406 443 l 329 11 b 317 0 328 4 324 0 l 297 0 b 289 11 290 0 288 4 l 364 443 l 144 443 b 138 456 139 443 136 447 l 140 467 b 151 476 142 474 144 476 l 371 476 l 454 949 l 139 949 b 129 960 132 949 128 953 l 133 975 b 144 986 133 982 138 986 "},"ŧ":{"ha":461,"x_min":0,"x_max":0,"o":"m 286 876 b 294 867 293 876 296 874 l 268 710 l 501 710 b 510 700 510 710 513 707 l 507 685 b 496 675 507 678 503 675 l 261 675 l 208 379 l 401 379 b 408 369 408 379 410 376 l 408 358 b 396 349 406 351 401 349 l 204 349 l 186 247 b 201 64 169 154 175 93 b 376 18 228 33 286 18 b 386 7 383 18 388 14 l 383 -8 b 371 -19 382 -15 378 -19 b 168 35 268 -21 200 -3 b 149 246 136 72 129 142 l 165 349 l 32 349 b 24 358 25 349 22 351 l 25 369 b 36 379 26 376 29 379 l 171 379 l 224 675 l 63 675 b 53 685 56 675 53 678 l 56 700 b 68 710 58 707 63 710 l 229 710 l 257 867 b 269 876 258 874 263 876 "},"Ũ":{"ha":943,"x_min":0,"x_max":0,"o":"m 846 1210 b 851 1201 853 1210 854 1207 b 729 1076 838 1118 797 1076 b 524 1181 629 1076 611 1181 b 433 1085 478 1181 443 1142 b 422 1076 432 1079 428 1076 l 410 1076 b 403 1085 404 1076 401 1079 b 526 1210 418 1163 461 1210 b 635 1157 561 1210 597 1192 b 732 1104 672 1122 704 1104 b 822 1201 781 1104 811 1144 b 832 1210 824 1207 826 1210 m 165 333 b 431 17 131 135 219 17 b 806 333 642 17 772 138 l 919 975 b 932 986 921 982 925 986 l 951 986 b 961 975 958 986 963 982 l 846 326 b 426 -21 807 108 664 -21 b 125 338 188 -21 86 117 l 239 975 b 251 986 240 982 244 986 l 269 986 b 279 975 276 986 281 982 "},"ũ":{"ha":756,"x_min":0,"x_max":0,"o":"m 725 960 b 731 951 732 960 733 957 b 611 826 717 868 676 826 b 503 879 576 826 540 844 b 403 931 464 914 431 931 b 311 835 354 931 321 892 b 303 826 311 829 308 826 l 289 826 b 282 835 283 826 281 829 b 404 960 294 913 339 960 b 611 856 501 960 526 856 b 701 951 660 856 692 894 b 711 960 703 957 706 960 m 747 710 b 756 700 754 710 757 707 l 650 101 b 585 25 640 58 629 43 b 331 -19 508 -4 424 -19 b 113 247 154 -19 81 69 l 192 700 b 204 710 194 707 199 710 l 222 710 b 231 700 229 710 232 707 l 150 249 b 339 15 124 93 186 15 b 572 56 424 15 501 29 b 614 108 596 65 610 83 l 718 700 b 731 710 719 707 724 710 "},"Ū":{"ha":943,"x_min":0,"x_max":0,"o":"m 797 1157 b 806 1146 804 1157 807 1153 l 803 1136 b 792 1126 803 1129 799 1126 l 461 1126 b 451 1136 454 1126 450 1129 l 453 1146 b 465 1157 456 1153 460 1157 m 165 333 b 431 17 131 135 219 17 b 806 333 642 17 772 138 l 919 975 b 932 986 921 982 925 986 l 951 986 b 961 975 958 986 963 982 l 846 326 b 426 -21 807 108 664 -21 b 125 338 188 -21 86 117 l 239 975 b 251 986 240 982 244 986 l 269 986 b 279 975 276 986 281 982 "},"ū":{"ha":756,"x_min":0,"x_max":0,"o":"m 675 904 b 685 893 682 904 685 900 l 682 883 b 671 872 681 876 678 872 l 339 872 b 331 883 332 872 329 876 l 332 893 b 343 904 333 900 336 904 m 747 710 b 756 700 754 710 757 707 l 650 101 b 585 25 640 58 629 43 b 331 -19 508 -4 424 -19 b 113 247 154 -19 81 69 l 192 700 b 204 710 194 707 199 710 l 222 710 b 231 700 229 710 232 707 l 150 249 b 339 15 124 93 186 15 b 572 56 424 15 501 29 b 614 108 596 65 610 83 l 718 700 b 731 710 719 707 724 710 "},"Ŭ":{"ha":943,"x_min":0,"x_max":0,"o":"m 849 1221 b 617 1063 800 1111 729 1063 b 436 1221 506 1063 446 1115 b 443 1232 435 1226 436 1231 l 458 1236 b 468 1231 465 1236 468 1235 b 621 1094 475 1136 525 1094 b 819 1231 713 1094 779 1140 b 832 1238 822 1236 826 1239 l 846 1232 b 849 1221 851 1229 853 1225 m 165 333 b 431 17 131 135 219 17 b 806 333 642 17 772 138 l 919 975 b 932 986 921 982 925 986 l 951 986 b 961 975 958 986 963 982 l 846 326 b 426 -21 807 108 664 -21 b 125 338 188 -21 86 117 l 239 975 b 251 986 240 982 244 986 l 269 986 b 279 975 276 986 281 982 "},"ŭ":{"ha":756,"x_min":0,"x_max":0,"o":"m 728 967 b 499 810 681 863 604 810 b 315 967 386 810 325 863 b 322 979 313 974 315 978 l 336 982 b 347 976 343 985 346 983 b 499 842 354 882 403 842 b 699 978 592 842 658 888 b 710 983 700 983 704 985 l 725 979 b 728 967 729 978 731 974 m 747 710 b 756 700 754 710 757 707 l 650 101 b 585 25 640 58 629 43 b 331 -19 508 -4 424 -19 b 113 247 154 -19 81 69 l 192 700 b 204 710 194 707 199 710 l 222 710 b 231 700 229 710 232 707 l 150 249 b 339 15 124 93 186 15 b 572 56 424 15 501 29 b 614 108 596 65 610 83 l 718 700 b 731 710 719 707 724 710 "},"Ů":{"ha":943,"x_min":0,"x_max":0,"o":"m 503 1160 b 658 1288 515 1239 576 1288 b 765 1160 738 1288 781 1239 b 613 1032 753 1081 694 1032 b 503 1160 531 1032 488 1081 m 740 1160 b 654 1263 750 1225 717 1263 b 528 1160 588 1263 538 1222 b 617 1057 517 1094 550 1057 b 740 1160 682 1057 729 1097 m 165 333 b 431 17 131 135 219 17 b 806 333 642 17 772 138 l 919 975 b 932 986 921 982 925 986 l 951 986 b 961 975 958 986 963 982 l 846 326 b 426 -21 807 108 664 -21 b 125 338 188 -21 86 117 l 239 975 b 251 986 240 982 244 986 l 269 986 b 279 975 276 986 281 982 "},"ů":{"ha":756,"x_min":0,"x_max":0,"o":"m 382 899 b 539 1025 394 976 456 1025 b 646 894 618 1025 661 974 b 493 768 631 815 572 768 b 382 899 411 768 367 819 m 579 821 b 621 896 601 839 615 864 b 607 972 626 928 622 953 b 535 1000 592 990 567 1000 b 407 896 463 1000 419 965 b 497 793 397 833 431 793 b 579 821 529 793 557 803 m 747 710 b 756 700 754 710 757 707 l 650 101 b 585 25 640 58 629 43 b 331 -19 508 -4 424 -19 b 113 247 154 -19 81 69 l 192 700 b 204 710 194 707 199 710 l 222 710 b 231 700 229 710 232 707 l 150 249 b 339 15 124 93 186 15 b 572 56 424 15 501 29 b 614 108 596 65 610 83 l 718 700 b 731 710 719 707 724 710 "},"Ű":{"ha":943,"x_min":0,"x_max":0,"o":"m 613 1236 b 631 1244 618 1243 624 1246 l 646 1240 b 649 1228 654 1239 656 1235 l 460 1064 b 444 1060 453 1058 449 1057 l 435 1063 b 433 1075 428 1065 428 1069 m 857 1236 b 875 1244 863 1243 868 1246 l 892 1240 b 893 1228 900 1238 900 1233 l 703 1064 b 688 1058 697 1058 692 1057 l 678 1063 b 676 1074 669 1064 669 1068 m 165 333 b 431 17 131 135 219 17 b 806 333 642 17 772 138 l 919 975 b 932 986 921 982 925 986 l 951 986 b 961 975 958 986 963 982 l 846 326 b 426 -21 807 108 664 -21 b 125 338 188 -21 86 117 l 239 975 b 251 986 240 982 244 986 l 269 986 b 279 975 276 986 281 982 "},"ű":{"ha":756,"x_min":0,"x_max":0,"o":"m 490 979 b 508 986 496 986 501 988 l 524 983 b 526 971 532 982 533 978 l 338 807 b 322 801 332 801 326 800 l 313 806 b 311 817 304 807 304 811 m 736 976 b 756 983 743 983 749 985 l 771 981 b 774 968 779 979 781 975 l 578 808 b 563 804 572 803 567 801 l 553 807 b 551 818 547 810 547 814 m 747 710 b 756 700 754 710 757 707 l 650 101 b 585 25 640 58 629 43 b 331 -19 508 -4 424 -19 b 113 247 154 -19 81 69 l 192 700 b 204 710 194 707 199 710 l 222 710 b 231 700 229 710 232 707 l 150 249 b 339 15 124 93 186 15 b 572 56 424 15 501 29 b 614 108 596 65 610 83 l 718 700 b 731 710 719 707 724 710 "},"Ų":{"ha":943,"x_min":0,"x_max":0,"o":"m 951 986 b 961 975 958 986 963 982 l 846 326 b 681 47 822 200 768 107 b 510 -119 611 0 554 -56 b 451 -268 464 -183 444 -233 b 510 -311 457 -300 471 -311 b 617 -265 547 -311 583 -296 b 624 -267 619 -261 622 -261 l 628 -285 b 624 -296 629 -287 628 -292 b 497 -344 583 -328 542 -344 b 415 -282 450 -344 422 -324 b 454 -150 408 -249 422 -204 b 585 3 486 -94 529 -43 b 426 -21 538 -12 485 -21 b 125 338 188 -21 86 117 l 239 975 b 251 986 240 982 244 986 l 269 986 b 279 975 276 986 281 982 l 165 333 b 431 17 131 135 219 17 b 806 333 642 17 772 138 l 919 975 b 932 986 921 982 925 986 "},"ų":{"ha":756,"x_min":0,"x_max":0,"o":"m 722 710 b 731 700 729 710 732 707 l 625 101 b 589 39 621 72 610 51 b 432 -122 525 -6 472 -60 b 379 -267 392 -185 374 -232 b 440 -311 385 -296 406 -311 b 546 -267 478 -311 514 -296 b 554 -268 550 -262 553 -264 l 557 -283 b 551 -294 557 -287 556 -290 b 424 -344 511 -328 468 -344 b 342 -282 375 -344 349 -324 b 382 -143 335 -246 347 -200 b 521 13 415 -86 461 -33 b 306 -19 456 -8 383 -19 b 88 249 126 -19 58 76 l 167 700 b 179 710 169 707 174 710 l 197 710 b 206 700 204 710 207 707 l 125 249 b 315 15 99 93 161 15 b 547 56 399 15 476 29 b 589 108 571 65 585 83 l 693 700 b 706 710 694 707 699 710 "},"Ŵ":{"ha":1197,"x_min":0,"x_max":0,"o":"m 753 1243 b 775 1232 760 1243 768 1239 l 940 1072 b 932 1063 944 1065 942 1063 l 917 1063 b 899 1069 908 1063 903 1065 l 749 1213 l 546 1069 b 525 1063 540 1065 533 1063 l 504 1063 b 500 1072 493 1063 492 1065 l 724 1232 b 747 1243 732 1239 740 1243 m 1260 986 b 1267 975 1267 986 1269 982 l 833 11 b 815 0 831 4 825 0 l 797 0 b 783 11 788 0 783 4 l 700 781 b 690 900 699 801 693 879 l 688 900 b 635 781 671 857 653 817 l 279 11 b 260 0 275 4 268 0 l 243 0 b 229 11 233 0 229 4 l 136 975 b 144 986 133 982 136 986 l 165 986 b 179 976 174 986 178 983 l 254 181 b 261 60 256 160 258 119 l 264 60 b 315 179 292 125 308 165 l 674 951 b 692 961 678 958 683 961 l 708 961 b 722 951 718 961 722 958 l 806 176 b 814 60 811 106 814 67 l 817 60 b 863 175 835 106 850 143 l 1224 976 b 1240 986 1226 983 1232 986 "},"ŵ":{"ha":1007,"x_min":0,"x_max":0,"o":"m 363 803 b 357 811 351 803 350 806 l 579 972 b 604 983 589 979 597 983 l 610 983 b 632 972 618 983 625 979 l 797 811 b 789 803 803 806 800 803 l 775 803 b 756 810 767 803 760 806 l 604 956 l 403 810 b 383 803 397 806 390 803 m 1021 710 b 1026 697 1029 710 1031 706 l 683 4 b 668 -7 679 -3 675 -7 l 653 -7 b 640 4 644 -7 640 -3 l 558 538 b 546 635 551 596 547 628 l 544 635 l 497 538 l 225 4 b 210 -7 221 -3 217 -7 l 196 -7 b 183 4 189 -7 185 -3 l 86 697 b 97 710 85 706 88 710 l 110 710 b 124 699 122 710 124 708 l 197 169 b 211 47 200 151 208 68 l 213 47 b 243 110 219 60 229 81 b 272 172 256 139 265 160 l 531 675 b 549 685 535 682 540 685 l 558 685 b 572 675 567 685 571 682 l 650 178 b 667 47 654 146 660 103 l 669 47 l 729 176 l 986 699 b 1007 710 990 706 997 710 "},"Ŷ":{"ha":847,"x_min":0,"x_max":0,"o":"m 578 1243 b 600 1232 585 1243 593 1239 l 765 1072 b 757 1063 768 1065 765 1063 l 743 1063 b 725 1069 735 1063 729 1065 l 574 1213 l 371 1069 b 351 1063 365 1065 358 1063 l 329 1063 b 325 1072 319 1063 318 1065 l 549 1232 b 572 1243 557 1239 565 1243 m 926 986 b 932 975 936 986 938 982 l 447 408 l 378 11 b 365 0 376 4 372 0 l 346 0 b 338 11 338 0 335 4 l 407 410 l 125 975 b 133 986 121 982 124 986 l 154 986 b 174 976 164 986 171 983 l 435 451 l 881 976 b 903 986 886 983 893 986 "},"ŷ":{"ha":760,"x_min":0,"x_max":0,"o":"m 235 803 b 229 811 225 803 224 806 l 453 972 b 478 983 463 979 471 983 l 483 983 b 506 972 490 983 499 979 l 669 811 b 663 803 675 806 672 803 l 649 803 b 629 810 640 803 633 806 l 478 956 l 276 810 b 257 803 271 806 264 803 m 704 710 b 713 700 711 710 714 707 l 579 -57 b 240 -357 544 -257 431 -357 b 1 -194 115 -357 36 -303 b 10 -178 -1 -186 1 -181 l 22 -172 b 38 -176 29 -168 33 -169 b 246 -321 67 -269 124 -321 b 542 -58 411 -321 510 -233 l 558 38 b 289 -15 457 3 368 -15 b 71 253 113 -15 39 74 l 149 700 b 161 710 151 707 156 710 l 179 710 b 186 700 186 710 189 707 l 108 253 b 297 19 81 97 136 19 b 564 74 379 19 468 38 l 675 700 b 688 710 676 707 681 710 "},"Ÿ":{"ha":847,"x_min":0,"x_max":0,"o":"m 436 1174 b 456 1151 454 1174 457 1169 l 453 1143 b 426 1119 449 1125 444 1119 l 418 1119 b 400 1143 403 1119 396 1128 l 401 1151 b 428 1174 403 1167 411 1174 m 699 1174 b 718 1151 714 1174 721 1167 l 717 1143 b 689 1119 713 1128 704 1119 l 682 1119 b 661 1143 664 1119 657 1128 l 663 1151 b 690 1174 665 1167 675 1174 m 926 986 b 932 975 936 986 938 982 l 447 408 l 378 11 b 365 0 376 4 372 0 l 346 0 b 338 11 338 0 335 4 l 407 410 l 125 975 b 133 986 121 982 124 986 l 154 986 b 174 976 164 986 171 983 l 435 451 l 881 976 b 903 986 886 983 893 986 "},"Ź":{"ha":750,"x_min":0,"x_max":0,"o":"m 636 1240 b 657 1239 646 1244 653 1244 l 663 1229 b 658 1214 668 1222 667 1218 l 385 1064 b 369 1065 376 1060 371 1061 l 364 1074 b 367 1086 360 1078 360 1082 m 793 986 b 803 975 800 986 803 982 l 800 961 b 792 946 797 954 794 949 l 25 39 l 644 39 b 653 28 653 39 656 35 l 650 11 b 638 0 649 4 644 0 l -21 0 b -29 11 -29 0 -32 4 l -26 26 b -19 44 -26 33 -24 39 l 746 949 l 153 949 b 142 960 146 949 142 953 l 146 975 b 158 986 147 982 151 986 "},"ź":{"ha":603,"x_min":0,"x_max":0,"o":"m 514 989 b 536 988 524 993 531 993 l 542 979 b 538 964 546 972 544 968 l 263 813 b 247 814 256 810 250 810 l 242 822 b 246 836 238 828 239 832 m 493 35 b 501 25 500 35 503 32 l 499 10 b 488 0 497 3 494 0 l -21 0 b -29 10 -29 0 -32 3 l -26 25 b -19 39 -26 29 -24 35 l 563 675 l 103 675 b 94 686 97 675 94 679 l 97 700 b 108 710 99 707 101 710 l 606 710 b 614 700 614 710 617 707 l 611 686 b 604 669 611 682 608 676 l 22 35 "},"Ż":{"ha":750,"x_min":0,"x_max":0,"o":"m 518 1168 b 539 1144 535 1168 542 1160 l 538 1138 b 508 1114 535 1122 525 1114 l 503 1114 b 482 1138 485 1114 481 1119 l 485 1144 b 513 1168 488 1160 497 1168 m 793 986 b 803 975 800 986 803 982 l 800 961 b 792 946 797 954 794 949 l 25 39 l 644 39 b 653 28 653 39 656 35 l 650 11 b 638 0 649 4 644 0 l -21 0 b -29 11 -29 0 -32 4 l -26 26 b -19 44 -26 33 -24 39 l 746 949 l 153 949 b 142 960 146 949 142 953 l 146 975 b 158 986 147 982 151 986 "},"ż":{"ha":603,"x_min":0,"x_max":0,"o":"m 397 918 b 418 893 415 918 419 911 l 415 888 b 388 863 414 871 406 863 l 382 863 b 361 888 361 863 360 867 l 363 893 b 392 918 365 910 375 918 m 493 35 b 501 25 500 35 503 32 l 499 10 b 488 0 497 3 494 0 l -21 0 b -29 10 -29 0 -32 3 l -26 25 b -19 39 -26 29 -24 35 l 563 675 l 103 675 b 94 686 97 675 94 679 l 97 700 b 108 710 99 707 101 710 l 606 710 b 614 700 614 710 617 707 l 611 686 b 604 669 611 682 608 676 l 22 35 "},"Ž":{"ha":750,"x_min":0,"x_max":0,"o":"m 742 1244 b 744 1233 751 1244 751 1240 l 525 1075 b 499 1064 515 1068 507 1064 l 493 1064 b 472 1075 486 1064 479 1068 l 307 1233 b 314 1244 301 1238 304 1244 l 333 1244 b 350 1238 339 1244 344 1242 l 499 1094 l 703 1238 b 725 1244 708 1242 715 1244 m 793 986 b 803 975 800 986 803 982 l 800 961 b 792 946 797 954 794 949 l 25 39 l 644 39 b 653 28 653 39 656 35 l 650 11 b 638 0 649 4 644 0 l -21 0 b -29 11 -29 0 -32 4 l -26 26 b -19 44 -26 33 -24 39 l 746 949 l 153 949 b 142 960 146 949 142 953 l 146 975 b 158 986 147 982 151 986 "},"ž":{"ha":603,"x_min":0,"x_max":0,"o":"m 618 982 b 622 972 628 982 629 979 l 401 813 b 376 803 393 806 385 803 l 374 803 b 351 813 367 803 358 806 l 185 974 b 190 982 181 979 183 982 l 210 982 b 225 976 217 982 221 981 l 376 833 l 579 976 b 600 982 585 981 592 982 m 606 710 b 614 700 614 710 617 707 l 611 686 b 604 669 611 682 608 676 l 22 35 l 493 35 b 501 25 500 35 503 32 l 499 10 b 488 0 497 3 494 0 l -21 0 b -29 10 -29 0 -32 3 l -26 25 b -19 39 -26 29 -24 35 l 563 675 l 103 675 b 94 686 97 675 94 679 l 97 700 b 108 710 99 707 101 710 "},"ſ":{"ha":318,"x_min":0,"x_max":0,"o":"m 213 763 b 308 972 231 864 263 935 b 529 1028 354 1010 428 1028 b 538 1017 536 1028 539 1024 l 536 1001 b 522 992 533 994 529 992 b 331 946 432 992 368 976 b 250 761 293 914 265 853 l 118 10 b 106 0 117 3 113 0 l 89 0 b 81 10 81 0 78 3 l 197 675 l 64 675 b 54 685 57 675 54 678 l 57 700 b 69 710 60 707 64 710 l 203 710 "},"ƒ":{"ha":578,"x_min":0,"x_max":0,"o":"m 328 758 b 633 1028 363 938 465 1028 b 643 1017 640 1028 643 1024 l 643 1001 b 631 992 642 994 638 992 b 368 756 471 992 397 910 l 319 515 l 547 515 b 557 506 554 515 558 513 l 556 489 b 543 479 554 482 550 479 l 313 479 l 211 -35 b -96 -306 176 -215 75 -306 b -104 -294 -103 -306 -106 -301 l -104 -279 b -92 -269 -103 -272 -99 -269 b 172 -31 65 -269 143 -185 l 274 479 l 58 479 b 49 489 51 479 47 482 l 50 506 b 63 515 51 513 56 515 l 279 515 "},"Ǻ":{"ha":868,"x_min":0,"x_max":0,"o":"m 707 1324 b 726 1322 717 1328 724 1326 l 732 1311 b 728 1300 735 1307 733 1304 l 474 1197 b 460 1199 468 1194 464 1194 l 456 1207 b 464 1219 453 1211 456 1215 m 426 1065 b 576 1186 439 1136 500 1186 b 682 1064 650 1186 694 1136 b 567 960 675 1010 626 969 l 788 11 b 776 0 788 4 783 0 l 763 0 b 744 10 751 0 746 3 l 665 357 l 199 357 l -3 10 b -25 0 -8 3 -15 0 l -42 0 b -49 11 -51 0 -53 4 l 506 960 b 426 1065 449 969 417 1010 m 654 1065 b 572 1160 664 1121 629 1160 b 453 1065 513 1160 463 1121 b 538 979 443 1015 478 979 b 654 1065 597 979 647 1015 m 574 769 b 556 858 569 786 564 815 b 538 944 547 900 542 929 l 535 944 b 488 860 525 929 510 900 b 439 771 465 818 449 789 l 218 392 l 658 392 "},"ǻ":{"ha":733,"x_min":0,"x_max":0,"o":"m 596 1225 b 617 1224 606 1229 613 1228 l 622 1217 b 618 1206 628 1213 626 1208 l 361 1094 b 347 1096 354 1092 349 1092 l 342 1101 b 344 1111 338 1106 338 1108 m 353 932 b 508 1058 365 1011 426 1058 b 615 928 588 1058 631 1006 b 463 801 603 849 544 801 b 353 932 383 801 338 853 m 549 854 b 590 929 571 872 585 897 b 576 1006 596 961 592 986 b 504 1033 561 1024 536 1033 b 378 929 436 1033 389 996 b 467 826 367 867 400 826 b 549 854 499 826 526 836 m 111 472 b 442 729 140 651 243 729 b 656 690 526 729 599 717 b 697 614 699 672 704 658 l 599 46 b 579 28 597 38 590 32 b 286 -19 489 -4 392 -19 b 74 265 110 -19 42 92 m 628 658 b 438 694 576 682 513 694 b 147 469 264 694 176 629 l 111 264 b 294 15 83 110 140 15 b 563 61 390 15 479 31 l 658 606 b 628 658 664 639 661 643 "},"Ǽ":{"ha":1122,"x_min":0,"x_max":0,"o":"m 1078 1240 b 1099 1239 1088 1244 1094 1244 l 1106 1229 b 1100 1214 1111 1222 1110 1218 l 826 1064 b 811 1065 819 1060 815 1061 l 806 1074 b 810 1086 801 1078 803 1082 m 1000 38 b 1008 26 1007 38 1010 33 l 1006 11 b 993 0 1004 4 1000 0 l 539 0 b 531 11 532 0 529 4 l 576 271 l 185 271 l -18 10 b -40 0 -25 3 -32 0 l -57 0 b -64 11 -67 0 -69 4 l 688 975 b 706 986 693 982 699 986 l 1146 986 b 1156 975 1153 986 1157 982 l 1153 960 b 1140 949 1151 953 1147 949 l 736 949 l 660 518 l 1006 518 b 1014 507 1011 518 1014 514 l 1011 490 b 997 479 1008 483 1004 479 l 653 479 l 575 38 m 693 924 l 213 307 l 582 307 "},"ǽ":{"ha":1083,"x_min":0,"x_max":0,"o":"m 763 989 b 783 988 771 994 778 994 l 789 979 b 785 964 793 972 792 968 l 511 813 b 496 814 504 810 499 810 l 490 822 b 493 836 486 826 488 832 m 574 560 b 842 729 628 667 724 729 b 1054 496 1007 729 1089 644 b 772 307 1025 372 922 307 b 546 338 699 307 622 317 l 531 247 b 707 14 504 92 563 14 b 956 154 824 14 894 61 b 969 158 960 161 965 163 l 983 151 b 983 136 988 147 988 143 b 701 -19 915 32 822 -19 b 507 93 597 -19 533 18 b 260 -19 456 18 372 -19 b 35 193 82 -19 11 50 b 336 394 58 332 153 394 b 519 376 382 394 443 389 l 533 456 b 507 661 546 540 560 615 b 383 694 481 683 439 694 b 161 576 292 694 218 656 b 146 572 157 571 151 569 l 132 578 b 129 593 125 581 125 586 b 390 729 194 683 281 729 b 574 560 525 729 572 667 m 1018 499 b 836 696 1050 626 981 696 b 565 444 693 696 593 601 l 553 368 b 778 339 624 349 699 339 b 1018 499 913 339 992 392 m 514 344 b 328 361 456 356 393 361 b 72 189 172 361 94 310 b 263 14 51 71 113 14 b 493 129 368 14 444 53 b 496 246 486 167 488 206 "},"Ǿ":{"ha":918,"x_min":0,"x_max":0,"o":"m 721 1254 b 743 1253 731 1258 739 1258 l 749 1243 b 744 1228 754 1236 753 1232 l 469 1078 b 454 1079 463 1074 458 1075 l 449 1088 b 453 1100 444 1092 446 1096 m 946 1040 b 949 1035 951 1040 953 1039 l 838 899 b 878 661 883 839 896 760 l 817 314 b 393 -19 779 103 631 -19 b 150 56 286 -19 204 6 l 60 -56 b 46 -61 57 -60 53 -61 l 26 -61 b 25 -56 22 -61 21 -60 l 129 75 b 78 325 76 135 60 218 l 139 671 b 567 1006 176 883 328 1006 b 818 918 681 1006 764 976 l 913 1035 b 925 1040 915 1039 919 1040 m 792 888 b 563 968 743 942 667 968 b 181 665 350 968 214 858 l 119 321 b 160 110 104 231 117 161 m 838 665 b 808 861 851 747 842 813 l 178 86 b 396 18 226 40 299 18 b 776 321 606 18 743 131 "},"ǿ":{"ha":744,"x_min":0,"x_max":0,"o":"m 585 989 b 606 988 593 994 600 994 l 611 979 b 607 964 618 972 617 968 l 333 813 b 318 814 326 810 321 810 l 313 822 b 317 836 308 828 310 832 m 710 767 b 713 761 713 767 714 765 l 633 664 b 683 492 679 619 696 563 l 635 215 b 301 -19 611 71 481 -19 b 119 28 225 -19 165 -4 l 61 -43 b 50 -49 57 -47 54 -49 l 29 -49 b 28 -43 25 -49 24 -47 l 97 43 b 49 218 51 86 35 144 l 96 493 b 428 729 122 639 251 729 b 613 682 507 729 568 714 l 681 763 b 690 767 682 765 686 767 m 590 650 b 425 694 547 679 493 694 b 135 494 274 694 157 617 l 86 215 b 122 76 76 156 88 110 m 143 58 b 306 15 181 29 235 15 b 597 215 460 15 575 93 l 646 493 b 606 629 656 549 642 594 "},"Ș":{"ha":849,"x_min":0,"x_max":0,"o":"m 139 753 b 524 1006 168 918 307 1006 b 836 793 700 1006 792 932 b 828 778 839 786 836 781 l 814 771 b 799 775 806 768 800 769 b 517 965 760 901 676 965 b 179 747 328 965 203 888 b 286 554 160 642 208 585 b 464 514 343 531 390 524 b 686 453 563 503 619 489 b 760 246 751 417 776 346 b 357 -19 728 69 594 -19 b 24 226 168 -19 63 60 b 33 243 22 233 26 239 l 50 249 b 64 243 57 251 63 250 b 360 19 104 88 193 19 b 719 253 572 19 692 97 b 618 440 732 360 701 413 b 447 475 558 461 525 465 b 182 571 342 486 246 510 b 139 753 144 608 124 671 m 282 -337 b 268 -349 278 -344 274 -349 l 256 -349 b 249 -339 247 -349 244 -346 l 344 -136 b 361 -125 347 -129 353 -125 l 376 -125 b 385 -136 386 -125 389 -129 "},"ș":{"ha":676,"x_min":0,"x_max":0,"o":"m 96 536 b 392 729 121 665 219 729 b 638 578 535 729 617 679 b 631 563 640 571 638 565 l 618 557 b 604 561 611 554 607 556 b 388 694 583 650 526 694 b 135 533 238 694 153 640 b 179 404 119 458 146 428 b 267 379 204 390 231 385 b 339 371 294 375 306 375 b 354 369 346 369 350 369 b 526 325 432 363 478 351 b 579 174 575 297 592 247 b 274 -19 556 44 454 -19 b 11 157 124 -19 38 31 b 19 172 10 164 13 169 l 36 176 b 47 171 43 179 46 178 b 278 15 69 60 144 15 b 542 176 435 15 522 69 b 340 335 563 292 490 322 b 154 375 247 344 185 357 b 96 536 103 406 83 460 m 215 -308 b 199 -319 211 -315 206 -319 l 189 -319 b 182 -310 179 -319 178 -319 l 272 -101 b 288 -89 274 -93 279 -89 l 303 -89 b 310 -101 313 -89 314 -93 "},"Ț":{"ha":725,"x_min":0,"x_max":0,"o":"m 797 986 b 807 975 804 986 808 982 l 803 960 b 792 949 803 953 799 949 l 476 949 l 311 11 b 297 0 310 4 306 0 l 279 0 b 271 11 271 0 268 4 l 436 949 l 121 949 b 111 960 114 949 110 953 l 114 975 b 126 986 115 982 119 986 m 210 -326 b 194 -337 206 -333 201 -337 l 183 -337 b 175 -328 176 -337 174 -335 l 272 -125 b 288 -114 274 -118 279 -114 l 303 -114 b 311 -125 313 -114 315 -118 "},"ț":{"ha":454,"x_min":0,"x_max":0,"o":"m 281 876 b 288 867 288 876 290 874 l 261 710 l 496 710 b 504 700 503 710 506 707 l 501 685 b 490 675 500 678 497 675 l 256 675 l 181 247 b 196 63 164 154 169 93 b 371 17 222 32 281 17 b 379 7 378 17 381 14 l 376 -8 b 365 -19 375 -15 372 -19 b 163 35 263 -21 194 -3 b 142 246 131 72 124 142 l 218 675 l 57 675 b 47 685 50 675 46 678 l 50 700 b 63 710 51 707 56 710 l 224 710 l 250 867 b 263 876 251 874 256 876 m 142 -326 b 128 -337 138 -333 133 -337 l 115 -337 b 108 -328 108 -337 106 -335 l 204 -125 b 221 -114 207 -118 213 -114 l 236 -114 b 244 -125 246 -114 249 -118 "},"ȷ":{"ha":240,"x_min":0,"x_max":0,"o":"m 182 710 b 190 700 189 710 192 707 l 64 -14 b -254 -319 26 -219 -60 -319 b -262 -308 -261 -319 -264 -315 l -261 -293 b -247 -283 -258 -286 -254 -283 b 26 -14 -76 -283 -7 -197 l 151 700 b 165 710 154 707 158 710 "},"ˆ":{"ha":506,"x_min":0,"x_max":0,"o":"m 376 996 b 399 985 383 996 392 992 l 563 824 b 556 815 568 818 565 815 l 542 815 b 522 822 533 815 526 818 l 371 967 l 169 822 b 150 815 164 818 157 815 l 128 815 b 122 824 118 815 117 818 l 346 985 b 371 996 356 992 364 996 "},"ˇ":{"ha":461,"x_min":0,"x_max":0,"o":"m 563 994 b 567 985 572 994 574 992 l 346 825 b 321 814 336 818 328 814 l 318 814 b 296 825 311 814 304 818 l 129 986 b 136 994 125 992 128 994 l 154 994 b 169 989 161 994 165 993 l 322 844 l 524 989 b 544 994 529 993 536 994 "},"˘":{"ha":399,"x_min":0,"x_max":0,"o":"m 513 979 b 283 822 467 875 390 822 b 100 979 171 822 110 875 b 107 990 97 986 100 990 l 121 994 b 132 989 128 997 131 996 b 283 854 139 894 189 854 b 483 990 376 854 443 900 b 494 996 485 996 489 997 l 510 990 b 513 979 514 989 515 986 "},"˙":{"ha":300,"x_min":0,"x_max":0,"o":"m 256 929 b 276 906 274 929 278 924 l 275 900 b 246 875 272 883 263 875 l 240 875 b 219 900 222 875 218 879 l 222 906 b 250 929 224 921 232 929 "},"˚":{"ha":333,"x_min":0,"x_max":0,"o":"m 140 883 b 296 1008 153 961 213 1008 b 403 878 375 1008 418 957 b 250 753 390 800 332 753 b 140 883 168 753 125 804 m 336 806 b 378 881 358 824 372 849 b 364 956 383 913 379 938 b 292 983 349 974 324 983 b 165 881 224 983 176 946 b 254 778 154 818 188 778 b 336 806 286 778 314 788 "},"˛":{"ha":350,"x_min":0,"x_max":0,"o":"m 207 0 b 13 -268 74 -93 0 -200 b 71 -311 19 -301 32 -311 b 178 -265 108 -311 144 -296 b 186 -267 182 -261 185 -262 l 190 -285 b 185 -296 192 -287 189 -292 b 58 -344 144 -328 103 -344 b -24 -282 11 -344 -17 -324 b 172 0 -40 -204 33 -90 "},"˜":{"ha":424,"x_min":0,"x_max":0,"o":"m 526 972 b 533 964 533 972 535 969 b 414 839 518 881 478 839 b 204 943 314 839 292 943 b 114 847 158 943 124 904 b 104 839 113 842 110 839 l 92 839 b 83 847 86 839 83 842 b 206 972 99 925 140 972 b 315 921 240 972 276 956 b 414 868 353 886 386 868 b 504 964 463 868 494 907 b 514 972 506 969 508 972 "},"˝":{"ha":549,"x_min":0,"x_max":0,"o":"m 356 992 b 374 999 363 999 368 1000 l 390 996 b 392 983 400 993 401 989 l 204 819 b 188 814 199 814 193 813 l 178 818 b 178 829 171 819 171 824 m 603 989 b 621 996 610 996 615 997 l 638 993 b 639 981 646 990 646 986 l 444 821 b 429 815 439 815 433 814 l 418 819 b 418 831 411 822 411 826 "},"̦":{"ha":0,"x_min":0,"x_max":0,"o":"m 14 -326 b -1 -337 10 -333 6 -337 l -12 -337 b -21 -328 -19 -337 -22 -335 l 76 -125 b 92 -114 78 -118 83 -114 l 108 -114 b 115 -125 117 -114 119 -118 "},"π":{"ha":821,"x_min":0,"x_max":0,"o":"m 846 710 b 853 700 853 710 856 707 l 850 685 b 839 675 850 678 846 675 l 731 675 l 647 199 b 660 22 635 126 639 68 b 651 6 661 14 658 8 l 636 -1 b 622 4 629 -6 625 -3 b 608 200 596 61 593 118 l 693 675 l 289 675 l 171 10 b 158 0 169 3 165 0 l 142 0 b 133 10 133 0 131 3 l 250 675 b 72 625 190 674 131 657 b 57 628 63 622 58 624 l 53 642 b 60 657 50 649 53 653 b 278 710 122 692 196 710 "},"Ё":{"ha":788,"x_min":0,"x_max":0,"o":"m 435 1160 b 453 1138 453 1160 457 1156 l 451 1128 b 425 1106 447 1110 443 1106 l 417 1106 b 397 1128 400 1106 396 1111 l 399 1138 b 426 1160 401 1153 411 1160 m 697 1160 b 717 1138 713 1160 719 1153 l 715 1128 b 688 1106 711 1113 703 1106 l 679 1106 b 660 1128 661 1106 656 1110 l 661 1138 b 689 1160 665 1154 671 1160 m 801 986 b 811 975 808 986 813 982 l 807 960 b 794 949 807 953 803 949 l 254 949 l 178 519 l 660 519 b 668 508 668 519 671 515 l 667 492 b 653 481 664 485 660 481 l 171 481 l 94 38 l 656 38 b 664 26 661 38 664 33 l 661 11 b 647 0 658 4 654 0 l 57 0 b 47 11 50 0 46 4 l 218 975 b 231 986 219 982 224 986 "},"А":{"ha":868,"x_min":0,"x_max":0,"o":"m 788 11 b 776 0 788 4 783 0 l 763 0 b 744 10 751 0 746 3 l 668 344 l 190 344 l -3 10 b -25 0 -8 3 -15 0 l -42 0 b -49 11 -51 0 -53 4 l 515 982 b 533 993 519 989 526 993 l 550 993 b 564 983 560 993 564 990 m 540 914 b 538 951 539 924 538 936 l 535 951 b 521 914 528 931 524 918 l 210 379 l 663 379 "},"Б":{"ha":867,"x_min":0,"x_max":0,"o":"m 832 986 b 843 975 839 986 843 982 l 839 960 b 826 949 838 953 833 949 l 254 949 l 182 543 l 558 543 b 789 267 731 543 821 439 b 468 0 760 94 642 0 l 57 0 b 47 11 50 0 46 4 l 218 975 b 231 986 219 982 224 986 m 747 271 b 551 504 774 421 701 504 l 175 504 l 94 38 l 469 38 b 747 271 619 38 724 121 "},"В":{"ha":886,"x_min":0,"x_max":0,"o":"m 625 986 b 839 739 788 986 867 896 b 647 508 818 615 754 539 l 647 507 b 789 256 760 481 815 388 b 474 0 757 89 644 0 l 57 0 b 47 11 50 0 46 4 l 218 975 b 231 986 219 982 224 986 m 714 578 b 797 736 757 614 785 667 b 769 894 810 806 800 858 b 617 949 739 931 688 949 l 254 949 l 178 522 l 542 522 b 714 578 613 522 669 540 m 747 263 b 558 485 771 403 703 485 l 172 485 l 94 38 l 479 38 b 747 263 625 38 721 117 "},"Г":{"ha":713,"x_min":0,"x_max":0,"o":"m 769 986 b 779 975 776 986 781 982 l 775 960 b 763 949 774 953 769 949 l 254 949 l 89 11 b 75 0 86 4 82 0 l 57 0 b 47 11 50 0 46 4 l 218 975 b 231 986 219 982 224 986 "},"Д":{"ha":964,"x_min":0,"x_max":0,"o":"m 910 986 b 919 975 917 986 921 982 l 754 38 l 854 38 b 863 26 861 38 864 33 l 822 -201 b 810 -212 821 -208 817 -212 l 792 -212 b 782 -201 785 -212 781 -208 l 818 0 l -12 0 l -49 -201 b -61 -212 -50 -208 -54 -212 l -79 -212 b -89 -201 -86 -212 -90 -208 l -49 26 b -35 38 -47 33 -43 38 l 29 38 b 92 89 53 53 74 71 b 157 183 110 107 131 139 b 301 696 208 272 257 446 l 351 975 b 364 986 353 982 357 986 m 386 949 l 340 696 b 206 200 300 463 253 293 b 83 38 158 107 128 71 l 714 38 l 874 949 "},"Е":{"ha":788,"x_min":0,"x_max":0,"o":"m 801 986 b 811 975 808 986 813 982 l 807 960 b 794 949 807 953 803 949 l 254 949 l 178 519 l 660 519 b 668 508 668 519 671 515 l 667 492 b 653 481 664 485 660 481 l 171 481 l 94 38 l 656 38 b 664 26 661 38 664 33 l 661 11 b 647 0 658 4 654 0 l 57 0 b 47 11 50 0 46 4 l 218 975 b 231 986 219 982 224 986 "},"Ж":{"ha":1246,"x_min":0,"x_max":0,"o":"m 1303 986 b 1307 974 1314 986 1315 982 l 907 504 b 1039 360 969 485 1013 436 l 1153 13 b 1143 0 1157 4 1153 0 l 1128 0 b 1108 10 1118 0 1111 3 l 1000 342 b 797 481 967 442 919 481 l 663 481 l 581 11 b 568 0 579 4 575 0 l 549 0 b 540 11 540 0 538 4 l 622 481 l 489 481 b 239 342 371 481 307 442 l 14 10 b -11 0 7 3 -1 0 l -28 0 b -32 13 -37 0 -39 4 l 204 360 b 388 504 256 436 317 485 l 151 974 b 161 986 147 982 151 986 l 175 986 b 197 976 185 986 193 983 l 426 515 b 496 519 446 518 469 519 l 629 519 l 710 975 b 722 986 711 982 715 986 l 742 986 b 751 975 749 986 751 982 l 671 519 l 804 519 b 867 515 829 519 850 518 l 1260 976 b 1285 986 1265 983 1274 986 "},"З":{"ha":842,"x_min":0,"x_max":0,"o":"m 799 729 b 619 508 781 625 718 538 b 746 261 725 468 767 386 b 356 -19 714 82 583 -19 b 25 231 135 -19 42 64 b 36 246 24 238 28 243 l 51 249 b 65 242 58 251 63 249 b 360 18 82 86 160 18 b 706 265 561 18 678 108 b 526 488 729 400 665 488 l 251 488 b 242 499 244 488 240 492 l 244 514 b 258 525 246 521 250 525 l 531 525 b 760 732 660 525 739 615 b 528 968 788 883 706 968 b 164 750 335 968 236 901 b 146 743 160 743 153 740 l 132 747 b 128 763 125 750 124 756 b 533 1006 201 928 318 1006 b 799 729 738 1006 831 903 "},"И":{"ha":960,"x_min":0,"x_max":0,"o":"m 929 986 b 939 975 936 986 940 982 l 769 11 b 756 0 767 4 763 0 l 738 0 b 728 11 731 0 726 4 l 844 671 b 896 925 854 722 871 807 l 893 925 l 697 697 l 90 8 b 75 0 86 3 81 0 l 57 0 b 47 11 50 0 46 4 l 218 975 b 231 986 219 982 224 986 l 249 986 b 258 975 258 986 261 982 l 144 338 b 92 61 131 258 113 165 l 94 61 l 307 310 l 897 979 b 911 986 901 983 907 986 "},"Й":{"ha":960,"x_min":0,"x_max":0,"o":"m 592 1063 b 411 1221 481 1063 421 1115 b 418 1232 410 1226 411 1231 l 433 1236 b 443 1231 440 1236 443 1235 b 596 1094 450 1136 500 1094 b 794 1231 688 1094 754 1140 b 807 1238 797 1236 801 1239 l 821 1232 b 824 1221 826 1229 828 1225 b 592 1063 775 1111 704 1063 m 929 986 b 939 975 936 986 940 982 l 769 11 b 756 0 767 4 763 0 l 738 0 b 728 11 731 0 726 4 l 844 671 b 896 925 854 722 871 807 l 893 925 l 697 697 l 90 8 b 75 0 86 3 81 0 l 57 0 b 47 11 50 0 46 4 l 218 975 b 231 986 219 982 224 986 l 249 986 b 258 975 258 986 261 982 l 144 338 b 92 61 131 258 113 165 l 94 61 l 307 310 l 897 979 b 911 986 901 983 907 986 "},"К":{"ha":824,"x_min":0,"x_max":0,"o":"m 724 13 b 715 0 728 4 725 0 l 700 0 b 681 10 690 0 683 3 l 572 342 b 376 481 538 442 493 481 l 171 481 l 89 11 b 75 0 86 4 82 0 l 57 0 b 47 11 50 0 46 4 l 218 975 b 231 986 219 982 224 986 l 249 986 b 258 975 256 986 260 982 l 178 519 l 375 519 b 414 518 393 519 406 519 l 832 976 b 856 986 838 983 846 986 l 876 986 b 881 974 886 986 888 982 l 454 508 b 610 360 539 492 582 444 "},"Л":{"ha":890,"x_min":0,"x_max":0,"o":"m 864 986 b 874 975 871 986 875 982 l 703 11 b 690 0 701 4 697 0 l 671 0 b 663 11 663 0 660 4 l 828 949 l 342 949 l 289 647 b 108 86 238 360 178 172 b -22 -7 79 51 36 19 b -35 -12 -25 -8 -29 -10 b -43 -17 -39 -14 -42 -15 b -58 -12 -50 -21 -56 -19 l -64 3 b -56 18 -67 10 -64 15 b 58 89 4 46 11 49 b 110 157 79 107 97 131 b 249 647 151 236 206 385 l 307 975 b 319 986 308 982 313 986 "},"М":{"ha":1103,"x_min":0,"x_max":0,"o":"m 1072 986 b 1082 975 1079 986 1083 982 l 913 11 b 899 0 910 4 906 0 l 882 0 b 872 11 875 0 871 4 l 993 694 b 1024 846 1000 738 1011 785 b 1038 917 1029 875 1033 899 l 1036 917 l 901 731 l 546 249 b 528 239 540 242 535 239 l 517 239 b 501 249 508 239 503 242 l 311 738 b 247 918 293 781 272 840 l 244 918 b 208 694 235 856 224 781 l 89 11 b 75 0 86 4 82 0 l 57 0 b 47 11 50 0 46 4 l 218 975 b 231 986 219 982 224 986 l 244 986 b 260 975 251 986 257 982 l 529 289 l 1035 974 b 1056 986 1040 982 1047 986 "},"Н":{"ha":943,"x_min":0,"x_max":0,"o":"m 914 986 b 924 975 921 986 925 982 l 753 11 b 740 0 751 4 747 0 l 721 0 b 713 11 714 0 711 4 l 794 481 l 171 481 l 89 11 b 75 0 86 4 82 0 l 57 0 b 47 11 50 0 46 4 l 218 975 b 231 986 219 982 224 986 l 249 986 b 258 975 256 986 260 982 l 178 519 l 803 519 l 883 975 b 894 986 883 982 888 986 "},"О":{"ha":918,"x_min":0,"x_max":0,"o":"m 163 671 b 590 1006 200 883 351 1006 b 901 661 828 1006 940 874 l 840 314 b 417 -19 803 103 654 -19 b 101 325 176 -19 63 113 m 861 665 b 586 968 894 856 797 968 b 204 665 374 968 238 858 l 143 321 b 419 18 110 131 207 18 b 800 321 629 18 767 131 "},"П":{"ha":935,"x_min":0,"x_max":0,"o":"m 904 986 b 914 975 911 986 915 982 l 744 11 b 731 0 742 4 738 0 l 711 0 b 703 11 704 0 701 4 l 868 949 l 254 949 l 89 11 b 75 0 86 4 82 0 l 57 0 b 47 11 50 0 46 4 l 218 975 b 231 986 219 982 224 986 "},"Р":{"ha":854,"x_min":0,"x_max":0,"o":"m 606 986 b 854 681 793 986 889 865 b 501 393 819 497 689 393 l 156 393 l 89 11 b 75 0 86 4 82 0 l 57 0 b 47 11 50 0 46 4 l 218 975 b 231 986 219 982 224 986 m 504 431 b 814 688 667 431 785 526 b 596 949 843 853 761 949 l 254 949 l 163 431 "},"С":{"ha":878,"x_min":0,"x_max":0,"o":"m 160 668 b 585 1006 197 881 346 1006 b 904 761 796 1006 888 926 b 894 746 906 753 901 747 l 881 742 b 867 749 872 739 868 742 b 582 968 850 900 771 968 b 200 669 367 968 233 857 l 140 322 b 414 21 107 132 203 21 b 782 246 607 21 710 90 b 799 253 786 253 792 256 l 814 247 b 818 232 821 244 822 239 b 668 43 779 147 729 83 b 413 -19 607 1 522 -19 b 99 321 175 -19 61 110 "},"Т":{"ha":725,"x_min":0,"x_max":0,"o":"m 797 986 b 807 975 804 986 808 982 l 803 960 b 792 949 803 953 799 949 l 476 949 l 311 11 b 297 0 310 4 306 0 l 279 0 b 271 11 271 0 268 4 l 436 949 l 121 949 b 111 960 114 949 110 953 l 114 975 b 126 986 115 982 119 986 "},"У":{"ha":797,"x_min":0,"x_max":0,"o":"m 874 986 b 879 975 883 986 885 982 l 214 10 b 193 0 208 3 201 0 l 172 0 b 168 11 164 0 163 4 l 353 278 l 104 975 b 111 986 100 982 103 986 l 129 986 b 149 976 139 986 146 983 l 381 318 l 835 976 b 854 986 839 983 846 986 "},"Ф":{"ha":1139,"x_min":0,"x_max":0,"o":"m 717 1021 b 726 1010 724 1021 726 1017 l 707 903 l 807 903 b 1118 544 1047 903 1158 767 l 1099 438 b 663 90 1060 217 906 90 l 563 90 l 544 -17 b 532 -28 543 -24 539 -28 l 514 -28 b 504 -17 507 -28 503 -24 l 522 90 l 422 90 b 111 447 182 90 71 225 l 131 554 b 567 903 169 776 324 903 l 667 903 l 685 1010 b 699 1021 686 1017 690 1021 m 558 865 b 169 551 342 865 204 750 l 150 442 b 429 128 117 243 213 128 l 529 128 l 658 865 m 1079 551 b 800 865 1114 750 1021 865 l 700 865 l 569 128 l 671 128 b 1060 442 888 128 1025 243 "},"Х":{"ha":833,"x_min":0,"x_max":0,"o":"m 907 986 b 913 975 917 986 918 982 l 471 499 l 751 15 b 744 0 758 6 756 0 l 724 0 b 706 10 714 0 707 3 l 439 467 l 17 10 b -6 0 10 3 3 0 l -32 0 b -33 15 -42 0 -42 6 l 419 501 l 146 975 b 153 986 140 982 143 986 l 175 986 b 194 976 183 986 190 983 l 450 533 l 861 976 b 881 986 865 983 872 986 "},"Ц":{"ha":954,"x_min":0,"x_max":0,"o":"m 844 38 b 853 26 851 38 854 33 l 813 -201 b 799 -212 811 -208 807 -212 l 782 -212 b 772 -201 775 -212 771 -208 l 808 0 l 57 0 b 47 11 50 0 46 4 l 218 975 b 231 986 219 982 224 986 l 249 986 b 258 975 256 986 260 982 l 94 38 l 704 38 l 869 975 b 881 986 869 982 874 986 l 900 986 b 910 975 907 986 911 982 l 744 38 "},"Ч":{"ha":858,"x_min":0,"x_max":0,"o":"m 858 986 b 868 975 865 986 868 982 l 697 11 b 685 0 696 4 692 0 l 665 0 b 657 11 657 0 654 4 l 728 415 b 424 381 635 392 533 381 b 142 725 179 381 101 499 l 186 975 b 199 986 188 982 192 986 l 217 986 b 226 975 224 986 228 982 l 182 722 b 432 419 144 515 208 419 b 735 454 542 419 642 431 l 826 975 b 839 986 828 982 832 986 "},"Ш":{"ha":1251,"x_min":0,"x_max":0,"o":"m 1222 986 b 1232 975 1229 986 1232 982 l 1061 11 b 1049 0 1060 4 1056 0 l 57 0 b 47 11 50 0 46 4 l 218 975 b 231 986 219 982 224 986 l 249 986 b 258 975 256 986 260 982 l 94 38 l 539 38 l 704 975 b 717 986 706 982 710 986 l 735 986 b 746 975 742 986 746 982 l 581 38 l 1025 38 l 1190 975 b 1203 986 1192 982 1196 986 "},"Щ":{"ha":1276,"x_min":0,"x_max":0,"o":"m 1168 38 b 1178 26 1175 38 1178 33 l 1138 -201 b 1124 -212 1135 -208 1131 -212 l 1106 -212 b 1097 -201 1097 -212 1094 -208 l 1132 0 l 57 0 b 47 11 50 0 46 4 l 218 975 b 231 986 219 982 224 986 l 249 986 b 258 975 256 986 260 982 l 94 38 l 539 38 l 704 975 b 717 986 706 982 710 986 l 735 986 b 746 975 742 986 746 982 l 581 38 l 1025 38 l 1190 975 b 1203 986 1192 982 1196 986 l 1222 986 b 1232 975 1229 986 1232 982 l 1067 38 "},"Ъ":{"ha":981,"x_min":0,"x_max":0,"o":"m 660 593 b 914 293 847 593 947 476 b 563 0 882 108 750 0 l 185 0 b 176 11 176 0 174 4 l 342 949 l 110 949 b 100 960 103 949 99 953 l 103 975 b 115 986 104 982 108 986 l 376 986 b 388 975 383 986 388 982 l 318 593 m 564 38 b 872 299 726 38 843 133 b 654 556 901 460 819 556 l 313 556 l 222 38 "},"Ы":{"ha":1153,"x_min":0,"x_max":0,"o":"m 786 294 b 432 0 754 110 619 0 l 57 0 b 47 11 50 0 46 4 l 218 975 b 231 986 219 982 224 986 l 249 986 b 258 975 256 986 260 982 l 190 593 l 535 593 b 786 294 719 593 819 478 m 1092 975 b 1104 986 1093 982 1097 986 l 1122 986 b 1132 975 1129 986 1133 982 l 963 11 b 949 0 960 4 956 0 l 931 0 b 921 11 924 0 919 4 m 744 299 b 526 556 774 460 689 556 l 185 556 l 94 38 l 435 38 b 744 299 597 38 715 133 "},"Ь":{"ha":851,"x_min":0,"x_max":0,"o":"m 786 294 b 432 0 754 110 619 0 l 57 0 b 47 11 50 0 46 4 l 218 975 b 231 986 219 982 224 986 l 249 986 b 258 975 256 986 260 982 l 190 593 l 535 593 b 786 294 719 593 819 478 m 744 299 b 526 556 774 460 689 556 l 185 556 l 94 38 l 435 38 b 744 299 597 38 715 133 "},"Э":{"ha":881,"x_min":0,"x_max":0,"o":"m 125 763 b 526 1006 199 928 315 1006 b 838 664 767 1006 875 876 l 775 314 b 353 -19 738 103 588 -19 b 26 231 136 -19 43 64 b 38 246 25 238 29 243 l 53 251 b 67 244 61 254 65 251 b 356 18 83 89 163 18 b 735 317 567 18 701 129 l 764 479 l 283 479 b 275 490 275 479 272 483 l 278 507 b 290 518 278 514 282 518 l 771 518 l 797 669 b 522 968 831 858 738 968 b 161 750 332 968 233 901 b 143 743 157 743 150 740 l 129 747 b 125 763 122 750 121 756 "},"Ю":{"ha":1264,"x_min":0,"x_max":0,"o":"m 486 669 b 911 1006 525 882 674 1006 b 1217 663 1144 1006 1256 874 l 1156 311 b 735 -19 1118 100 972 -19 b 425 318 497 -19 388 107 l 453 481 l 171 481 l 89 11 b 75 0 86 4 82 0 l 57 0 b 47 11 50 0 46 4 l 218 975 b 231 986 219 982 224 986 l 249 986 b 258 975 256 986 260 982 l 178 519 l 461 519 m 1176 668 b 906 968 1210 857 1115 968 b 526 668 694 968 560 857 l 465 318 b 739 18 432 129 528 18 b 1115 318 950 18 1081 124 "},"Я":{"ha":890,"x_min":0,"x_max":0,"o":"m 142 721 b 465 986 171 893 292 986 l 867 986 b 876 975 874 986 878 982 l 707 11 b 693 0 704 4 700 0 l 675 0 b 665 11 668 0 664 4 l 742 444 l 482 444 b 232 306 364 444 294 406 l 40 10 b 17 0 35 3 26 0 l 0 0 b -6 13 -10 0 -12 4 l 199 324 b 343 450 239 386 288 429 b 142 721 192 461 114 561 m 463 949 b 183 717 311 949 210 867 b 379 483 157 568 229 483 l 749 483 l 831 949 "},"а":{"ha":733,"x_min":0,"x_max":0,"o":"m 111 472 b 442 729 140 651 243 729 b 656 690 526 729 599 717 b 697 614 699 672 704 658 l 599 46 b 579 28 597 38 590 32 b 286 -19 489 -4 392 -19 b 74 265 110 -19 42 92 m 628 658 b 438 694 576 682 513 694 b 147 469 264 694 176 629 l 111 264 b 294 15 83 110 140 15 b 563 61 390 15 479 31 l 658 606 b 628 658 664 639 661 643 "},"б":{"ha":764,"x_min":0,"x_max":0,"o":"m 649 1018 b 768 1039 701 1018 742 1025 b 782 1033 775 1043 779 1040 l 786 1018 b 776 1004 786 1013 783 1008 b 643 982 744 989 700 982 l 589 982 b 310 900 460 982 367 954 b 186 604 253 844 211 746 l 179 568 b 465 700 235 635 331 700 b 714 435 656 700 743 601 l 681 240 b 339 -19 651 74 533 -19 b 86 244 146 -19 57 79 l 149 600 b 286 926 176 756 222 864 b 596 1018 350 988 453 1018 m 676 438 b 457 665 703 582 628 665 b 313 633 406 665 357 654 b 215 571 267 611 235 590 b 172 515 196 550 182 532 l 124 243 b 342 15 97 99 175 15 b 643 243 513 15 617 99 "},"в":{"ha":724,"x_min":0,"x_max":0,"o":"m 207 694 b 425 729 267 718 340 729 b 661 522 607 729 683 654 b 522 371 647 446 601 396 b 628 189 610 340 644 279 b 301 -19 604 51 486 -19 b 83 18 213 -19 140 -7 b 42 101 43 35 35 57 l 131 604 b 207 694 139 647 164 678 m 624 524 b 422 696 644 635 576 696 b 222 663 338 696 271 685 b 168 597 192 650 174 629 l 129 385 l 442 385 b 624 524 532 385 607 435 m 589 193 b 442 353 607 289 549 353 l 124 353 l 81 111 b 110 50 75 76 78 65 b 303 14 167 26 231 14 b 589 193 464 14 568 75 "},"г":{"ha":681,"x_min":0,"x_max":0,"o":"m 115 565 b 421 729 185 675 286 729 b 647 531 600 729 669 651 b 497 365 622 432 582 388 b 422 350 467 357 442 351 b 333 340 401 347 372 344 b 164 304 256 333 218 326 b 69 176 110 282 81 239 b 276 14 51 71 115 14 b 565 169 413 14 508 65 b 579 175 568 176 572 179 l 593 169 b 597 154 599 167 600 161 b 272 -19 526 31 424 -19 b 33 178 89 -19 11 51 b 142 331 46 254 82 304 b 332 372 201 357 249 365 b 433 385 376 376 410 381 b 513 407 457 389 483 396 b 610 533 571 428 599 468 b 417 696 628 638 572 696 b 147 547 282 696 210 643 b 132 543 143 542 139 540 l 118 550 b 115 565 113 551 111 557 "},"д":{"ha":760,"x_min":0,"x_max":0,"o":"m 286 1018 b 299 1028 286 1025 290 1028 b 642 939 471 1028 569 1004 b 713 557 721 868 744 742 l 656 239 b 318 -19 628 74 508 -19 b 65 243 124 -19 38 78 l 100 444 b 436 701 132 610 247 701 b 676 551 571 701 658 644 b 615 910 708 728 689 842 b 292 993 554 965 446 993 b 283 1004 285 993 282 997 m 654 442 b 436 667 681 585 603 667 b 138 442 265 667 165 592 l 103 239 b 321 15 76 96 153 15 b 618 239 488 15 592 96 "},"е":{"ha":717,"x_min":0,"x_max":0,"o":"m 103 446 b 447 729 135 625 263 729 b 694 493 636 729 732 642 b 379 307 664 369 558 307 b 121 335 286 307 200 317 l 104 247 b 311 14 78 99 149 14 b 593 154 444 14 526 64 b 611 158 600 161 606 163 l 622 151 b 622 136 626 147 626 143 b 306 -19 547 32 442 -19 b 68 251 118 -19 36 83 m 657 499 b 442 696 690 626 610 696 b 139 444 281 696 167 601 l 125 368 b 386 339 201 349 289 339 b 657 499 540 339 631 392 "},"ж":{"ha":1022,"x_min":0,"x_max":0,"o":"m 581 710 b 589 699 588 710 590 706 l 535 383 l 675 383 b 707 382 690 383 700 383 l 992 701 b 1015 710 997 707 1006 710 l 1032 710 b 1036 697 1043 710 1044 706 l 744 371 b 842 268 792 358 824 324 l 925 11 b 917 0 926 4 924 0 l 900 0 b 885 8 890 0 886 3 l 806 251 b 668 349 783 319 747 349 l 526 349 l 468 11 b 456 0 467 4 463 0 l 439 0 b 431 11 431 0 428 4 l 489 349 l 349 349 b 176 251 269 349 222 319 l 14 8 b -4 0 10 3 4 0 l -24 0 b -28 11 -32 0 -33 4 l 146 268 b 282 375 186 328 232 363 l 103 697 b 113 710 100 706 103 710 l 126 710 b 146 701 136 710 143 707 l 319 382 b 356 383 326 383 339 383 l 496 383 l 551 699 b 564 710 553 706 557 710 "},"з":{"ha":692,"x_min":0,"x_max":0,"o":"m 85 564 b 175 671 108 610 138 646 b 393 729 232 710 306 729 b 635 528 556 729 656 649 b 492 367 619 447 572 393 l 492 365 b 588 183 572 339 604 279 b 276 -19 567 61 461 -19 b 57 68 169 -19 89 18 b 10 172 24 117 14 149 l 10 176 b 21 192 8 183 13 189 l 36 196 b 49 189 43 199 47 196 b 100 75 47 183 53 126 b 279 15 129 44 196 15 b 549 189 439 15 532 83 b 393 349 569 296 521 349 l 229 349 b 221 360 222 349 219 353 l 224 371 b 236 382 224 378 228 382 l 399 382 b 596 528 513 382 578 431 b 388 694 614 628 526 694 b 160 611 263 694 196 651 b 121 556 131 579 128 571 l 119 553 b 103 543 115 543 110 540 l 90 549 b 85 564 83 551 81 557 "},"и":{"ha":756,"x_min":0,"x_max":0,"o":"m 747 710 b 756 700 754 710 757 707 l 650 101 b 585 25 640 58 629 43 b 331 -19 508 -4 424 -19 b 113 247 154 -19 81 69 l 192 700 b 204 710 194 707 199 710 l 222 710 b 231 700 229 710 232 707 l 150 249 b 339 15 124 93 186 15 b 572 56 424 15 501 29 b 614 108 596 65 610 83 l 718 700 b 731 710 719 707 724 710 "},"й":{"ha":756,"x_min":0,"x_max":0,"o":"m 731 965 b 499 807 683 860 606 807 b 314 965 386 807 325 860 b 322 976 313 971 315 975 l 336 981 b 347 975 343 982 346 979 b 500 839 354 881 404 839 b 700 976 593 839 660 885 b 711 982 703 982 707 983 l 728 976 b 731 965 732 974 732 969 m 747 710 b 756 700 754 710 757 707 l 650 101 b 585 25 640 58 629 43 b 331 -19 508 -4 424 -19 b 113 247 154 -19 81 69 l 192 700 b 204 710 194 707 199 710 l 222 710 b 231 700 229 710 232 707 l 150 249 b 339 15 124 93 186 15 b 572 56 424 15 501 29 b 614 108 596 65 610 83 l 718 700 b 731 710 719 707 724 710 "},"к":{"ha":707,"x_min":0,"x_max":0,"o":"m 606 11 b 597 0 608 4 606 0 l 579 0 b 565 8 571 0 567 3 l 485 251 b 347 349 463 319 426 349 l 128 349 l 69 11 b 56 0 67 4 63 0 l 39 0 b 31 11 32 0 29 4 l 151 699 b 165 710 154 706 158 710 l 182 710 b 190 699 189 710 192 706 l 135 383 l 351 383 l 365 383 l 672 701 b 696 710 678 707 686 710 l 711 710 b 715 696 721 710 722 706 l 404 375 b 519 267 461 365 500 329 "},"л":{"ha":739,"x_min":0,"x_max":0,"o":"m 681 710 b 689 700 688 710 690 707 l 568 10 b 556 0 567 3 563 0 l 539 0 b 531 10 531 0 528 3 l 646 674 l 279 674 l 215 399 b 93 76 176 233 139 131 b -39 -15 44 19 25 10 b -50 -19 -43 -17 -47 -18 b -61 -15 -57 -22 -60 -21 l -67 3 b -33 28 -68 13 -61 15 b -3 42 -19 33 -10 38 b 57 89 10 47 40 68 b 178 403 94 139 136 225 l 249 700 b 261 710 250 707 254 710 "},"м":{"ha":879,"x_min":0,"x_max":0,"o":"m 821 710 b 831 697 828 710 832 706 l 708 11 b 694 0 707 4 703 0 l 682 0 b 672 11 672 0 669 4 l 757 494 b 789 644 760 513 771 563 l 788 644 l 699 521 l 415 139 b 397 129 411 132 404 129 l 389 129 b 374 139 381 129 375 132 l 226 513 b 178 646 200 583 183 628 l 175 646 b 150 482 160 544 151 490 l 67 11 b 56 0 65 4 63 0 l 40 0 b 31 11 33 0 29 4 l 151 697 b 167 710 154 706 160 710 l 178 710 b 192 699 186 710 190 706 l 400 171 l 788 699 b 804 710 794 706 800 710 "},"н":{"ha":771,"x_min":0,"x_max":0,"o":"m 713 710 b 721 700 721 710 724 707 l 600 10 b 588 0 599 3 594 0 l 571 0 b 563 10 563 0 560 3 l 621 349 l 128 349 l 69 10 b 57 0 67 3 63 0 l 39 0 b 31 10 32 0 29 3 l 151 700 b 164 710 154 707 158 710 l 182 710 b 190 700 189 710 192 707 l 135 383 l 628 383 l 683 700 b 696 710 685 707 689 710 "},"о":{"ha":744,"x_min":0,"x_max":0,"o":"m 110 493 b 443 729 136 639 265 729 b 697 492 622 729 721 638 l 649 215 b 317 -19 622 69 494 -19 b 61 218 139 -19 38 72 m 660 494 b 439 694 682 617 593 694 b 147 494 288 694 171 617 l 100 215 b 319 15 78 93 168 15 b 611 215 474 15 589 93 "},"п":{"ha":754,"x_min":0,"x_max":0,"o":"m 197 685 b 451 729 276 714 361 729 b 669 463 628 729 701 640 l 590 10 b 578 0 589 3 585 0 l 561 0 b 553 10 553 0 550 3 l 632 461 b 443 694 658 617 596 694 b 210 653 356 694 278 681 b 168 603 186 643 172 626 l 65 10 b 53 0 63 3 58 0 l 35 0 b 26 10 28 0 25 3 l 132 610 b 197 685 142 653 153 667 "},"р":{"ha":738,"x_min":0,"x_max":0,"o":"m 204 690 b 435 729 274 717 350 729 b 671 453 625 729 703 638 l 635 246 b 324 -19 603 69 499 -19 b 74 47 236 -19 153 3 l 14 -296 b 1 -306 11 -303 7 -306 l -17 -306 b -24 -296 -24 -306 -26 -303 l 136 614 b 204 690 143 658 156 672 m 633 453 b 426 694 661 614 592 694 b 221 658 349 694 281 682 b 172 606 182 643 178 639 l 81 86 b 328 15 154 39 238 15 b 597 247 479 15 569 93 "},"с":{"ha":708,"x_min":0,"x_max":0,"o":"m 107 468 b 442 729 136 635 251 729 b 693 536 607 729 676 660 b 685 521 694 528 692 522 l 671 518 b 658 524 663 515 658 517 b 436 694 642 640 581 694 b 144 465 274 694 171 608 l 106 246 b 317 15 79 103 156 15 b 603 196 460 15 547 72 b 618 203 607 203 611 204 l 635 199 b 638 185 640 196 642 192 b 313 -19 575 49 467 -19 b 68 251 125 -19 39 83 "},"т":{"ha":1122,"x_min":0,"x_max":0,"o":"m 575 660 b 844 729 668 706 757 729 b 1039 475 1004 729 1068 644 l 957 10 b 944 0 954 3 950 0 l 926 0 b 918 10 919 0 917 3 l 1000 474 b 835 694 1026 625 975 694 b 592 629 744 694 663 672 b 601 476 610 592 613 540 l 519 10 b 507 0 518 3 514 0 l 489 0 b 482 10 482 0 479 3 l 564 474 b 392 694 590 625 535 694 b 211 657 326 694 265 682 b 168 601 188 644 172 626 l 65 10 b 53 0 63 3 58 0 l 35 0 b 26 10 28 0 25 3 l 132 610 b 197 689 139 650 154 668 b 400 729 260 715 328 729 b 575 660 486 729 544 706 "},"у":{"ha":760,"x_min":0,"x_max":0,"o":"m 704 710 b 713 700 711 710 714 707 l 579 -57 b 240 -357 544 -257 431 -357 b 1 -194 115 -357 36 -303 b 10 -178 -1 -186 1 -181 l 22 -172 b 38 -176 29 -168 33 -169 b 246 -321 67 -269 124 -321 b 542 -58 411 -321 510 -233 l 558 38 b 289 -15 457 3 368 -15 b 71 253 113 -15 39 74 l 149 700 b 161 710 151 707 156 710 l 179 710 b 186 700 186 710 189 707 l 108 253 b 297 19 81 97 136 19 b 564 74 379 19 468 38 l 675 700 b 688 710 676 707 681 710 "},"ф":{"ha":1021,"x_min":0,"x_max":0,"o":"m 597 721 b 724 729 642 725 683 728 b 965 451 918 729 999 636 l 931 250 b 592 -19 899 71 786 -19 b 469 -11 551 -18 511 -15 l 419 -296 b 406 -306 417 -303 413 -306 l 389 -306 b 381 -296 382 -306 379 -303 l 432 -11 b 303 -19 388 -15 344 -18 b 118 32 229 -19 172 -7 b 61 260 64 69 40 149 l 93 449 b 233 678 114 560 165 639 b 435 729 300 715 363 729 b 560 721 464 729 506 726 l 613 1017 b 625 1028 614 1024 618 1028 l 642 1028 b 650 1017 649 1028 651 1024 m 99 257 b 154 54 81 153 103 83 b 310 17 206 25 249 17 b 438 24 347 17 389 19 l 554 686 b 429 693 508 690 467 693 b 257 647 372 693 317 681 b 131 443 196 614 147 542 m 928 454 b 717 693 967 671 815 693 b 592 686 682 693 640 690 l 475 24 b 597 17 519 19 560 17 b 893 256 767 17 865 96 "},"х":{"ha":647,"x_min":0,"x_max":0,"o":"m 665 710 b 669 700 675 710 676 707 l 346 364 l 563 10 b 554 0 565 3 563 0 l 535 0 b 521 8 529 0 525 3 l 321 338 l 7 8 b -12 0 1 3 -6 0 l -35 0 b -37 10 -43 0 -44 3 l 301 365 l 96 700 b 106 710 92 707 96 710 l 121 710 b 138 701 129 710 135 707 l 328 392 l 624 701 b 643 710 629 707 636 710 "},"ц":{"ha":783,"x_min":0,"x_max":0,"o":"m 197 710 b 206 700 204 710 207 707 l 125 247 b 315 15 99 93 161 15 b 513 43 392 15 450 26 b 581 60 544 51 567 57 l 693 700 b 706 710 694 707 699 710 l 722 710 b 731 700 729 710 732 707 l 618 64 b 714 -36 685 74 725 40 l 689 -183 b 678 -193 686 -190 682 -193 l 663 -193 b 653 -183 653 -193 650 -190 l 678 -39 b 611 31 685 7 667 38 b 492 4 599 29 558 19 b 307 -19 424 -11 363 -19 b 88 247 128 -19 58 76 l 167 700 b 179 710 169 707 174 710 "},"ч":{"ha":692,"x_min":0,"x_max":0,"o":"m 121 700 b 133 710 122 707 126 710 l 151 710 b 158 700 158 710 161 707 l 125 511 b 331 310 99 367 160 310 b 563 347 385 310 463 322 l 625 700 b 638 710 626 707 631 710 l 654 710 b 663 700 663 710 665 707 l 542 10 b 529 0 540 3 536 0 l 513 0 b 504 10 504 0 501 3 l 557 311 b 321 274 482 286 403 274 b 89 517 132 274 60 350 "},"ш":{"ha":1114,"x_min":0,"x_max":0,"o":"m 1104 710 b 1113 700 1113 710 1115 707 l 1008 101 b 944 21 999 57 988 39 b 739 -19 882 -6 813 -19 b 565 47 657 -19 599 3 b 303 -19 481 3 393 -19 b 110 239 143 -19 79 67 l 190 700 b 203 710 193 707 197 710 l 221 710 b 229 700 228 710 231 707 l 147 236 b 313 15 121 85 172 15 b 549 76 392 15 471 36 b 539 233 531 117 526 169 l 621 700 b 633 710 622 707 626 710 l 650 710 b 658 700 657 710 660 707 l 575 232 b 747 15 549 83 607 15 b 928 53 815 15 875 28 b 971 113 951 64 965 83 l 1075 700 b 1088 710 1076 707 1081 710 "},"щ":{"ha":1140,"x_min":0,"x_max":0,"o":"m 190 700 b 203 710 193 707 197 710 l 221 710 b 229 700 228 710 231 707 l 147 236 b 313 15 121 85 172 15 b 549 76 392 15 471 36 b 539 233 531 117 526 169 l 621 700 b 633 710 622 707 626 710 l 650 710 b 658 700 657 710 660 707 l 575 232 b 747 15 549 83 607 15 b 897 42 807 15 846 24 b 961 60 924 50 944 56 l 1075 700 b 1088 710 1076 707 1081 710 l 1104 710 b 1113 700 1113 710 1115 707 l 1000 65 b 1097 -36 1068 75 1110 40 l 1072 -183 b 1061 -193 1069 -190 1065 -193 l 1046 -193 b 1036 -183 1036 -193 1033 -190 l 1061 -39 b 994 31 1068 7 1051 38 b 886 4 979 29 943 19 b 739 -19 829 -11 779 -19 b 565 47 657 -19 599 3 b 303 -19 481 3 393 -19 b 110 239 143 -19 79 67 "},"ъ":{"ha":829,"x_min":0,"x_max":0,"o":"m 264 431 b 531 482 357 465 446 482 b 717 417 615 482 676 460 b 753 232 756 372 768 311 b 426 -19 724 58 619 -19 b 210 19 340 -19 268 -7 b 168 96 167 38 161 51 l 271 675 l 64 675 b 54 685 57 675 54 678 l 57 700 b 69 710 60 707 64 710 l 304 710 b 311 700 311 710 314 707 m 238 51 b 429 15 289 28 353 15 b 715 236 600 15 688 85 b 525 449 739 371 669 449 b 258 394 438 449 349 431 l 207 104 b 238 51 201 71 204 64 "},"ы":{"ha":940,"x_min":0,"x_max":0,"o":"m 142 431 b 408 482 238 465 326 482 b 631 232 576 482 660 389 b 304 -19 601 58 497 -19 b 89 19 218 -19 146 -7 b 46 96 46 38 39 51 l 151 700 b 165 710 154 707 158 710 l 181 710 b 190 700 188 710 192 707 m 885 710 b 893 700 893 710 896 707 l 772 10 b 760 0 771 3 767 0 l 743 0 b 735 10 736 0 733 3 l 856 700 b 868 710 857 707 861 710 m 115 51 b 307 15 167 28 231 15 b 593 236 478 15 567 85 b 401 449 617 371 546 449 b 136 394 315 449 226 431 l 85 104 b 115 51 79 71 82 64 "},"ь":{"ha":703,"x_min":0,"x_max":0,"o":"m 142 431 b 408 482 238 465 326 482 b 631 232 576 482 660 389 b 304 -19 601 58 497 -19 b 89 19 218 -19 146 -7 b 46 96 46 38 39 51 l 151 700 b 165 710 154 707 158 710 l 181 710 b 190 700 188 710 192 707 m 115 51 b 307 15 167 28 231 15 b 593 236 478 15 567 85 b 401 449 617 371 546 449 b 136 394 315 449 226 431 l 85 104 b 115 51 79 71 82 64 "},"э":{"ha":706,"x_min":0,"x_max":0,"o":"m 81 539 b 396 729 140 667 231 729 b 640 458 586 729 669 626 l 601 242 b 268 -19 572 75 456 -19 b 14 185 107 -19 29 47 b 22 199 13 192 15 196 l 39 204 b 53 196 46 206 51 203 b 274 15 65 72 133 15 b 565 246 435 15 539 103 l 583 346 l 239 346 b 231 357 232 346 229 350 l 233 371 b 244 382 235 378 238 382 l 589 382 l 604 465 b 393 694 631 610 558 694 b 114 524 247 694 171 644 b 99 518 110 518 104 517 l 85 524 b 81 539 78 526 76 532 "},"ю":{"ha":1021,"x_min":0,"x_max":0,"o":"m 383 497 b 710 729 407 642 536 729 b 957 490 886 729 981 636 l 906 207 b 579 -19 882 63 757 -19 b 332 214 406 -19 308 69 l 354 342 l 126 342 l 69 10 b 57 0 67 3 63 0 l 39 0 b 31 10 32 0 29 3 l 151 700 b 164 710 154 707 158 710 l 182 710 b 190 700 189 710 192 707 l 133 378 l 361 378 m 919 497 b 704 694 942 618 856 694 b 419 496 554 694 440 617 l 369 210 b 585 15 347 89 435 15 b 869 213 736 15 847 90 "},"я":{"ha":707,"x_min":0,"x_max":0,"o":"m 658 710 b 667 699 667 710 669 706 l 547 10 b 535 0 544 3 540 0 l 517 0 b 508 10 510 0 507 3 l 556 278 l 276 278 l 43 10 b 21 0 38 3 31 0 l 4 0 b 0 13 -7 0 -8 4 l 235 282 b 92 497 129 293 71 376 b 351 710 115 632 214 710 m 347 675 b 131 492 232 675 151 607 b 278 311 110 379 167 311 l 561 311 l 626 675 "},"ё":{"ha":717,"x_min":0,"x_max":0,"o":"m 357 931 b 375 908 375 931 379 926 l 374 899 b 347 876 369 881 365 876 l 339 876 b 319 899 322 876 318 882 l 321 908 b 349 931 324 924 333 931 m 619 931 b 639 908 635 931 642 924 l 638 899 b 610 876 633 883 625 876 l 601 876 b 582 899 583 876 578 881 l 583 908 b 611 931 588 925 593 931 m 103 446 b 447 729 135 625 263 729 b 694 493 636 729 732 642 b 379 307 664 369 558 307 b 121 335 286 307 200 317 l 104 247 b 311 14 78 99 149 14 b 593 154 444 14 526 64 b 611 158 600 161 606 163 l 622 151 b 622 136 626 147 626 143 b 306 -19 547 32 442 -19 b 68 251 118 -19 36 83 m 657 499 b 442 696 690 626 610 696 b 139 444 281 696 167 601 l 125 368 b 386 339 201 349 289 339 b 657 499 540 339 631 392 "},"Ẁ":{"ha":1197,"x_min":0,"x_max":0,"o":"m 614 1226 b 636 1228 621 1233 628 1233 l 854 1081 b 854 1067 860 1076 860 1072 l 849 1061 b 833 1060 844 1057 839 1056 l 606 1203 b 606 1218 599 1207 599 1211 m 1260 986 b 1267 975 1267 986 1269 982 l 833 11 b 815 0 831 4 825 0 l 797 0 b 783 11 788 0 783 4 l 700 781 b 690 900 699 801 693 879 l 688 900 b 635 781 671 857 653 817 l 279 11 b 260 0 275 4 268 0 l 243 0 b 229 11 233 0 229 4 l 136 975 b 144 986 133 982 136 986 l 165 986 b 179 976 174 986 178 983 l 254 181 b 261 60 256 160 258 119 l 264 60 b 315 179 292 125 308 165 l 674 951 b 692 961 678 958 683 961 l 708 961 b 722 951 718 961 722 958 l 806 176 b 814 60 811 106 814 67 l 817 60 b 863 175 835 106 850 143 l 1224 976 b 1240 986 1226 983 1232 986 "},"ẁ":{"ha":1007,"x_min":0,"x_max":0,"o":"m 479 988 b 500 989 486 994 493 994 l 713 835 b 713 821 717 831 717 826 l 708 817 b 692 815 703 813 697 813 l 472 967 b 472 981 465 969 465 974 m 1021 710 b 1026 697 1029 710 1031 706 l 683 4 b 668 -7 679 -3 675 -7 l 653 -7 b 640 4 644 -7 640 -3 l 558 538 b 546 635 551 596 547 628 l 544 635 l 497 538 l 225 4 b 210 -7 221 -3 217 -7 l 196 -7 b 183 4 189 -7 185 -3 l 86 697 b 97 710 85 706 88 710 l 110 710 b 124 699 122 710 124 708 l 197 169 b 211 47 200 151 208 68 l 213 47 b 243 110 219 60 229 81 b 272 172 256 139 265 160 l 531 675 b 549 685 535 682 540 685 l 558 685 b 572 675 567 685 571 682 l 650 178 b 667 47 654 146 660 103 l 669 47 l 729 176 l 986 699 b 1007 710 990 706 997 710 "}}}
